M48
;DRILL file {KiCad 4.0.1-2.201512121406+6195~38~ubuntu14.04.1-stable} date Son 17 Jan 2016 01:36:16 CET
;FORMAT={-:-/ absolute / metric / decimal}
FMAT,2
METRIC,TZ
T1C0.700
T2C0.750
T3C0.800
T4C0.813
T5C0.900
T6C1.000
T7C1.001
T8C1.016
T9C1.349
T10C1.500
T11C3.000
%
G90
G05
M71
T1
X56.816Y-25.86
X56.816Y-28.36
X76.12Y-25.9
X76.12Y-28.4
X96.44Y-25.9
X96.44Y-28.4
T2
X25.828Y-162.385
X26.67Y-134.366
X36.576Y-155.194
X36.75Y-126.19
X37.592Y-162.56
X41.576Y-166.957
X43.862Y-93.424
X45.847Y-89.916
X50.8Y-99.06
X50.974Y-122.888
X55.88Y-99.06
X56.923Y-127.201
X58.42Y-75.438
X61.722Y-157.677
X66.294Y-88.138
X70.358Y-103.632
X73.279Y-117.856
X73.533Y-55.88
X73.533Y-71.755
X76.327Y-80.391
X77.978Y-56.134
X78.994Y-80.518
X81.28Y-72.39
X83.058Y-90.678
X83.566Y-64.262
X85.09Y-88.138
X88.138Y-98.298
X90.678Y-82.169
X97.536Y-72.898
X100.111Y-85.344
X111.68Y-130.
X124.656Y-149.041
X127.254Y-148.844
T3
X62.865Y-45.085
X62.865Y-47.625
X62.865Y-50.165
X62.865Y-52.705
X62.865Y-55.245
X62.865Y-57.785
X62.865Y-60.325
X70.485Y-45.085
X70.485Y-47.625
X70.485Y-50.165
X70.485Y-52.705
X70.485Y-55.245
X70.485Y-57.785
X70.485Y-60.325
X88.82Y-137.62
X88.82Y-140.16
X88.82Y-142.7
X88.82Y-145.24
X88.82Y-147.78
X88.82Y-150.32
X88.82Y-152.86
X88.82Y-155.4
X88.82Y-157.94
X88.82Y-160.48
X96.44Y-137.62
X96.44Y-140.16
X96.44Y-142.7
X96.44Y-145.24
X96.44Y-147.78
X96.44Y-150.32
X96.44Y-152.86
X96.44Y-155.4
X96.44Y-157.94
X96.44Y-160.48
X102.87Y-27.13
X107.87Y-27.13
X111.68Y-47.45
X111.68Y-49.99
X111.68Y-52.53
X111.68Y-55.07
X111.68Y-63.96
X111.68Y-66.5
X111.68Y-69.04
X111.68Y-71.58
X119.3Y-47.45
X119.3Y-49.99
X119.3Y-52.53
X119.3Y-55.07
X119.3Y-63.96
X119.3Y-66.5
X119.3Y-69.04
X119.3Y-71.58
X154.94Y-38.56
X154.94Y-89.36
X154.94Y-140.24
X159.94Y-38.56
X159.94Y-89.36
X159.94Y-140.24
T4
X30.4Y-47.634
X30.4Y-58.245
X30.4Y-62.69
X32.94Y-47.634
X32.94Y-58.245
X32.94Y-62.69
X35.48Y-47.634
X35.48Y-58.245
X35.48Y-62.69
X38.02Y-47.634
X38.02Y-58.245
X38.02Y-62.69
X40.56Y-47.634
X40.56Y-58.245
X40.56Y-62.69
X43.1Y-47.634
X43.1Y-58.245
X43.1Y-62.69
X45.64Y-47.634
X45.64Y-58.245
X45.64Y-62.69
X48.18Y-47.634
X48.18Y-58.245
X48.18Y-62.69
X50.72Y-47.634
X50.72Y-58.245
X50.72Y-62.69
T5
X30.27Y-145.24
X30.27Y-173.815
X38.02Y-145.24
X38.02Y-173.815
X57.07Y-145.24
X57.07Y-173.815
X64.82Y-145.24
X64.82Y-173.815
T6
X40.49Y-27.13
X43.259Y-34.29
X44.45Y-27.13
X48.26Y-34.29
X48.41Y-27.13
X52.37Y-27.13
X60.66Y-27.178
X63.579Y-34.29
X64.62Y-27.178
X68.58Y-27.178
X68.58Y-34.29
X72.54Y-27.178
X80.98Y-27.305
X83.899Y-34.115
X84.94Y-27.305
X88.9Y-27.305
X88.9Y-34.115
X92.86Y-27.305
X116.31Y-27.13
X120.27Y-27.13
X124.23Y-27.13
X125.015Y-54.013
X125.015Y-59.515
X128.19Y-27.13
X136.78Y-27.13
X140.74Y-27.13
X144.7Y-27.13
X148.66Y-27.13
X157.4Y-48.94
X157.4Y-52.9
X157.4Y-56.86
X157.4Y-60.82
X157.4Y-64.78
X157.4Y-68.74
X157.4Y-72.7
X157.4Y-76.66
X157.4Y-99.89
X157.4Y-103.85
X157.4Y-107.81
X157.4Y-111.77
X157.4Y-115.73
X157.4Y-119.69
X157.4Y-123.65
X157.4Y-127.61
X157.4Y-150.54
X157.4Y-154.5
X157.4Y-158.46
X157.4Y-162.42
X157.4Y-166.38
X157.4Y-170.34
X157.4Y-174.3
X157.4Y-178.26
T7
X32.893Y-33.95
X32.893Y-38.951
X77.549Y-75.946
X81.2Y-48.72
X82.549Y-126.19
X82.55Y-75.946
X83.74Y-48.72
X86.28Y-48.72
X87.55Y-126.19
X95.17Y-48.72
X97.71Y-48.72
X97.71Y-126.19
X100.25Y-48.72
X102.711Y-126.19
X119.935Y-77.93
X124.888Y-67.849
X124.888Y-72.85
X124.936Y-77.93
X125.015Y-49.012
X125.015Y-64.516
X134.54Y-49.99
X134.54Y-52.53
X134.54Y-55.07
X134.54Y-66.5
X134.54Y-69.04
X134.54Y-71.58
X134.54Y-100.79
X134.54Y-103.33
X134.54Y-105.87
X134.54Y-117.3
X134.54Y-119.84
X134.54Y-122.38
X134.54Y-151.59
X134.54Y-154.13
X134.54Y-156.67
X134.54Y-168.1
X134.54Y-170.64
X134.54Y-173.18
X143.43Y-55.07
X143.43Y-57.61
X143.43Y-60.15
X143.43Y-71.58
X143.43Y-74.12
X143.43Y-76.66
X143.43Y-105.87
X143.43Y-108.41
X143.43Y-110.95
X143.43Y-122.38
X143.43Y-124.92
X143.43Y-127.46
X143.43Y-156.67
X143.43Y-159.21
X143.43Y-161.75
X143.43Y-173.18
X143.43Y-175.72
X143.43Y-178.26
T8
X27.86Y-77.93
X27.86Y-80.47
X27.86Y-83.01
X27.86Y-85.55
X27.86Y-88.09
X27.86Y-90.63
X27.86Y-93.17
X27.86Y-95.71
X27.86Y-98.25
X27.86Y-100.79
X30.4Y-77.93
X30.4Y-80.47
X30.4Y-83.01
X30.4Y-85.55
X30.4Y-88.09
X30.4Y-90.63
X30.4Y-93.17
X30.4Y-95.71
X30.4Y-98.25
X30.4Y-100.79
X30.4Y-137.62
X30.4Y-166.195
X30.48Y-43.18
X32.94Y-137.62
X32.94Y-166.195
X33.02Y-43.18
X35.48Y-137.62
X35.48Y-166.195
X35.56Y-43.18
X38.02Y-137.62
X38.02Y-166.195
X38.1Y-43.18
X40.64Y-43.18
X43.18Y-43.18
X45.72Y-43.18
X48.26Y-43.18
X57.07Y-137.62
X57.07Y-166.195
X59.61Y-137.62
X59.61Y-166.195
X62.15Y-137.62
X62.15Y-166.195
X64.69Y-137.62
X64.69Y-166.195
X71.04Y-77.93
X71.04Y-80.47
X71.04Y-83.01
X71.04Y-85.55
X71.04Y-88.09
X71.04Y-90.63
X71.04Y-93.17
X71.04Y-95.71
X71.04Y-98.25
X71.04Y-100.79
X73.58Y-77.93
X73.58Y-80.47
X73.58Y-83.01
X73.58Y-85.55
X73.58Y-88.09
X73.58Y-90.63
X73.58Y-93.17
X73.58Y-95.71
X73.58Y-98.25
X73.58Y-100.79
X88.929Y-58.354
X90.725Y-60.15
X104.06Y-145.24
X104.06Y-147.78
X104.06Y-150.32
X104.06Y-152.86
X104.06Y-155.4
X104.06Y-157.94
X104.06Y-160.48
X104.06Y-163.02
T9
X101.439Y-36.02
X101.439Y-41.1
X116.76Y-36.02
X116.76Y-41.1
X129.379Y-138.89
X129.379Y-143.97
X129.419Y-36.02
X129.419Y-41.1
X129.419Y-89.36
X129.419Y-94.44
X144.7Y-138.89
X144.7Y-143.97
X144.741Y-36.02
X144.741Y-41.1
X144.741Y-89.36
X144.741Y-94.44
T10
X30.908Y-107.14
X45.894Y-174.45
X53.396Y-107.276
X56.769Y-58.674
X69.77Y-122.634
X87.884Y-106.934
T11
X20.Y-20.
X20.Y-185.
X165.Y-20.
X165.Y-185.
T0
M30
