M48
;DRILL file {KiCad 4.0.1-2.201512121406+6195~38~ubuntu14.04.1-stable} date Mit 30 Dez 2015 18:05:00 CET
;FORMAT={-:-/ absolute / metric / decimal}
FMAT,2
METRIC,TZ
T1C0.700
T2C0.750
T3C0.800
T4C0.813
T5C0.900
T6C1.000
T7C1.001
T8C1.016
T9C1.349
T10C1.500
T11C4.000
%
G90
G05
M71
T1
X56.816Y-25.86
X56.816Y-28.36
X76.12Y-25.9
X76.12Y-28.4
X96.44Y-25.9
X96.44Y-28.4
T2
X25.828Y-162.385
X26.67Y-134.366
X36.576Y-155.194
X36.75Y-126.19
X37.891Y-162.637
X38.274Y-97.234
X41.576Y-166.957
X43.862Y-93.424
X46.402Y-90.884
X50.974Y-122.888
X56.923Y-127.201
X58.34Y-77.295
X61.817Y-157.756
X64.69Y-88.09
X67.23Y-45.164
X71.12Y-103.378
X71.675Y-72.215
X71.802Y-44.91
X76.12Y-117.554
X79.756Y-77.724
X83.058Y-90.678
X85.09Y-88.138
X86.106Y-98.298
X88.138Y-85.598
X111.68Y-130.
X114.22Y-143.97
X119.046Y-157.432
X125.904Y-146.51
X128.698Y-147.78
T3
X88.82Y-127.46
X88.82Y-130.
X88.82Y-132.54
X88.82Y-135.08
X88.82Y-137.62
X88.82Y-140.16
X88.82Y-142.7
X88.82Y-145.24
X88.82Y-147.78
X88.82Y-150.32
X96.44Y-127.46
X96.44Y-130.
X96.44Y-132.54
X96.44Y-135.08
X96.44Y-137.62
X96.44Y-140.16
X96.44Y-142.7
X96.44Y-145.24
X96.44Y-147.78
X96.44Y-150.32
X102.87Y-27.13
X107.87Y-27.13
X111.68Y-47.45
X111.68Y-49.99
X111.68Y-52.53
X111.68Y-55.07
X111.68Y-63.96
X111.68Y-66.5
X111.68Y-69.04
X111.68Y-71.58
X119.3Y-47.45
X119.3Y-49.99
X119.3Y-52.53
X119.3Y-55.07
X119.3Y-63.96
X119.3Y-66.5
X119.3Y-69.04
X119.3Y-71.58
X154.94Y-38.56
X154.94Y-89.36
X154.94Y-140.24
X159.94Y-38.56
X159.94Y-89.36
X159.94Y-140.24
T4
X30.4Y-46.364
X30.4Y-56.975
X30.4Y-61.42
X32.94Y-46.364
X32.94Y-56.975
X32.94Y-61.42
X35.48Y-46.364
X35.48Y-56.975
X35.48Y-61.42
X38.02Y-46.364
X38.02Y-56.975
X38.02Y-61.42
X40.56Y-46.364
X40.56Y-56.975
X40.56Y-61.42
X43.1Y-46.364
X43.1Y-56.975
X43.1Y-61.42
X45.64Y-46.364
X45.64Y-56.975
X45.64Y-61.42
X48.18Y-46.364
X48.18Y-56.975
X48.18Y-61.42
X50.72Y-46.364
X50.72Y-56.975
X50.72Y-61.42
T5
X30.27Y-145.24
X30.27Y-173.815
X38.02Y-145.24
X38.02Y-173.815
X57.07Y-145.24
X57.07Y-173.815
X64.82Y-145.24
X64.82Y-173.815
T6
X40.56Y-27.13
X44.52Y-27.13
X48.48Y-27.13
X52.44Y-27.13
X60.73Y-27.13
X64.69Y-27.13
X68.65Y-27.13
X72.61Y-27.13
X81.05Y-27.13
X85.01Y-27.13
X88.97Y-27.13
X92.93Y-27.13
X116.31Y-27.13
X120.27Y-27.13
X124.23Y-27.13
X128.19Y-27.13
X136.78Y-27.13
X140.74Y-27.13
X144.7Y-27.13
X148.66Y-27.13
X157.4Y-48.94
X157.4Y-52.9
X157.4Y-56.86
X157.4Y-60.82
X157.4Y-64.78
X157.4Y-68.74
X157.4Y-72.7
X157.4Y-76.66
X157.4Y-99.89
X157.4Y-103.85
X157.4Y-107.81
X157.4Y-111.77
X157.4Y-115.73
X157.4Y-119.69
X157.4Y-123.65
X157.4Y-127.61
X157.4Y-150.54
X157.4Y-154.5
X157.4Y-158.46
X157.4Y-162.42
X157.4Y-166.38
X157.4Y-170.34
X157.4Y-174.3
X157.4Y-178.26
T7
X39.115Y-33.988
X44.116Y-33.988
X47.418Y-33.988
X52.419Y-33.988
X58.419Y-34.115
X63.42Y-34.115
X67.23Y-34.115
X72.231Y-34.115
X79.295Y-34.115
X81.2Y-48.72
X82.549Y-116.03
X83.74Y-48.72
X84.296Y-34.115
X86.28Y-48.72
X87.55Y-116.03
X88.264Y-34.115
X93.265Y-34.115
X95.17Y-48.72
X97.71Y-48.72
X97.71Y-116.03
X100.25Y-48.72
X102.711Y-116.03
X119.935Y-77.93
X124.888Y-67.849
X124.888Y-72.85
X124.936Y-77.93
X125.015Y-49.012
X125.015Y-54.013
X125.015Y-59.515
X125.015Y-64.516
X134.54Y-49.99
X134.54Y-52.53
X134.54Y-55.07
X134.54Y-66.5
X134.54Y-69.04
X134.54Y-71.58
X134.54Y-100.79
X134.54Y-103.33
X134.54Y-105.87
X134.54Y-117.3
X134.54Y-119.84
X134.54Y-122.38
X134.54Y-151.59
X134.54Y-154.13
X134.54Y-156.67
X134.54Y-168.1
X134.54Y-170.64
X134.54Y-173.18
X143.43Y-55.07
X143.43Y-57.61
X143.43Y-60.15
X143.43Y-71.58
X143.43Y-74.12
X143.43Y-76.66
X143.43Y-105.87
X143.43Y-108.41
X143.43Y-110.95
X143.43Y-122.38
X143.43Y-124.92
X143.43Y-127.46
X143.43Y-156.67
X143.43Y-159.21
X143.43Y-161.75
X143.43Y-173.18
X143.43Y-175.72
X143.43Y-178.26
T8
X27.86Y-77.93
X27.86Y-80.47
X27.86Y-83.01
X27.86Y-85.55
X27.86Y-88.09
X27.86Y-90.63
X27.86Y-93.17
X27.86Y-95.71
X27.86Y-98.25
X27.86Y-100.79
X30.4Y-39.931
X30.4Y-77.93
X30.4Y-80.47
X30.4Y-83.01
X30.4Y-85.55
X30.4Y-88.09
X30.4Y-90.63
X30.4Y-93.17
X30.4Y-95.71
X30.4Y-98.25
X30.4Y-100.79
X30.4Y-137.62
X30.4Y-166.195
X32.94Y-39.931
X32.94Y-137.62
X32.94Y-166.195
X35.48Y-39.931
X35.48Y-137.62
X35.48Y-166.195
X38.02Y-39.931
X38.02Y-137.62
X38.02Y-166.195
X40.56Y-39.931
X43.1Y-39.931
X45.64Y-39.931
X48.18Y-39.931
X57.07Y-137.62
X57.07Y-166.195
X59.61Y-137.62
X59.61Y-166.195
X62.15Y-137.62
X62.15Y-166.195
X64.69Y-137.62
X64.69Y-166.195
X71.04Y-77.93
X71.04Y-80.47
X71.04Y-83.01
X71.04Y-85.55
X71.04Y-88.09
X71.04Y-90.63
X71.04Y-93.17
X71.04Y-95.71
X71.04Y-98.25
X71.04Y-100.79
X73.58Y-77.93
X73.58Y-80.47
X73.58Y-83.01
X73.58Y-85.55
X73.58Y-88.09
X73.58Y-90.63
X73.58Y-93.17
X73.58Y-95.71
X73.58Y-98.25
X73.58Y-100.79
X88.929Y-58.354
X90.725Y-60.15
X104.06Y-135.08
X104.06Y-137.62
X104.06Y-140.16
X104.06Y-142.7
X104.06Y-145.24
X104.06Y-147.78
X104.06Y-150.32
X104.06Y-152.86
T9
X101.439Y-36.02
X101.439Y-41.1
X116.76Y-36.02
X116.76Y-41.1
X129.379Y-138.89
X129.379Y-143.97
X129.419Y-36.02
X129.419Y-41.1
X129.419Y-89.36
X129.419Y-94.44
X144.7Y-138.89
X144.7Y-143.97
X144.741Y-36.02
X144.741Y-41.1
X144.741Y-89.36
X144.741Y-94.44
T10
X30.908Y-107.14
X45.894Y-174.45
X53.26Y-107.14
X60.245Y-56.975
X69.77Y-122.634
X87.Y-107.
T11
X21.Y-21.
X21.Y-184.
X164.Y-21.
X164.Y-184.
T0
M30
