M48
;DRILL file {KiCad (5.0.1-34-g9610f8f20)} date Wed 14 Nov 2018 06:59:00 PM PST
;FORMAT={-:-/ absolute / inch / decimal}
FMAT,2
INCH,TZ
T1C0.0236
T2C0.0315
T3C0.0394
T4C0.0433
T5C0.0531
T6C0.0591
T7C0.1260
%
G90
G05
T1
X3.205Y-4.6
X3.205Y-5.36
X3.235Y-5.54
X3.235Y-5.74
X3.2362Y-4.1917
X3.2468Y-4.8504
X3.2468Y-5.0452
X3.335Y-2.95
X3.335Y-3.34
X3.3657Y-3.7343
X3.4778Y-5.54
X3.478Y-4.845
X3.7462Y-4.0067
X4.885Y-4.1
X5.0878Y-3.96
T2
X4.7394Y-3.4917
X4.9362Y-3.4917
X4.7394Y-4.7917
X4.9362Y-4.7917
T3
X3.3362Y-5.4417
X3.3362Y-5.5417
X3.3362Y-5.6417
X3.3362Y-5.7417
X3.3362Y-3.4417
X3.3362Y-3.5417
X3.3362Y-3.6417
X3.3362Y-2.6417
X3.3362Y-2.7417
X3.3362Y-2.8417
X3.3362Y-4.7417
X3.3362Y-4.8417
X3.3362Y-4.9417
X3.3362Y-5.0417
X3.3362Y-3.0417
X3.3362Y-3.1417
X3.3362Y-3.2417
T4
X3.9589Y-6.2917
X3.9589Y-6.3917
X3.9589Y-6.4917
X3.9589Y-5.7917
X3.9589Y-5.8917
X3.9589Y-5.9917
X3.9589Y-4.7917
X3.9589Y-4.8917
X3.9589Y-4.9917
X3.9589Y-3.2917
X3.9589Y-3.3917
X3.9589Y-3.4917
X3.9589Y-5.2917
X3.9589Y-5.3917
X3.9589Y-5.4917
X3.9589Y-2.2917
X3.9589Y-2.3917
X3.9589Y-2.4917
X3.9589Y-1.7917
X3.9589Y-1.8917
X3.9589Y-1.9917
X3.9589Y-2.7917
X3.9589Y-2.8917
X3.9589Y-2.9917
T5
X4.05Y-3.9441
X4.2059Y-3.9441
X4.3618Y-3.9441
X4.5177Y-3.9441
X4.8421Y-2.0417
X4.8421Y-2.1976
X4.8421Y-2.3535
X4.8421Y-2.5094
X4.8421Y-2.6654
X4.8421Y-2.8213
X4.8421Y-2.9772
X4.8421Y-3.1331
X4.8421Y-5.1917
X4.8421Y-5.3476
X4.8421Y-5.5035
X4.8421Y-5.6594
X4.8421Y-5.8154
X4.8421Y-5.9713
X4.8421Y-6.1272
X4.8421Y-6.2831
T6
X3.85Y-4.35
X4.1531Y-4.35
X4.9012Y-4.35
X5.1965Y-4.35
T7
X5.1181Y-1.8504
X3.3071Y-6.4567
X5.1181Y-6.4567
X3.3071Y-1.8504
T0
M30
