G04 #@! TF.GenerationSoftware,KiCad,Pcbnew,(5.0.1-34-g9610f8f20)*
G04 #@! TF.CreationDate,2018-11-14T14:45:20-08:00*
G04 #@! TF.ProjectId,OutputExtension,4f757470-7574-4457-9874-656e73696f6e,rev?*
G04 #@! TF.SameCoordinates,Original*
G04 #@! TF.FileFunction,Copper,L1,Top*
G04 #@! TF.FilePolarity,Positive*
%FSLAX46Y46*%
G04 Gerber Fmt 4.6, Leading zero omitted, Abs format (unit mm)*
G04 Created by KiCad (PCBNEW (5.0.1-34-g9610f8f20)) date Wed 14 Nov 2018 02:45:20 PM PST*
%MOMM*%
%LPD*%
G01*
G04 APERTURE LIST*
G04 #@! TA.AperFunction,Conductor*
%ADD10C,0.100000*%
G04 #@! TD*
G04 #@! TA.AperFunction,SMDPad,CuDef*
%ADD11C,0.975000*%
G04 #@! TD*
G04 #@! TA.AperFunction,SMDPad,CuDef*
%ADD12R,1.500000X0.970000*%
G04 #@! TD*
G04 #@! TA.AperFunction,ComponentPad*
%ADD13O,1.700000X1.700000*%
G04 #@! TD*
G04 #@! TA.AperFunction,ComponentPad*
%ADD14R,1.700000X1.700000*%
G04 #@! TD*
G04 #@! TA.AperFunction,SMDPad,CuDef*
%ADD15R,0.900000X0.800000*%
G04 #@! TD*
G04 #@! TA.AperFunction,SMDPad,CuDef*
%ADD16R,4.600000X1.100000*%
G04 #@! TD*
G04 #@! TA.AperFunction,SMDPad,CuDef*
%ADD17R,9.400000X10.800000*%
G04 #@! TD*
G04 #@! TA.AperFunction,ComponentPad*
%ADD18R,2.000000X1.905000*%
G04 #@! TD*
G04 #@! TA.AperFunction,ComponentPad*
%ADD19O,2.000000X1.905000*%
G04 #@! TD*
G04 #@! TA.AperFunction,ComponentPad*
%ADD20C,3.000000*%
G04 #@! TD*
G04 #@! TA.AperFunction,ComponentPad*
%ADD21C,2.750000*%
G04 #@! TD*
G04 #@! TA.AperFunction,ComponentPad*
%ADD22R,1.300000X1.300000*%
G04 #@! TD*
G04 #@! TA.AperFunction,ComponentPad*
%ADD23C,1.300000*%
G04 #@! TD*
G04 #@! TA.AperFunction,ComponentPad*
%ADD24C,2.349500*%
G04 #@! TD*
G04 #@! TA.AperFunction,SMDPad,CuDef*
%ADD25R,0.970000X1.500000*%
G04 #@! TD*
G04 #@! TA.AperFunction,ViaPad*
%ADD26C,1.200000*%
G04 #@! TD*
G04 #@! TA.AperFunction,Conductor*
%ADD27C,0.400000*%
G04 #@! TD*
G04 APERTURE END LIST*
D10*
G04 #@! TO.N,GND*
G04 #@! TO.C,C3*
G36*
X119860142Y-98906174D02*
X119883803Y-98909684D01*
X119907007Y-98915496D01*
X119929529Y-98923554D01*
X119951153Y-98933782D01*
X119971670Y-98946079D01*
X119990883Y-98960329D01*
X120008607Y-98976393D01*
X120024671Y-98994117D01*
X120038921Y-99013330D01*
X120051218Y-99033847D01*
X120061446Y-99055471D01*
X120069504Y-99077993D01*
X120075316Y-99101197D01*
X120078826Y-99124858D01*
X120080000Y-99148750D01*
X120080000Y-99636250D01*
X120078826Y-99660142D01*
X120075316Y-99683803D01*
X120069504Y-99707007D01*
X120061446Y-99729529D01*
X120051218Y-99751153D01*
X120038921Y-99771670D01*
X120024671Y-99790883D01*
X120008607Y-99808607D01*
X119990883Y-99824671D01*
X119971670Y-99838921D01*
X119951153Y-99851218D01*
X119929529Y-99861446D01*
X119907007Y-99869504D01*
X119883803Y-99875316D01*
X119860142Y-99878826D01*
X119836250Y-99880000D01*
X118923750Y-99880000D01*
X118899858Y-99878826D01*
X118876197Y-99875316D01*
X118852993Y-99869504D01*
X118830471Y-99861446D01*
X118808847Y-99851218D01*
X118788330Y-99838921D01*
X118769117Y-99824671D01*
X118751393Y-99808607D01*
X118735329Y-99790883D01*
X118721079Y-99771670D01*
X118708782Y-99751153D01*
X118698554Y-99729529D01*
X118690496Y-99707007D01*
X118684684Y-99683803D01*
X118681174Y-99660142D01*
X118680000Y-99636250D01*
X118680000Y-99148750D01*
X118681174Y-99124858D01*
X118684684Y-99101197D01*
X118690496Y-99077993D01*
X118698554Y-99055471D01*
X118708782Y-99033847D01*
X118721079Y-99013330D01*
X118735329Y-98994117D01*
X118751393Y-98976393D01*
X118769117Y-98960329D01*
X118788330Y-98946079D01*
X118808847Y-98933782D01*
X118830471Y-98923554D01*
X118852993Y-98915496D01*
X118876197Y-98909684D01*
X118899858Y-98906174D01*
X118923750Y-98905000D01*
X119836250Y-98905000D01*
X119860142Y-98906174D01*
X119860142Y-98906174D01*
G37*
D11*
G04 #@! TD*
G04 #@! TO.P,C3,2*
G04 #@! TO.N,GND*
X119380000Y-99392500D03*
D10*
G04 #@! TO.N,+24V*
G04 #@! TO.C,C3*
G36*
X119860142Y-100781174D02*
X119883803Y-100784684D01*
X119907007Y-100790496D01*
X119929529Y-100798554D01*
X119951153Y-100808782D01*
X119971670Y-100821079D01*
X119990883Y-100835329D01*
X120008607Y-100851393D01*
X120024671Y-100869117D01*
X120038921Y-100888330D01*
X120051218Y-100908847D01*
X120061446Y-100930471D01*
X120069504Y-100952993D01*
X120075316Y-100976197D01*
X120078826Y-100999858D01*
X120080000Y-101023750D01*
X120080000Y-101511250D01*
X120078826Y-101535142D01*
X120075316Y-101558803D01*
X120069504Y-101582007D01*
X120061446Y-101604529D01*
X120051218Y-101626153D01*
X120038921Y-101646670D01*
X120024671Y-101665883D01*
X120008607Y-101683607D01*
X119990883Y-101699671D01*
X119971670Y-101713921D01*
X119951153Y-101726218D01*
X119929529Y-101736446D01*
X119907007Y-101744504D01*
X119883803Y-101750316D01*
X119860142Y-101753826D01*
X119836250Y-101755000D01*
X118923750Y-101755000D01*
X118899858Y-101753826D01*
X118876197Y-101750316D01*
X118852993Y-101744504D01*
X118830471Y-101736446D01*
X118808847Y-101726218D01*
X118788330Y-101713921D01*
X118769117Y-101699671D01*
X118751393Y-101683607D01*
X118735329Y-101665883D01*
X118721079Y-101646670D01*
X118708782Y-101626153D01*
X118698554Y-101604529D01*
X118690496Y-101582007D01*
X118684684Y-101558803D01*
X118681174Y-101535142D01*
X118680000Y-101511250D01*
X118680000Y-101023750D01*
X118681174Y-100999858D01*
X118684684Y-100976197D01*
X118690496Y-100952993D01*
X118698554Y-100930471D01*
X118708782Y-100908847D01*
X118721079Y-100888330D01*
X118735329Y-100869117D01*
X118751393Y-100851393D01*
X118769117Y-100835329D01*
X118788330Y-100821079D01*
X118808847Y-100808782D01*
X118830471Y-100798554D01*
X118852993Y-100790496D01*
X118876197Y-100784684D01*
X118899858Y-100781174D01*
X118923750Y-100780000D01*
X119836250Y-100780000D01*
X119860142Y-100781174D01*
X119860142Y-100781174D01*
G37*
D11*
G04 #@! TD*
G04 #@! TO.P,C3,1*
G04 #@! TO.N,+24V*
X119380000Y-101267500D03*
D12*
G04 #@! TO.P,R1,1*
G04 #@! TO.N,Net-(D1-Pad2)*
X121920000Y-99375000D03*
G04 #@! TO.P,R1,2*
G04 #@! TO.N,+24V*
X121920000Y-101285000D03*
G04 #@! TD*
D10*
G04 #@! TO.N,+5V*
G04 #@! TO.C,C4*
G36*
X87880142Y-105771174D02*
X87903803Y-105774684D01*
X87927007Y-105780496D01*
X87949529Y-105788554D01*
X87971153Y-105798782D01*
X87991670Y-105811079D01*
X88010883Y-105825329D01*
X88028607Y-105841393D01*
X88044671Y-105859117D01*
X88058921Y-105878330D01*
X88071218Y-105898847D01*
X88081446Y-105920471D01*
X88089504Y-105942993D01*
X88095316Y-105966197D01*
X88098826Y-105989858D01*
X88100000Y-106013750D01*
X88100000Y-106926250D01*
X88098826Y-106950142D01*
X88095316Y-106973803D01*
X88089504Y-106997007D01*
X88081446Y-107019529D01*
X88071218Y-107041153D01*
X88058921Y-107061670D01*
X88044671Y-107080883D01*
X88028607Y-107098607D01*
X88010883Y-107114671D01*
X87991670Y-107128921D01*
X87971153Y-107141218D01*
X87949529Y-107151446D01*
X87927007Y-107159504D01*
X87903803Y-107165316D01*
X87880142Y-107168826D01*
X87856250Y-107170000D01*
X87368750Y-107170000D01*
X87344858Y-107168826D01*
X87321197Y-107165316D01*
X87297993Y-107159504D01*
X87275471Y-107151446D01*
X87253847Y-107141218D01*
X87233330Y-107128921D01*
X87214117Y-107114671D01*
X87196393Y-107098607D01*
X87180329Y-107080883D01*
X87166079Y-107061670D01*
X87153782Y-107041153D01*
X87143554Y-107019529D01*
X87135496Y-106997007D01*
X87129684Y-106973803D01*
X87126174Y-106950142D01*
X87125000Y-106926250D01*
X87125000Y-106013750D01*
X87126174Y-105989858D01*
X87129684Y-105966197D01*
X87135496Y-105942993D01*
X87143554Y-105920471D01*
X87153782Y-105898847D01*
X87166079Y-105878330D01*
X87180329Y-105859117D01*
X87196393Y-105841393D01*
X87214117Y-105825329D01*
X87233330Y-105811079D01*
X87253847Y-105798782D01*
X87275471Y-105788554D01*
X87297993Y-105780496D01*
X87321197Y-105774684D01*
X87344858Y-105771174D01*
X87368750Y-105770000D01*
X87856250Y-105770000D01*
X87880142Y-105771174D01*
X87880142Y-105771174D01*
G37*
D11*
G04 #@! TD*
G04 #@! TO.P,C4,1*
G04 #@! TO.N,+5V*
X87612500Y-106470000D03*
D10*
G04 #@! TO.N,GND*
G04 #@! TO.C,C4*
G36*
X89755142Y-105771174D02*
X89778803Y-105774684D01*
X89802007Y-105780496D01*
X89824529Y-105788554D01*
X89846153Y-105798782D01*
X89866670Y-105811079D01*
X89885883Y-105825329D01*
X89903607Y-105841393D01*
X89919671Y-105859117D01*
X89933921Y-105878330D01*
X89946218Y-105898847D01*
X89956446Y-105920471D01*
X89964504Y-105942993D01*
X89970316Y-105966197D01*
X89973826Y-105989858D01*
X89975000Y-106013750D01*
X89975000Y-106926250D01*
X89973826Y-106950142D01*
X89970316Y-106973803D01*
X89964504Y-106997007D01*
X89956446Y-107019529D01*
X89946218Y-107041153D01*
X89933921Y-107061670D01*
X89919671Y-107080883D01*
X89903607Y-107098607D01*
X89885883Y-107114671D01*
X89866670Y-107128921D01*
X89846153Y-107141218D01*
X89824529Y-107151446D01*
X89802007Y-107159504D01*
X89778803Y-107165316D01*
X89755142Y-107168826D01*
X89731250Y-107170000D01*
X89243750Y-107170000D01*
X89219858Y-107168826D01*
X89196197Y-107165316D01*
X89172993Y-107159504D01*
X89150471Y-107151446D01*
X89128847Y-107141218D01*
X89108330Y-107128921D01*
X89089117Y-107114671D01*
X89071393Y-107098607D01*
X89055329Y-107080883D01*
X89041079Y-107061670D01*
X89028782Y-107041153D01*
X89018554Y-107019529D01*
X89010496Y-106997007D01*
X89004684Y-106973803D01*
X89001174Y-106950142D01*
X89000000Y-106926250D01*
X89000000Y-106013750D01*
X89001174Y-105989858D01*
X89004684Y-105966197D01*
X89010496Y-105942993D01*
X89018554Y-105920471D01*
X89028782Y-105898847D01*
X89041079Y-105878330D01*
X89055329Y-105859117D01*
X89071393Y-105841393D01*
X89089117Y-105825329D01*
X89108330Y-105811079D01*
X89128847Y-105798782D01*
X89150471Y-105788554D01*
X89172993Y-105780496D01*
X89196197Y-105774684D01*
X89219858Y-105771174D01*
X89243750Y-105770000D01*
X89731250Y-105770000D01*
X89755142Y-105771174D01*
X89755142Y-105771174D01*
G37*
D11*
G04 #@! TD*
G04 #@! TO.P,C4,2*
G04 #@! TO.N,GND*
X89487500Y-106470000D03*
D13*
G04 #@! TO.P,P1,4*
G04 #@! TO.N,GND*
X84740000Y-128060000D03*
G04 #@! TO.P,P1,3*
G04 #@! TO.N,/I2C_SDA*
X84740000Y-125520000D03*
G04 #@! TO.P,P1,2*
G04 #@! TO.N,/I2C_SCL*
X84740000Y-122980000D03*
D14*
G04 #@! TO.P,P1,1*
G04 #@! TO.N,+5V*
X84740000Y-120440000D03*
G04 #@! TD*
G04 #@! TO.P,P2,1*
G04 #@! TO.N,+5V*
X84740000Y-138220000D03*
D13*
G04 #@! TO.P,P2,2*
G04 #@! TO.N,/I2C_SCL*
X84740000Y-140760000D03*
G04 #@! TO.P,P2,3*
G04 #@! TO.N,/I2C_SDA*
X84740000Y-143300000D03*
G04 #@! TO.P,P2,4*
G04 #@! TO.N,GND*
X84740000Y-145840000D03*
G04 #@! TD*
D10*
G04 #@! TO.N,Net-(D1-Pad2)*
G04 #@! TO.C,D1*
G36*
X124940142Y-98906174D02*
X124963803Y-98909684D01*
X124987007Y-98915496D01*
X125009529Y-98923554D01*
X125031153Y-98933782D01*
X125051670Y-98946079D01*
X125070883Y-98960329D01*
X125088607Y-98976393D01*
X125104671Y-98994117D01*
X125118921Y-99013330D01*
X125131218Y-99033847D01*
X125141446Y-99055471D01*
X125149504Y-99077993D01*
X125155316Y-99101197D01*
X125158826Y-99124858D01*
X125160000Y-99148750D01*
X125160000Y-99636250D01*
X125158826Y-99660142D01*
X125155316Y-99683803D01*
X125149504Y-99707007D01*
X125141446Y-99729529D01*
X125131218Y-99751153D01*
X125118921Y-99771670D01*
X125104671Y-99790883D01*
X125088607Y-99808607D01*
X125070883Y-99824671D01*
X125051670Y-99838921D01*
X125031153Y-99851218D01*
X125009529Y-99861446D01*
X124987007Y-99869504D01*
X124963803Y-99875316D01*
X124940142Y-99878826D01*
X124916250Y-99880000D01*
X124003750Y-99880000D01*
X123979858Y-99878826D01*
X123956197Y-99875316D01*
X123932993Y-99869504D01*
X123910471Y-99861446D01*
X123888847Y-99851218D01*
X123868330Y-99838921D01*
X123849117Y-99824671D01*
X123831393Y-99808607D01*
X123815329Y-99790883D01*
X123801079Y-99771670D01*
X123788782Y-99751153D01*
X123778554Y-99729529D01*
X123770496Y-99707007D01*
X123764684Y-99683803D01*
X123761174Y-99660142D01*
X123760000Y-99636250D01*
X123760000Y-99148750D01*
X123761174Y-99124858D01*
X123764684Y-99101197D01*
X123770496Y-99077993D01*
X123778554Y-99055471D01*
X123788782Y-99033847D01*
X123801079Y-99013330D01*
X123815329Y-98994117D01*
X123831393Y-98976393D01*
X123849117Y-98960329D01*
X123868330Y-98946079D01*
X123888847Y-98933782D01*
X123910471Y-98923554D01*
X123932993Y-98915496D01*
X123956197Y-98909684D01*
X123979858Y-98906174D01*
X124003750Y-98905000D01*
X124916250Y-98905000D01*
X124940142Y-98906174D01*
X124940142Y-98906174D01*
G37*
D11*
G04 #@! TD*
G04 #@! TO.P,D1,2*
G04 #@! TO.N,Net-(D1-Pad2)*
X124460000Y-99392500D03*
D10*
G04 #@! TO.N,GND*
G04 #@! TO.C,D1*
G36*
X124940142Y-100781174D02*
X124963803Y-100784684D01*
X124987007Y-100790496D01*
X125009529Y-100798554D01*
X125031153Y-100808782D01*
X125051670Y-100821079D01*
X125070883Y-100835329D01*
X125088607Y-100851393D01*
X125104671Y-100869117D01*
X125118921Y-100888330D01*
X125131218Y-100908847D01*
X125141446Y-100930471D01*
X125149504Y-100952993D01*
X125155316Y-100976197D01*
X125158826Y-100999858D01*
X125160000Y-101023750D01*
X125160000Y-101511250D01*
X125158826Y-101535142D01*
X125155316Y-101558803D01*
X125149504Y-101582007D01*
X125141446Y-101604529D01*
X125131218Y-101626153D01*
X125118921Y-101646670D01*
X125104671Y-101665883D01*
X125088607Y-101683607D01*
X125070883Y-101699671D01*
X125051670Y-101713921D01*
X125031153Y-101726218D01*
X125009529Y-101736446D01*
X124987007Y-101744504D01*
X124963803Y-101750316D01*
X124940142Y-101753826D01*
X124916250Y-101755000D01*
X124003750Y-101755000D01*
X123979858Y-101753826D01*
X123956197Y-101750316D01*
X123932993Y-101744504D01*
X123910471Y-101736446D01*
X123888847Y-101726218D01*
X123868330Y-101713921D01*
X123849117Y-101699671D01*
X123831393Y-101683607D01*
X123815329Y-101665883D01*
X123801079Y-101646670D01*
X123788782Y-101626153D01*
X123778554Y-101604529D01*
X123770496Y-101582007D01*
X123764684Y-101558803D01*
X123761174Y-101535142D01*
X123760000Y-101511250D01*
X123760000Y-101023750D01*
X123761174Y-100999858D01*
X123764684Y-100976197D01*
X123770496Y-100952993D01*
X123778554Y-100930471D01*
X123788782Y-100908847D01*
X123801079Y-100888330D01*
X123815329Y-100869117D01*
X123831393Y-100851393D01*
X123849117Y-100835329D01*
X123868330Y-100821079D01*
X123888847Y-100808782D01*
X123910471Y-100798554D01*
X123932993Y-100790496D01*
X123956197Y-100784684D01*
X123979858Y-100781174D01*
X124003750Y-100780000D01*
X124916250Y-100780000D01*
X124940142Y-100781174D01*
X124940142Y-100781174D01*
G37*
D11*
G04 #@! TD*
G04 #@! TO.P,D1,1*
G04 #@! TO.N,GND*
X124460000Y-101267500D03*
D10*
G04 #@! TO.N,GND*
G04 #@! TO.C,D2*
G36*
X92549142Y-108565174D02*
X92572803Y-108568684D01*
X92596007Y-108574496D01*
X92618529Y-108582554D01*
X92640153Y-108592782D01*
X92660670Y-108605079D01*
X92679883Y-108619329D01*
X92697607Y-108635393D01*
X92713671Y-108653117D01*
X92727921Y-108672330D01*
X92740218Y-108692847D01*
X92750446Y-108714471D01*
X92758504Y-108736993D01*
X92764316Y-108760197D01*
X92767826Y-108783858D01*
X92769000Y-108807750D01*
X92769000Y-109720250D01*
X92767826Y-109744142D01*
X92764316Y-109767803D01*
X92758504Y-109791007D01*
X92750446Y-109813529D01*
X92740218Y-109835153D01*
X92727921Y-109855670D01*
X92713671Y-109874883D01*
X92697607Y-109892607D01*
X92679883Y-109908671D01*
X92660670Y-109922921D01*
X92640153Y-109935218D01*
X92618529Y-109945446D01*
X92596007Y-109953504D01*
X92572803Y-109959316D01*
X92549142Y-109962826D01*
X92525250Y-109964000D01*
X92037750Y-109964000D01*
X92013858Y-109962826D01*
X91990197Y-109959316D01*
X91966993Y-109953504D01*
X91944471Y-109945446D01*
X91922847Y-109935218D01*
X91902330Y-109922921D01*
X91883117Y-109908671D01*
X91865393Y-109892607D01*
X91849329Y-109874883D01*
X91835079Y-109855670D01*
X91822782Y-109835153D01*
X91812554Y-109813529D01*
X91804496Y-109791007D01*
X91798684Y-109767803D01*
X91795174Y-109744142D01*
X91794000Y-109720250D01*
X91794000Y-108807750D01*
X91795174Y-108783858D01*
X91798684Y-108760197D01*
X91804496Y-108736993D01*
X91812554Y-108714471D01*
X91822782Y-108692847D01*
X91835079Y-108672330D01*
X91849329Y-108653117D01*
X91865393Y-108635393D01*
X91883117Y-108619329D01*
X91902330Y-108605079D01*
X91922847Y-108592782D01*
X91944471Y-108582554D01*
X91966993Y-108574496D01*
X91990197Y-108568684D01*
X92013858Y-108565174D01*
X92037750Y-108564000D01*
X92525250Y-108564000D01*
X92549142Y-108565174D01*
X92549142Y-108565174D01*
G37*
D11*
G04 #@! TD*
G04 #@! TO.P,D2,1*
G04 #@! TO.N,GND*
X92281500Y-109264000D03*
D10*
G04 #@! TO.N,Net-(D2-Pad2)*
G04 #@! TO.C,D2*
G36*
X90674142Y-108565174D02*
X90697803Y-108568684D01*
X90721007Y-108574496D01*
X90743529Y-108582554D01*
X90765153Y-108592782D01*
X90785670Y-108605079D01*
X90804883Y-108619329D01*
X90822607Y-108635393D01*
X90838671Y-108653117D01*
X90852921Y-108672330D01*
X90865218Y-108692847D01*
X90875446Y-108714471D01*
X90883504Y-108736993D01*
X90889316Y-108760197D01*
X90892826Y-108783858D01*
X90894000Y-108807750D01*
X90894000Y-109720250D01*
X90892826Y-109744142D01*
X90889316Y-109767803D01*
X90883504Y-109791007D01*
X90875446Y-109813529D01*
X90865218Y-109835153D01*
X90852921Y-109855670D01*
X90838671Y-109874883D01*
X90822607Y-109892607D01*
X90804883Y-109908671D01*
X90785670Y-109922921D01*
X90765153Y-109935218D01*
X90743529Y-109945446D01*
X90721007Y-109953504D01*
X90697803Y-109959316D01*
X90674142Y-109962826D01*
X90650250Y-109964000D01*
X90162750Y-109964000D01*
X90138858Y-109962826D01*
X90115197Y-109959316D01*
X90091993Y-109953504D01*
X90069471Y-109945446D01*
X90047847Y-109935218D01*
X90027330Y-109922921D01*
X90008117Y-109908671D01*
X89990393Y-109892607D01*
X89974329Y-109874883D01*
X89960079Y-109855670D01*
X89947782Y-109835153D01*
X89937554Y-109813529D01*
X89929496Y-109791007D01*
X89923684Y-109767803D01*
X89920174Y-109744142D01*
X89919000Y-109720250D01*
X89919000Y-108807750D01*
X89920174Y-108783858D01*
X89923684Y-108760197D01*
X89929496Y-108736993D01*
X89937554Y-108714471D01*
X89947782Y-108692847D01*
X89960079Y-108672330D01*
X89974329Y-108653117D01*
X89990393Y-108635393D01*
X90008117Y-108619329D01*
X90027330Y-108605079D01*
X90047847Y-108592782D01*
X90069471Y-108582554D01*
X90091993Y-108574496D01*
X90115197Y-108568684D01*
X90138858Y-108565174D01*
X90162750Y-108564000D01*
X90650250Y-108564000D01*
X90674142Y-108565174D01*
X90674142Y-108565174D01*
G37*
D11*
G04 #@! TD*
G04 #@! TO.P,D2,2*
G04 #@! TO.N,Net-(D2-Pad2)*
X90406500Y-109264000D03*
D15*
G04 #@! TO.P,Q8,3*
G04 #@! TO.N,/powerChannel2/DRAIN*
X97170000Y-73450000D03*
G04 #@! TO.P,Q8,2*
G04 #@! TO.N,GND*
X95170000Y-74400000D03*
G04 #@! TO.P,Q8,1*
G04 #@! TO.N,Net-(Q7-Pad1)*
X95170000Y-72500000D03*
G04 #@! TD*
G04 #@! TO.P,Q23,1*
G04 #@! TO.N,Net-(Q22-Pad1)*
X95170000Y-161400000D03*
G04 #@! TO.P,Q23,2*
G04 #@! TO.N,GND*
X95170000Y-163300000D03*
G04 #@! TO.P,Q23,3*
G04 #@! TO.N,/powerChannel7/DRAIN*
X97170000Y-162350000D03*
G04 #@! TD*
G04 #@! TO.P,Q11,3*
G04 #@! TO.N,/powerChannel3/DRAIN*
X97170000Y-86150000D03*
G04 #@! TO.P,Q11,2*
G04 #@! TO.N,GND*
X95170000Y-87100000D03*
G04 #@! TO.P,Q11,1*
G04 #@! TO.N,Net-(Q10-Pad1)*
X95170000Y-85200000D03*
G04 #@! TD*
G04 #@! TO.P,Q17,1*
G04 #@! TO.N,Net-(Q16-Pad1)*
X95170000Y-136000000D03*
G04 #@! TO.P,Q17,2*
G04 #@! TO.N,GND*
X95170000Y-137900000D03*
G04 #@! TO.P,Q17,3*
G04 #@! TO.N,/powerChannel5/DRAIN*
X97170000Y-136950000D03*
G04 #@! TD*
G04 #@! TO.P,Q20,3*
G04 #@! TO.N,/powerChannel6/DRAIN*
X97170000Y-149650000D03*
G04 #@! TO.P,Q20,2*
G04 #@! TO.N,GND*
X95170000Y-150600000D03*
G04 #@! TO.P,Q20,1*
G04 #@! TO.N,Net-(Q19-Pad1)*
X95170000Y-148700000D03*
G04 #@! TD*
G04 #@! TO.P,Q2,1*
G04 #@! TO.N,Net-(Q1-Pad1)*
X95170000Y-47100000D03*
G04 #@! TO.P,Q2,2*
G04 #@! TO.N,GND*
X95170000Y-49000000D03*
G04 #@! TO.P,Q2,3*
G04 #@! TO.N,/powerChannel0/DRAIN*
X97170000Y-48050000D03*
G04 #@! TD*
D16*
G04 #@! TO.P,Q9,1*
G04 #@! TO.N,Net-(Q7-Pad1)*
X100555000Y-70910000D03*
G04 #@! TO.P,Q9,2*
G04 #@! TO.N,/powerChannel2/DRAIN*
X100555000Y-73450000D03*
G04 #@! TO.P,Q9,3*
G04 #@! TO.N,GND*
X100555000Y-75990000D03*
D17*
G04 #@! TO.P,Q9,2*
G04 #@! TO.N,/powerChannel2/DRAIN*
X109705000Y-73450000D03*
G04 #@! TD*
G04 #@! TO.P,Q3,2*
G04 #@! TO.N,/powerChannel0/DRAIN*
X109705000Y-48050000D03*
D16*
G04 #@! TO.P,Q3,3*
G04 #@! TO.N,GND*
X100555000Y-50590000D03*
G04 #@! TO.P,Q3,2*
G04 #@! TO.N,/powerChannel0/DRAIN*
X100555000Y-48050000D03*
G04 #@! TO.P,Q3,1*
G04 #@! TO.N,Net-(Q1-Pad1)*
X100555000Y-45510000D03*
G04 #@! TD*
G04 #@! TO.P,Q6,1*
G04 #@! TO.N,Net-(Q4-Pad1)*
X100555000Y-58210000D03*
G04 #@! TO.P,Q6,2*
G04 #@! TO.N,/powerChannel1/DRAIN*
X100555000Y-60750000D03*
G04 #@! TO.P,Q6,3*
G04 #@! TO.N,GND*
X100555000Y-63290000D03*
D17*
G04 #@! TO.P,Q6,2*
G04 #@! TO.N,/powerChannel1/DRAIN*
X109705000Y-60750000D03*
G04 #@! TD*
G04 #@! TO.P,Q12,2*
G04 #@! TO.N,/powerChannel3/DRAIN*
X109705000Y-86150000D03*
D16*
G04 #@! TO.P,Q12,3*
G04 #@! TO.N,GND*
X100555000Y-88690000D03*
G04 #@! TO.P,Q12,2*
G04 #@! TO.N,/powerChannel3/DRAIN*
X100555000Y-86150000D03*
G04 #@! TO.P,Q12,1*
G04 #@! TO.N,Net-(Q10-Pad1)*
X100555000Y-83610000D03*
G04 #@! TD*
G04 #@! TO.P,Q15,1*
G04 #@! TO.N,Net-(Q13-Pad1)*
X100555000Y-121710000D03*
G04 #@! TO.P,Q15,2*
G04 #@! TO.N,/powerChannel4/DRAIN*
X100555000Y-124250000D03*
G04 #@! TO.P,Q15,3*
G04 #@! TO.N,GND*
X100555000Y-126790000D03*
D17*
G04 #@! TO.P,Q15,2*
G04 #@! TO.N,/powerChannel4/DRAIN*
X109705000Y-124250000D03*
G04 #@! TD*
D18*
G04 #@! TO.P,Q16,1*
G04 #@! TO.N,Net-(Q16-Pad1)*
X100555000Y-134410000D03*
D19*
G04 #@! TO.P,Q16,2*
G04 #@! TO.N,/powerChannel5/DRAIN*
X100555000Y-136950000D03*
G04 #@! TO.P,Q16,3*
G04 #@! TO.N,GND*
X100555000Y-139490000D03*
G04 #@! TD*
G04 #@! TO.P,Q19,3*
G04 #@! TO.N,GND*
X100555000Y-152190000D03*
G04 #@! TO.P,Q19,2*
G04 #@! TO.N,/powerChannel6/DRAIN*
X100555000Y-149650000D03*
D18*
G04 #@! TO.P,Q19,1*
G04 #@! TO.N,Net-(Q19-Pad1)*
X100555000Y-147110000D03*
G04 #@! TD*
G04 #@! TO.P,Q22,1*
G04 #@! TO.N,Net-(Q22-Pad1)*
X100555000Y-159810000D03*
D19*
G04 #@! TO.P,Q22,2*
G04 #@! TO.N,/powerChannel7/DRAIN*
X100555000Y-162350000D03*
G04 #@! TO.P,Q22,3*
G04 #@! TO.N,GND*
X100555000Y-164890000D03*
G04 #@! TD*
G04 #@! TO.P,Q7,3*
G04 #@! TO.N,GND*
X100555000Y-75990000D03*
G04 #@! TO.P,Q7,2*
G04 #@! TO.N,/powerChannel2/DRAIN*
X100555000Y-73450000D03*
D18*
G04 #@! TO.P,Q7,1*
G04 #@! TO.N,Net-(Q7-Pad1)*
X100555000Y-70910000D03*
G04 #@! TD*
G04 #@! TO.P,Q10,1*
G04 #@! TO.N,Net-(Q10-Pad1)*
X100555000Y-83610000D03*
D19*
G04 #@! TO.P,Q10,2*
G04 #@! TO.N,/powerChannel3/DRAIN*
X100555000Y-86150000D03*
G04 #@! TO.P,Q10,3*
G04 #@! TO.N,GND*
X100555000Y-88690000D03*
G04 #@! TD*
D20*
G04 #@! TO.P,P3,1*
G04 #@! TO.N,GND*
X102870000Y-100180000D03*
G04 #@! TO.P,P3,2*
X106830000Y-100180000D03*
G04 #@! TO.P,P3,3*
G04 #@! TO.N,Net-(F1-Pad1)*
X110790000Y-100180000D03*
G04 #@! TO.P,P3,4*
X114750000Y-100180000D03*
G04 #@! TD*
D21*
G04 #@! TO.P,P5,8*
G04 #@! TO.N,/powerChannel7/DRAIN*
X122990000Y-159590000D03*
G04 #@! TO.P,P5,7*
G04 #@! TO.N,+24V*
X122990000Y-155630000D03*
G04 #@! TO.P,P5,6*
G04 #@! TO.N,/powerChannel6/DRAIN*
X122990000Y-151670000D03*
G04 #@! TO.P,P5,5*
G04 #@! TO.N,+24V*
X122990000Y-147710000D03*
G04 #@! TO.P,P5,4*
G04 #@! TO.N,/powerChannel5/DRAIN*
X122990000Y-143750000D03*
G04 #@! TO.P,P5,3*
G04 #@! TO.N,+24V*
X122990000Y-139790000D03*
G04 #@! TO.P,P5,2*
G04 #@! TO.N,/powerChannel4/DRAIN*
X122990000Y-135830000D03*
G04 #@! TO.P,P5,1*
G04 #@! TO.N,+24V*
X122990000Y-131870000D03*
G04 #@! TD*
G04 #@! TO.P,P4,1*
G04 #@! TO.N,+24V*
X122990000Y-51860000D03*
G04 #@! TO.P,P4,2*
G04 #@! TO.N,/powerChannel0/DRAIN*
X122990000Y-55820000D03*
G04 #@! TO.P,P4,3*
G04 #@! TO.N,+24V*
X122990000Y-59780000D03*
G04 #@! TO.P,P4,4*
G04 #@! TO.N,/powerChannel1/DRAIN*
X122990000Y-63740000D03*
G04 #@! TO.P,P4,5*
G04 #@! TO.N,+24V*
X122990000Y-67700000D03*
G04 #@! TO.P,P4,6*
G04 #@! TO.N,/powerChannel2/DRAIN*
X122990000Y-71660000D03*
G04 #@! TO.P,P4,7*
G04 #@! TO.N,+24V*
X122990000Y-75620000D03*
G04 #@! TO.P,P4,8*
G04 #@! TO.N,/powerChannel3/DRAIN*
X122990000Y-79580000D03*
G04 #@! TD*
D14*
G04 #@! TO.P,JP1,1*
G04 #@! TO.N,GND*
X84740000Y-72180000D03*
D13*
G04 #@! TO.P,JP1,2*
G04 #@! TO.N,/A0*
X84740000Y-69640000D03*
G04 #@! TO.P,JP1,3*
G04 #@! TO.N,+5V*
X84740000Y-67100000D03*
G04 #@! TD*
G04 #@! TO.P,JP2,3*
G04 #@! TO.N,+5V*
X84740000Y-77260000D03*
G04 #@! TO.P,JP2,2*
G04 #@! TO.N,/A1*
X84740000Y-79800000D03*
D14*
G04 #@! TO.P,JP2,1*
G04 #@! TO.N,GND*
X84740000Y-82340000D03*
G04 #@! TD*
G04 #@! TO.P,JP3,1*
G04 #@! TO.N,GND*
X84740000Y-92500000D03*
D13*
G04 #@! TO.P,JP3,2*
G04 #@! TO.N,/A2*
X84740000Y-89960000D03*
G04 #@! TO.P,JP3,3*
G04 #@! TO.N,+5V*
X84740000Y-87420000D03*
G04 #@! TD*
D15*
G04 #@! TO.P,Q5,3*
G04 #@! TO.N,/powerChannel1/DRAIN*
X97170000Y-60750000D03*
G04 #@! TO.P,Q5,2*
G04 #@! TO.N,GND*
X95170000Y-61700000D03*
G04 #@! TO.P,Q5,1*
G04 #@! TO.N,Net-(Q4-Pad1)*
X95170000Y-59800000D03*
G04 #@! TD*
G04 #@! TO.P,Q14,1*
G04 #@! TO.N,Net-(Q13-Pad1)*
X95170000Y-123300000D03*
G04 #@! TO.P,Q14,2*
G04 #@! TO.N,GND*
X95170000Y-125200000D03*
G04 #@! TO.P,Q14,3*
G04 #@! TO.N,/powerChannel4/DRAIN*
X97170000Y-124250000D03*
G04 #@! TD*
D16*
G04 #@! TO.P,Q24,1*
G04 #@! TO.N,Net-(Q22-Pad1)*
X100555000Y-159810000D03*
G04 #@! TO.P,Q24,2*
G04 #@! TO.N,/powerChannel7/DRAIN*
X100555000Y-162350000D03*
G04 #@! TO.P,Q24,3*
G04 #@! TO.N,GND*
X100555000Y-164890000D03*
D17*
G04 #@! TO.P,Q24,2*
G04 #@! TO.N,/powerChannel7/DRAIN*
X109705000Y-162350000D03*
G04 #@! TD*
G04 #@! TO.P,Q21,2*
G04 #@! TO.N,/powerChannel6/DRAIN*
X109705000Y-149650000D03*
D16*
G04 #@! TO.P,Q21,3*
G04 #@! TO.N,GND*
X100555000Y-152190000D03*
G04 #@! TO.P,Q21,2*
G04 #@! TO.N,/powerChannel6/DRAIN*
X100555000Y-149650000D03*
G04 #@! TO.P,Q21,1*
G04 #@! TO.N,Net-(Q19-Pad1)*
X100555000Y-147110000D03*
G04 #@! TD*
D17*
G04 #@! TO.P,Q18,2*
G04 #@! TO.N,/powerChannel5/DRAIN*
X109705000Y-136950000D03*
D16*
G04 #@! TO.P,Q18,3*
G04 #@! TO.N,GND*
X100555000Y-139490000D03*
G04 #@! TO.P,Q18,2*
G04 #@! TO.N,/powerChannel5/DRAIN*
X100555000Y-136950000D03*
G04 #@! TO.P,Q18,1*
G04 #@! TO.N,Net-(Q16-Pad1)*
X100555000Y-134410000D03*
G04 #@! TD*
D19*
G04 #@! TO.P,Q1,3*
G04 #@! TO.N,GND*
X100555000Y-50590000D03*
G04 #@! TO.P,Q1,2*
G04 #@! TO.N,/powerChannel0/DRAIN*
X100555000Y-48050000D03*
D18*
G04 #@! TO.P,Q1,1*
G04 #@! TO.N,Net-(Q1-Pad1)*
X100555000Y-45510000D03*
G04 #@! TD*
G04 #@! TO.P,Q4,1*
G04 #@! TO.N,Net-(Q4-Pad1)*
X100555000Y-58210000D03*
D19*
G04 #@! TO.P,Q4,2*
G04 #@! TO.N,/powerChannel1/DRAIN*
X100555000Y-60750000D03*
G04 #@! TO.P,Q4,3*
G04 #@! TO.N,GND*
X100555000Y-63290000D03*
G04 #@! TD*
D18*
G04 #@! TO.P,Q13,1*
G04 #@! TO.N,Net-(Q13-Pad1)*
X100555000Y-121710000D03*
D19*
G04 #@! TO.P,Q13,2*
G04 #@! TO.N,/powerChannel4/DRAIN*
X100555000Y-124250000D03*
G04 #@! TO.P,Q13,3*
G04 #@! TO.N,GND*
X100555000Y-126790000D03*
G04 #@! TD*
D22*
G04 #@! TO.P,C5,1*
G04 #@! TO.N,+24V*
X125380000Y-88690000D03*
D23*
G04 #@! TO.P,C5,2*
G04 #@! TO.N,GND*
X120380000Y-88690000D03*
G04 #@! TD*
D22*
G04 #@! TO.P,C6,1*
G04 #@! TO.N,+24V*
X125380000Y-121710000D03*
D23*
G04 #@! TO.P,C6,2*
G04 #@! TO.N,GND*
X120380000Y-121710000D03*
G04 #@! TD*
D24*
G04 #@! TO.P,F1,2*
G04 #@! TO.N,+24V*
X116880640Y-107950000D03*
X116880640Y-113030000D03*
G04 #@! TO.P,F1,1*
G04 #@! TO.N,Net-(F1-Pad1)*
X101559360Y-107950000D03*
X101559360Y-113030000D03*
G04 #@! TD*
D25*
G04 #@! TO.P,R2,2*
G04 #@! TO.N,+5V*
X85309000Y-109264000D03*
G04 #@! TO.P,R2,1*
G04 #@! TO.N,Net-(D2-Pad2)*
X87219000Y-109264000D03*
G04 #@! TD*
D26*
G04 #@! TO.N,+5V*
X82200000Y-106470000D03*
G04 #@! TO.N,GND*
X95154000Y-101771000D03*
X84709000Y-84836000D03*
X84709000Y-74930000D03*
X85488229Y-94851771D03*
X82469008Y-128148592D03*
X81407000Y-136144000D03*
X82169000Y-145796000D03*
X81407000Y-116840000D03*
G04 #@! TO.N,/I2C_SCL*
X82169000Y-140716000D03*
X88334990Y-140716000D03*
X88341014Y-123063000D03*
X82469008Y-123200681D03*
G04 #@! TD*
D27*
G04 #@! TO.N,+5V*
X84914000Y-106644000D02*
X84740000Y-106470000D01*
X84914000Y-109264000D02*
X84914000Y-106644000D01*
X84740000Y-106470000D02*
X82200000Y-106470000D01*
X87612500Y-106470000D02*
X84740000Y-106470000D01*
G04 #@! TO.N,GND*
X90455000Y-106470000D02*
X95154000Y-101771000D01*
X89487500Y-106470000D02*
X90455000Y-106470000D01*
G04 #@! TO.N,+24V*
X119380000Y-105450640D02*
X119380000Y-101267500D01*
X116880640Y-107950000D02*
X119380000Y-105450640D01*
X119397500Y-101285000D02*
X119380000Y-101267500D01*
X121920000Y-101285000D02*
X119397500Y-101285000D01*
G04 #@! TO.N,Net-(D1-Pad2)*
X124442500Y-99375000D02*
X124460000Y-99392500D01*
X121920000Y-99375000D02*
X124442500Y-99375000D01*
G04 #@! TO.N,Net-(D2-Pad2)*
X87614000Y-109264000D02*
X90406500Y-109264000D01*
G04 #@! TO.N,/I2C_SCL*
X82169000Y-140716000D02*
X88334990Y-140716000D01*
X82606689Y-123063000D02*
X82469008Y-123200681D01*
X88341014Y-123063000D02*
X82606689Y-123063000D01*
G04 #@! TO.N,/powerChannel0/DRAIN*
X97170000Y-48050000D02*
X100555000Y-48050000D01*
X103155000Y-48050000D02*
X109705000Y-48050000D01*
X100555000Y-48050000D02*
X103155000Y-48050000D01*
G04 #@! TO.N,/powerChannel1/DRAIN*
X97170000Y-60750000D02*
X100555000Y-60750000D01*
X103155000Y-60750000D02*
X109705000Y-60750000D01*
X100555000Y-60750000D02*
X103155000Y-60750000D01*
G04 #@! TO.N,/powerChannel2/DRAIN*
X97170000Y-73450000D02*
X100555000Y-73450000D01*
X103155000Y-73450000D02*
X109705000Y-73450000D01*
X100555000Y-73450000D02*
X103155000Y-73450000D01*
G04 #@! TO.N,/powerChannel3/DRAIN*
X97170000Y-86150000D02*
X100555000Y-86150000D01*
X103155000Y-86150000D02*
X109705000Y-86150000D01*
X100555000Y-86150000D02*
X103155000Y-86150000D01*
G04 #@! TO.N,/powerChannel4/DRAIN*
X97170000Y-124250000D02*
X100555000Y-124250000D01*
X100555000Y-124250000D02*
X109705000Y-124250000D01*
G04 #@! TO.N,/powerChannel5/DRAIN*
X97170000Y-136950000D02*
X100555000Y-136950000D01*
X100555000Y-136950000D02*
X109705000Y-136950000D01*
G04 #@! TO.N,/powerChannel6/DRAIN*
X97170000Y-149650000D02*
X100555000Y-149650000D01*
X100555000Y-149650000D02*
X109705000Y-149650000D01*
G04 #@! TO.N,/powerChannel7/DRAIN*
X97170000Y-162350000D02*
X100555000Y-162350000D01*
X100555000Y-162350000D02*
X109705000Y-162350000D01*
G04 #@! TO.N,Net-(Q1-Pad1)*
X97955000Y-45510000D02*
X100555000Y-45510000D01*
X96060000Y-45510000D02*
X97955000Y-45510000D01*
X95170000Y-46400000D02*
X96060000Y-45510000D01*
X95170000Y-47100000D02*
X95170000Y-46400000D01*
G04 #@! TO.N,Net-(Q4-Pad1)*
X96810000Y-58210000D02*
X97955000Y-58210000D01*
X95220000Y-59800000D02*
X96810000Y-58210000D01*
X97955000Y-58210000D02*
X100555000Y-58210000D01*
X95170000Y-59800000D02*
X95220000Y-59800000D01*
G04 #@! TO.N,Net-(Q7-Pad1)*
X97955000Y-70910000D02*
X100555000Y-70910000D01*
X97510000Y-70910000D02*
X97955000Y-70910000D01*
X95920000Y-72500000D02*
X97510000Y-70910000D01*
X95170000Y-72500000D02*
X95920000Y-72500000D01*
G04 #@! TO.N,Net-(Q19-Pad1)*
X99255000Y-147110000D02*
X100555000Y-147110000D01*
X97510000Y-147110000D02*
X99255000Y-147110000D01*
X95920000Y-148700000D02*
X97510000Y-147110000D01*
X95170000Y-148700000D02*
X95920000Y-148700000D01*
G04 #@! TO.N,Net-(Q10-Pad1)*
X97510000Y-83610000D02*
X97955000Y-83610000D01*
X95920000Y-85200000D02*
X97510000Y-83610000D01*
X97955000Y-83610000D02*
X100555000Y-83610000D01*
X95170000Y-85200000D02*
X95920000Y-85200000D01*
G04 #@! TO.N,Net-(Q13-Pad1)*
X97955000Y-121710000D02*
X100555000Y-121710000D01*
X97510000Y-121710000D02*
X97955000Y-121710000D01*
X95920000Y-123300000D02*
X97510000Y-121710000D01*
X95170000Y-123300000D02*
X95920000Y-123300000D01*
G04 #@! TO.N,Net-(Q16-Pad1)*
X97510000Y-134410000D02*
X99255000Y-134410000D01*
X95920000Y-136000000D02*
X97510000Y-134410000D01*
X99255000Y-134410000D02*
X100555000Y-134410000D01*
X95170000Y-136000000D02*
X95920000Y-136000000D01*
G04 #@! TO.N,Net-(Q22-Pad1)*
X99255000Y-159810000D02*
X100555000Y-159810000D01*
X97510000Y-159810000D02*
X99255000Y-159810000D01*
X95920000Y-161400000D02*
X97510000Y-159810000D01*
X95170000Y-161400000D02*
X95920000Y-161400000D01*
G04 #@! TD*
G04 #@! TO.N,GND*
G36*
X131769864Y-41721292D02*
X132515389Y-41925245D01*
X133213013Y-42257995D01*
X133840689Y-42709026D01*
X134378579Y-43264085D01*
X134809671Y-43905618D01*
X135120345Y-44613354D01*
X135301980Y-45369917D01*
X135350000Y-46023829D01*
X135350001Y-164971038D01*
X135278708Y-165769865D01*
X135074755Y-166515389D01*
X134742005Y-167213013D01*
X134290972Y-167840692D01*
X133735916Y-168378579D01*
X133094383Y-168809670D01*
X132386650Y-169120344D01*
X131630083Y-169301980D01*
X130976171Y-169350000D01*
X83028951Y-169350000D01*
X82230135Y-169278708D01*
X81484611Y-169074755D01*
X80786987Y-168742005D01*
X80159308Y-168290972D01*
X79621421Y-167735916D01*
X79190330Y-167094383D01*
X78879656Y-166386650D01*
X78698020Y-165630083D01*
X78650000Y-164976171D01*
X78650000Y-163562393D01*
X81800000Y-163562393D01*
X81800000Y-164437607D01*
X82134930Y-165246200D01*
X82753800Y-165865070D01*
X83562393Y-166200000D01*
X84437607Y-166200000D01*
X85246200Y-165865070D01*
X85865070Y-165246200D01*
X85916929Y-165121000D01*
X97547000Y-165121000D01*
X97547000Y-165580830D01*
X97654787Y-165841050D01*
X97853950Y-166040213D01*
X98114170Y-166148000D01*
X99468764Y-166148000D01*
X99634404Y-166302323D01*
X100241337Y-166528936D01*
X100501000Y-166373395D01*
X100501000Y-164944000D01*
X100609000Y-164944000D01*
X100609000Y-166373395D01*
X100868663Y-166528936D01*
X101475596Y-166302323D01*
X101641236Y-166148000D01*
X102995830Y-166148000D01*
X103256050Y-166040213D01*
X103455213Y-165841050D01*
X103563000Y-165580830D01*
X103563000Y-165121000D01*
X103386000Y-164944000D01*
X100609000Y-164944000D01*
X100501000Y-164944000D01*
X97724000Y-164944000D01*
X97547000Y-165121000D01*
X85916929Y-165121000D01*
X86200000Y-164437607D01*
X86200000Y-163562393D01*
X86186997Y-163531000D01*
X94012000Y-163531000D01*
X94012000Y-163840830D01*
X94119787Y-164101050D01*
X94318950Y-164300213D01*
X94579170Y-164408000D01*
X94939000Y-164408000D01*
X95116000Y-164231000D01*
X95116000Y-163354000D01*
X95224000Y-163354000D01*
X95224000Y-164231000D01*
X95401000Y-164408000D01*
X95760830Y-164408000D01*
X96021050Y-164300213D01*
X96220213Y-164101050D01*
X96328000Y-163840830D01*
X96328000Y-163531000D01*
X96151000Y-163354000D01*
X95224000Y-163354000D01*
X95116000Y-163354000D01*
X94189000Y-163354000D01*
X94012000Y-163531000D01*
X86186997Y-163531000D01*
X85867295Y-162759170D01*
X94012000Y-162759170D01*
X94012000Y-163069000D01*
X94189000Y-163246000D01*
X95116000Y-163246000D01*
X95116000Y-163226000D01*
X95224000Y-163226000D01*
X95224000Y-163246000D01*
X96151000Y-163246000D01*
X96258185Y-163138815D01*
X96287425Y-163182575D01*
X96485892Y-163315187D01*
X96720000Y-163361754D01*
X97620000Y-163361754D01*
X97815887Y-163322790D01*
X97822425Y-163332575D01*
X98020892Y-163465187D01*
X98255000Y-163511754D01*
X99451762Y-163511754D01*
X99536824Y-163568590D01*
X99468764Y-163632000D01*
X98114170Y-163632000D01*
X97853950Y-163739787D01*
X97654787Y-163938950D01*
X97547000Y-164199170D01*
X97547000Y-164659000D01*
X97724000Y-164836000D01*
X100501000Y-164836000D01*
X100501000Y-164816000D01*
X100609000Y-164816000D01*
X100609000Y-164836000D01*
X103386000Y-164836000D01*
X103563000Y-164659000D01*
X103563000Y-164199170D01*
X103455213Y-163938950D01*
X103256050Y-163739787D01*
X102995830Y-163632000D01*
X101641236Y-163632000D01*
X101573176Y-163568590D01*
X101658238Y-163511754D01*
X102855000Y-163511754D01*
X103089108Y-163465187D01*
X103287575Y-163332575D01*
X103409568Y-163150000D01*
X104393246Y-163150000D01*
X104393246Y-167750000D01*
X104439813Y-167984108D01*
X104572425Y-168182575D01*
X104770892Y-168315187D01*
X105005000Y-168361754D01*
X114405000Y-168361754D01*
X114639108Y-168315187D01*
X114837575Y-168182575D01*
X114970187Y-167984108D01*
X115016754Y-167750000D01*
X115016754Y-163562393D01*
X127800000Y-163562393D01*
X127800000Y-164437607D01*
X128134930Y-165246200D01*
X128753800Y-165865070D01*
X129562393Y-166200000D01*
X130437607Y-166200000D01*
X131246200Y-165865070D01*
X131865070Y-165246200D01*
X132200000Y-164437607D01*
X132200000Y-163562393D01*
X131865070Y-162753800D01*
X131246200Y-162134930D01*
X130437607Y-161800000D01*
X129562393Y-161800000D01*
X128753800Y-162134930D01*
X128134930Y-162753800D01*
X127800000Y-163562393D01*
X115016754Y-163562393D01*
X115016754Y-159197148D01*
X121015000Y-159197148D01*
X121015000Y-159982852D01*
X121315675Y-160708748D01*
X121871252Y-161264325D01*
X122597148Y-161565000D01*
X123382852Y-161565000D01*
X124108748Y-161264325D01*
X124664325Y-160708748D01*
X124965000Y-159982852D01*
X124965000Y-159197148D01*
X124664325Y-158471252D01*
X124108748Y-157915675D01*
X123382852Y-157615000D01*
X122597148Y-157615000D01*
X121871252Y-157915675D01*
X121315675Y-158471252D01*
X121015000Y-159197148D01*
X115016754Y-159197148D01*
X115016754Y-156950000D01*
X114970187Y-156715892D01*
X114837575Y-156517425D01*
X114639108Y-156384813D01*
X114405000Y-156338246D01*
X105005000Y-156338246D01*
X104770892Y-156384813D01*
X104572425Y-156517425D01*
X104439813Y-156715892D01*
X104393246Y-156950000D01*
X104393246Y-161550000D01*
X103409568Y-161550000D01*
X103287575Y-161367425D01*
X103089108Y-161234813D01*
X102855000Y-161188246D01*
X101992138Y-161188246D01*
X102120187Y-160996608D01*
X102125131Y-160971754D01*
X102855000Y-160971754D01*
X103089108Y-160925187D01*
X103287575Y-160792575D01*
X103420187Y-160594108D01*
X103466754Y-160360000D01*
X103466754Y-159260000D01*
X103420187Y-159025892D01*
X103287575Y-158827425D01*
X103089108Y-158694813D01*
X102855000Y-158648246D01*
X102125131Y-158648246D01*
X102120187Y-158623392D01*
X101987575Y-158424925D01*
X101789108Y-158292313D01*
X101555000Y-158245746D01*
X99555000Y-158245746D01*
X99320892Y-158292313D01*
X99122425Y-158424925D01*
X98989813Y-158623392D01*
X98984869Y-158648246D01*
X98255000Y-158648246D01*
X98020892Y-158694813D01*
X97822425Y-158827425D01*
X97700432Y-159010000D01*
X97588789Y-159010000D01*
X97510000Y-158994328D01*
X97197855Y-159056417D01*
X97081347Y-159134266D01*
X96933233Y-159233233D01*
X96888602Y-159300028D01*
X95770456Y-160418174D01*
X95620000Y-160388246D01*
X94720000Y-160388246D01*
X94485892Y-160434813D01*
X94287425Y-160567425D01*
X94154813Y-160765892D01*
X94108246Y-161000000D01*
X94108246Y-161800000D01*
X94154813Y-162034108D01*
X94287425Y-162232575D01*
X94361585Y-162282127D01*
X94318950Y-162299787D01*
X94119787Y-162498950D01*
X94012000Y-162759170D01*
X85867295Y-162759170D01*
X85865070Y-162753800D01*
X85246200Y-162134930D01*
X84437607Y-161800000D01*
X83562393Y-161800000D01*
X82753800Y-162134930D01*
X82134930Y-162753800D01*
X81800000Y-163562393D01*
X78650000Y-163562393D01*
X78650000Y-152421000D01*
X97547000Y-152421000D01*
X97547000Y-152880830D01*
X97654787Y-153141050D01*
X97853950Y-153340213D01*
X98114170Y-153448000D01*
X99468764Y-153448000D01*
X99634404Y-153602323D01*
X100241337Y-153828936D01*
X100501000Y-153673395D01*
X100501000Y-152244000D01*
X100609000Y-152244000D01*
X100609000Y-153673395D01*
X100868663Y-153828936D01*
X101475596Y-153602323D01*
X101641236Y-153448000D01*
X102995830Y-153448000D01*
X103256050Y-153340213D01*
X103455213Y-153141050D01*
X103563000Y-152880830D01*
X103563000Y-152421000D01*
X103386000Y-152244000D01*
X100609000Y-152244000D01*
X100501000Y-152244000D01*
X97724000Y-152244000D01*
X97547000Y-152421000D01*
X78650000Y-152421000D01*
X78650000Y-150831000D01*
X94012000Y-150831000D01*
X94012000Y-151140830D01*
X94119787Y-151401050D01*
X94318950Y-151600213D01*
X94579170Y-151708000D01*
X94939000Y-151708000D01*
X95116000Y-151531000D01*
X95116000Y-150654000D01*
X95224000Y-150654000D01*
X95224000Y-151531000D01*
X95401000Y-151708000D01*
X95760830Y-151708000D01*
X96021050Y-151600213D01*
X96220213Y-151401050D01*
X96328000Y-151140830D01*
X96328000Y-150831000D01*
X96151000Y-150654000D01*
X95224000Y-150654000D01*
X95116000Y-150654000D01*
X94189000Y-150654000D01*
X94012000Y-150831000D01*
X78650000Y-150831000D01*
X78650000Y-150059170D01*
X94012000Y-150059170D01*
X94012000Y-150369000D01*
X94189000Y-150546000D01*
X95116000Y-150546000D01*
X95116000Y-150526000D01*
X95224000Y-150526000D01*
X95224000Y-150546000D01*
X96151000Y-150546000D01*
X96258185Y-150438815D01*
X96287425Y-150482575D01*
X96485892Y-150615187D01*
X96720000Y-150661754D01*
X97620000Y-150661754D01*
X97815887Y-150622790D01*
X97822425Y-150632575D01*
X98020892Y-150765187D01*
X98255000Y-150811754D01*
X99451762Y-150811754D01*
X99536824Y-150868590D01*
X99468764Y-150932000D01*
X98114170Y-150932000D01*
X97853950Y-151039787D01*
X97654787Y-151238950D01*
X97547000Y-151499170D01*
X97547000Y-151959000D01*
X97724000Y-152136000D01*
X100501000Y-152136000D01*
X100501000Y-152116000D01*
X100609000Y-152116000D01*
X100609000Y-152136000D01*
X103386000Y-152136000D01*
X103563000Y-151959000D01*
X103563000Y-151499170D01*
X103455213Y-151238950D01*
X103256050Y-151039787D01*
X102995830Y-150932000D01*
X101641236Y-150932000D01*
X101573176Y-150868590D01*
X101658238Y-150811754D01*
X102855000Y-150811754D01*
X103089108Y-150765187D01*
X103287575Y-150632575D01*
X103409568Y-150450000D01*
X104393246Y-150450000D01*
X104393246Y-155050000D01*
X104439813Y-155284108D01*
X104572425Y-155482575D01*
X104770892Y-155615187D01*
X105005000Y-155661754D01*
X114405000Y-155661754D01*
X114639108Y-155615187D01*
X114837575Y-155482575D01*
X114970187Y-155284108D01*
X114979527Y-155237148D01*
X121015000Y-155237148D01*
X121015000Y-156022852D01*
X121315675Y-156748748D01*
X121871252Y-157304325D01*
X122597148Y-157605000D01*
X123382852Y-157605000D01*
X124108748Y-157304325D01*
X124664325Y-156748748D01*
X124965000Y-156022852D01*
X124965000Y-155237148D01*
X124664325Y-154511252D01*
X124108748Y-153955675D01*
X123382852Y-153655000D01*
X122597148Y-153655000D01*
X121871252Y-153955675D01*
X121315675Y-154511252D01*
X121015000Y-155237148D01*
X114979527Y-155237148D01*
X115016754Y-155050000D01*
X115016754Y-151277148D01*
X121015000Y-151277148D01*
X121015000Y-152062852D01*
X121315675Y-152788748D01*
X121871252Y-153344325D01*
X122597148Y-153645000D01*
X123382852Y-153645000D01*
X124108748Y-153344325D01*
X124664325Y-152788748D01*
X124965000Y-152062852D01*
X124965000Y-151277148D01*
X124664325Y-150551252D01*
X124108748Y-149995675D01*
X123382852Y-149695000D01*
X122597148Y-149695000D01*
X121871252Y-149995675D01*
X121315675Y-150551252D01*
X121015000Y-151277148D01*
X115016754Y-151277148D01*
X115016754Y-147317148D01*
X121015000Y-147317148D01*
X121015000Y-148102852D01*
X121315675Y-148828748D01*
X121871252Y-149384325D01*
X122597148Y-149685000D01*
X123382852Y-149685000D01*
X124108748Y-149384325D01*
X124664325Y-148828748D01*
X124965000Y-148102852D01*
X124965000Y-147317148D01*
X124664325Y-146591252D01*
X124108748Y-146035675D01*
X123382852Y-145735000D01*
X122597148Y-145735000D01*
X121871252Y-146035675D01*
X121315675Y-146591252D01*
X121015000Y-147317148D01*
X115016754Y-147317148D01*
X115016754Y-144250000D01*
X114970187Y-144015892D01*
X114837575Y-143817425D01*
X114639108Y-143684813D01*
X114405000Y-143638246D01*
X105005000Y-143638246D01*
X104770892Y-143684813D01*
X104572425Y-143817425D01*
X104439813Y-144015892D01*
X104393246Y-144250000D01*
X104393246Y-148850000D01*
X103409568Y-148850000D01*
X103287575Y-148667425D01*
X103089108Y-148534813D01*
X102855000Y-148488246D01*
X101992138Y-148488246D01*
X102120187Y-148296608D01*
X102125131Y-148271754D01*
X102855000Y-148271754D01*
X103089108Y-148225187D01*
X103287575Y-148092575D01*
X103420187Y-147894108D01*
X103466754Y-147660000D01*
X103466754Y-146560000D01*
X103420187Y-146325892D01*
X103287575Y-146127425D01*
X103089108Y-145994813D01*
X102855000Y-145948246D01*
X102125131Y-145948246D01*
X102120187Y-145923392D01*
X101987575Y-145724925D01*
X101789108Y-145592313D01*
X101555000Y-145545746D01*
X99555000Y-145545746D01*
X99320892Y-145592313D01*
X99122425Y-145724925D01*
X98989813Y-145923392D01*
X98984869Y-145948246D01*
X98255000Y-145948246D01*
X98020892Y-145994813D01*
X97822425Y-146127425D01*
X97700432Y-146310000D01*
X97588789Y-146310000D01*
X97510000Y-146294328D01*
X97197855Y-146356417D01*
X97081347Y-146434266D01*
X96933233Y-146533233D01*
X96888602Y-146600028D01*
X95770456Y-147718174D01*
X95620000Y-147688246D01*
X94720000Y-147688246D01*
X94485892Y-147734813D01*
X94287425Y-147867425D01*
X94154813Y-148065892D01*
X94108246Y-148300000D01*
X94108246Y-149100000D01*
X94154813Y-149334108D01*
X94287425Y-149532575D01*
X94361585Y-149582127D01*
X94318950Y-149599787D01*
X94119787Y-149798950D01*
X94012000Y-150059170D01*
X78650000Y-150059170D01*
X78650000Y-146136914D01*
X83210554Y-146136914D01*
X83213349Y-146150982D01*
X83448566Y-146711534D01*
X83880392Y-147139403D01*
X84443086Y-147369450D01*
X84686000Y-147220068D01*
X84686000Y-145894000D01*
X84794000Y-145894000D01*
X84794000Y-147220068D01*
X85036914Y-147369450D01*
X85599608Y-147139403D01*
X86031434Y-146711534D01*
X86266651Y-146150982D01*
X86269446Y-146136914D01*
X86119944Y-145894000D01*
X84794000Y-145894000D01*
X84686000Y-145894000D01*
X83360056Y-145894000D01*
X83210554Y-146136914D01*
X78650000Y-146136914D01*
X78650000Y-140477305D01*
X80969000Y-140477305D01*
X80969000Y-140954695D01*
X81151689Y-141395745D01*
X81489255Y-141733311D01*
X81930305Y-141916000D01*
X82407695Y-141916000D01*
X82848745Y-141733311D01*
X83066056Y-141516000D01*
X83501243Y-141516000D01*
X83694608Y-141805392D01*
X84030758Y-142030000D01*
X83694608Y-142254608D01*
X83374130Y-142734238D01*
X83261593Y-143300000D01*
X83374130Y-143865762D01*
X83694608Y-144345392D01*
X83946379Y-144513620D01*
X83880392Y-144540597D01*
X83448566Y-144968466D01*
X83213349Y-145529018D01*
X83210554Y-145543086D01*
X83360056Y-145786000D01*
X84686000Y-145786000D01*
X84686000Y-145766000D01*
X84794000Y-145766000D01*
X84794000Y-145786000D01*
X86119944Y-145786000D01*
X86269446Y-145543086D01*
X86266651Y-145529018D01*
X86031434Y-144968466D01*
X85599608Y-144540597D01*
X85533621Y-144513620D01*
X85785392Y-144345392D01*
X86105870Y-143865762D01*
X86207039Y-143357148D01*
X121015000Y-143357148D01*
X121015000Y-144142852D01*
X121315675Y-144868748D01*
X121871252Y-145424325D01*
X122597148Y-145725000D01*
X123382852Y-145725000D01*
X124108748Y-145424325D01*
X124664325Y-144868748D01*
X124965000Y-144142852D01*
X124965000Y-143357148D01*
X124664325Y-142631252D01*
X124108748Y-142075675D01*
X123382852Y-141775000D01*
X122597148Y-141775000D01*
X121871252Y-142075675D01*
X121315675Y-142631252D01*
X121015000Y-143357148D01*
X86207039Y-143357148D01*
X86218407Y-143300000D01*
X86105870Y-142734238D01*
X85785392Y-142254608D01*
X85449242Y-142030000D01*
X85785392Y-141805392D01*
X85978757Y-141516000D01*
X87437934Y-141516000D01*
X87655245Y-141733311D01*
X88096295Y-141916000D01*
X88573685Y-141916000D01*
X89014735Y-141733311D01*
X89352301Y-141395745D01*
X89534990Y-140954695D01*
X89534990Y-140477305D01*
X89352301Y-140036255D01*
X89037046Y-139721000D01*
X97547000Y-139721000D01*
X97547000Y-140180830D01*
X97654787Y-140441050D01*
X97853950Y-140640213D01*
X98114170Y-140748000D01*
X99468764Y-140748000D01*
X99634404Y-140902323D01*
X100241337Y-141128936D01*
X100501000Y-140973395D01*
X100501000Y-139544000D01*
X100609000Y-139544000D01*
X100609000Y-140973395D01*
X100868663Y-141128936D01*
X101475596Y-140902323D01*
X101641236Y-140748000D01*
X102995830Y-140748000D01*
X103256050Y-140640213D01*
X103455213Y-140441050D01*
X103563000Y-140180830D01*
X103563000Y-139721000D01*
X103386000Y-139544000D01*
X100609000Y-139544000D01*
X100501000Y-139544000D01*
X97724000Y-139544000D01*
X97547000Y-139721000D01*
X89037046Y-139721000D01*
X89014735Y-139698689D01*
X88573685Y-139516000D01*
X88096295Y-139516000D01*
X87655245Y-139698689D01*
X87437934Y-139916000D01*
X85919958Y-139916000D01*
X85785392Y-139714608D01*
X85702679Y-139659341D01*
X85824108Y-139635187D01*
X86022575Y-139502575D01*
X86155187Y-139304108D01*
X86201754Y-139070000D01*
X86201754Y-138131000D01*
X94012000Y-138131000D01*
X94012000Y-138440830D01*
X94119787Y-138701050D01*
X94318950Y-138900213D01*
X94579170Y-139008000D01*
X94939000Y-139008000D01*
X95116000Y-138831000D01*
X95116000Y-137954000D01*
X95224000Y-137954000D01*
X95224000Y-138831000D01*
X95401000Y-139008000D01*
X95760830Y-139008000D01*
X96021050Y-138900213D01*
X96220213Y-138701050D01*
X96328000Y-138440830D01*
X96328000Y-138131000D01*
X96151000Y-137954000D01*
X95224000Y-137954000D01*
X95116000Y-137954000D01*
X94189000Y-137954000D01*
X94012000Y-138131000D01*
X86201754Y-138131000D01*
X86201754Y-137370000D01*
X86199600Y-137359170D01*
X94012000Y-137359170D01*
X94012000Y-137669000D01*
X94189000Y-137846000D01*
X95116000Y-137846000D01*
X95116000Y-137826000D01*
X95224000Y-137826000D01*
X95224000Y-137846000D01*
X96151000Y-137846000D01*
X96258185Y-137738815D01*
X96287425Y-137782575D01*
X96485892Y-137915187D01*
X96720000Y-137961754D01*
X97620000Y-137961754D01*
X97815887Y-137922790D01*
X97822425Y-137932575D01*
X98020892Y-138065187D01*
X98255000Y-138111754D01*
X99451762Y-138111754D01*
X99536824Y-138168590D01*
X99468764Y-138232000D01*
X98114170Y-138232000D01*
X97853950Y-138339787D01*
X97654787Y-138538950D01*
X97547000Y-138799170D01*
X97547000Y-139259000D01*
X97724000Y-139436000D01*
X100501000Y-139436000D01*
X100501000Y-139416000D01*
X100609000Y-139416000D01*
X100609000Y-139436000D01*
X103386000Y-139436000D01*
X103563000Y-139259000D01*
X103563000Y-138799170D01*
X103455213Y-138538950D01*
X103256050Y-138339787D01*
X102995830Y-138232000D01*
X101641236Y-138232000D01*
X101573176Y-138168590D01*
X101658238Y-138111754D01*
X102855000Y-138111754D01*
X103089108Y-138065187D01*
X103287575Y-137932575D01*
X103409568Y-137750000D01*
X104393246Y-137750000D01*
X104393246Y-142350000D01*
X104439813Y-142584108D01*
X104572425Y-142782575D01*
X104770892Y-142915187D01*
X105005000Y-142961754D01*
X114405000Y-142961754D01*
X114639108Y-142915187D01*
X114837575Y-142782575D01*
X114970187Y-142584108D01*
X115016754Y-142350000D01*
X115016754Y-139397148D01*
X121015000Y-139397148D01*
X121015000Y-140182852D01*
X121315675Y-140908748D01*
X121871252Y-141464325D01*
X122597148Y-141765000D01*
X123382852Y-141765000D01*
X124108748Y-141464325D01*
X124664325Y-140908748D01*
X124965000Y-140182852D01*
X124965000Y-139397148D01*
X124664325Y-138671252D01*
X124108748Y-138115675D01*
X123382852Y-137815000D01*
X122597148Y-137815000D01*
X121871252Y-138115675D01*
X121315675Y-138671252D01*
X121015000Y-139397148D01*
X115016754Y-139397148D01*
X115016754Y-135437148D01*
X121015000Y-135437148D01*
X121015000Y-136222852D01*
X121315675Y-136948748D01*
X121871252Y-137504325D01*
X122597148Y-137805000D01*
X123382852Y-137805000D01*
X124108748Y-137504325D01*
X124664325Y-136948748D01*
X124965000Y-136222852D01*
X124965000Y-135437148D01*
X124664325Y-134711252D01*
X124108748Y-134155675D01*
X123382852Y-133855000D01*
X122597148Y-133855000D01*
X121871252Y-134155675D01*
X121315675Y-134711252D01*
X121015000Y-135437148D01*
X115016754Y-135437148D01*
X115016754Y-131550000D01*
X115002263Y-131477148D01*
X121015000Y-131477148D01*
X121015000Y-132262852D01*
X121315675Y-132988748D01*
X121871252Y-133544325D01*
X122597148Y-133845000D01*
X123382852Y-133845000D01*
X124108748Y-133544325D01*
X124664325Y-132988748D01*
X124965000Y-132262852D01*
X124965000Y-131477148D01*
X124664325Y-130751252D01*
X124108748Y-130195675D01*
X123382852Y-129895000D01*
X122597148Y-129895000D01*
X121871252Y-130195675D01*
X121315675Y-130751252D01*
X121015000Y-131477148D01*
X115002263Y-131477148D01*
X114970187Y-131315892D01*
X114837575Y-131117425D01*
X114639108Y-130984813D01*
X114405000Y-130938246D01*
X105005000Y-130938246D01*
X104770892Y-130984813D01*
X104572425Y-131117425D01*
X104439813Y-131315892D01*
X104393246Y-131550000D01*
X104393246Y-136150000D01*
X103409568Y-136150000D01*
X103287575Y-135967425D01*
X103089108Y-135834813D01*
X102855000Y-135788246D01*
X101992138Y-135788246D01*
X102120187Y-135596608D01*
X102125131Y-135571754D01*
X102855000Y-135571754D01*
X103089108Y-135525187D01*
X103287575Y-135392575D01*
X103420187Y-135194108D01*
X103466754Y-134960000D01*
X103466754Y-133860000D01*
X103420187Y-133625892D01*
X103287575Y-133427425D01*
X103089108Y-133294813D01*
X102855000Y-133248246D01*
X102125131Y-133248246D01*
X102120187Y-133223392D01*
X101987575Y-133024925D01*
X101789108Y-132892313D01*
X101555000Y-132845746D01*
X99555000Y-132845746D01*
X99320892Y-132892313D01*
X99122425Y-133024925D01*
X98989813Y-133223392D01*
X98984869Y-133248246D01*
X98255000Y-133248246D01*
X98020892Y-133294813D01*
X97822425Y-133427425D01*
X97700432Y-133610000D01*
X97588789Y-133610000D01*
X97510000Y-133594328D01*
X97197855Y-133656417D01*
X97081347Y-133734266D01*
X96933233Y-133833233D01*
X96888602Y-133900028D01*
X95770456Y-135018174D01*
X95620000Y-134988246D01*
X94720000Y-134988246D01*
X94485892Y-135034813D01*
X94287425Y-135167425D01*
X94154813Y-135365892D01*
X94108246Y-135600000D01*
X94108246Y-136400000D01*
X94154813Y-136634108D01*
X94287425Y-136832575D01*
X94361585Y-136882127D01*
X94318950Y-136899787D01*
X94119787Y-137098950D01*
X94012000Y-137359170D01*
X86199600Y-137359170D01*
X86155187Y-137135892D01*
X86022575Y-136937425D01*
X85824108Y-136804813D01*
X85590000Y-136758246D01*
X83890000Y-136758246D01*
X83655892Y-136804813D01*
X83457425Y-136937425D01*
X83324813Y-137135892D01*
X83278246Y-137370000D01*
X83278246Y-139070000D01*
X83324813Y-139304108D01*
X83457425Y-139502575D01*
X83655892Y-139635187D01*
X83777321Y-139659341D01*
X83694608Y-139714608D01*
X83560042Y-139916000D01*
X83066056Y-139916000D01*
X82848745Y-139698689D01*
X82407695Y-139516000D01*
X81930305Y-139516000D01*
X81489255Y-139698689D01*
X81151689Y-140036255D01*
X80969000Y-140477305D01*
X78650000Y-140477305D01*
X78650000Y-128356914D01*
X83210554Y-128356914D01*
X83213349Y-128370982D01*
X83448566Y-128931534D01*
X83880392Y-129359403D01*
X84443086Y-129589450D01*
X84686000Y-129440068D01*
X84686000Y-128114000D01*
X84794000Y-128114000D01*
X84794000Y-129440068D01*
X85036914Y-129589450D01*
X85599608Y-129359403D01*
X86031434Y-128931534D01*
X86266651Y-128370982D01*
X86269446Y-128356914D01*
X86119944Y-128114000D01*
X84794000Y-128114000D01*
X84686000Y-128114000D01*
X83360056Y-128114000D01*
X83210554Y-128356914D01*
X78650000Y-128356914D01*
X78650000Y-122961986D01*
X81269008Y-122961986D01*
X81269008Y-123439376D01*
X81451697Y-123880426D01*
X81789263Y-124217992D01*
X82230313Y-124400681D01*
X82707703Y-124400681D01*
X83148753Y-124217992D01*
X83486319Y-123880426D01*
X83493537Y-123863000D01*
X83586101Y-123863000D01*
X83694608Y-124025392D01*
X84030758Y-124250000D01*
X83694608Y-124474608D01*
X83374130Y-124954238D01*
X83261593Y-125520000D01*
X83374130Y-126085762D01*
X83694608Y-126565392D01*
X83946379Y-126733620D01*
X83880392Y-126760597D01*
X83448566Y-127188466D01*
X83213349Y-127749018D01*
X83210554Y-127763086D01*
X83360056Y-128006000D01*
X84686000Y-128006000D01*
X84686000Y-127986000D01*
X84794000Y-127986000D01*
X84794000Y-128006000D01*
X86119944Y-128006000D01*
X86269446Y-127763086D01*
X86266651Y-127749018D01*
X86031434Y-127188466D01*
X85862420Y-127021000D01*
X97547000Y-127021000D01*
X97547000Y-127480830D01*
X97654787Y-127741050D01*
X97853950Y-127940213D01*
X98114170Y-128048000D01*
X99468764Y-128048000D01*
X99634404Y-128202323D01*
X100241337Y-128428936D01*
X100501000Y-128273395D01*
X100501000Y-126844000D01*
X100609000Y-126844000D01*
X100609000Y-128273395D01*
X100868663Y-128428936D01*
X101475596Y-128202323D01*
X101641236Y-128048000D01*
X102995830Y-128048000D01*
X103256050Y-127940213D01*
X103455213Y-127741050D01*
X103563000Y-127480830D01*
X103563000Y-127021000D01*
X103386000Y-126844000D01*
X100609000Y-126844000D01*
X100501000Y-126844000D01*
X97724000Y-126844000D01*
X97547000Y-127021000D01*
X85862420Y-127021000D01*
X85599608Y-126760597D01*
X85533621Y-126733620D01*
X85785392Y-126565392D01*
X86105870Y-126085762D01*
X86218407Y-125520000D01*
X86200704Y-125431000D01*
X94012000Y-125431000D01*
X94012000Y-125740830D01*
X94119787Y-126001050D01*
X94318950Y-126200213D01*
X94579170Y-126308000D01*
X94939000Y-126308000D01*
X95116000Y-126131000D01*
X95116000Y-125254000D01*
X95224000Y-125254000D01*
X95224000Y-126131000D01*
X95401000Y-126308000D01*
X95760830Y-126308000D01*
X96021050Y-126200213D01*
X96220213Y-126001050D01*
X96328000Y-125740830D01*
X96328000Y-125431000D01*
X96151000Y-125254000D01*
X95224000Y-125254000D01*
X95116000Y-125254000D01*
X94189000Y-125254000D01*
X94012000Y-125431000D01*
X86200704Y-125431000D01*
X86105870Y-124954238D01*
X85908713Y-124659170D01*
X94012000Y-124659170D01*
X94012000Y-124969000D01*
X94189000Y-125146000D01*
X95116000Y-125146000D01*
X95116000Y-125126000D01*
X95224000Y-125126000D01*
X95224000Y-125146000D01*
X96151000Y-125146000D01*
X96258185Y-125038815D01*
X96287425Y-125082575D01*
X96485892Y-125215187D01*
X96720000Y-125261754D01*
X97620000Y-125261754D01*
X97815887Y-125222790D01*
X97822425Y-125232575D01*
X98020892Y-125365187D01*
X98255000Y-125411754D01*
X99451762Y-125411754D01*
X99536824Y-125468590D01*
X99468764Y-125532000D01*
X98114170Y-125532000D01*
X97853950Y-125639787D01*
X97654787Y-125838950D01*
X97547000Y-126099170D01*
X97547000Y-126559000D01*
X97724000Y-126736000D01*
X100501000Y-126736000D01*
X100501000Y-126716000D01*
X100609000Y-126716000D01*
X100609000Y-126736000D01*
X103386000Y-126736000D01*
X103563000Y-126559000D01*
X103563000Y-126099170D01*
X103455213Y-125838950D01*
X103256050Y-125639787D01*
X102995830Y-125532000D01*
X101641236Y-125532000D01*
X101573176Y-125468590D01*
X101658238Y-125411754D01*
X102855000Y-125411754D01*
X103089108Y-125365187D01*
X103287575Y-125232575D01*
X103409568Y-125050000D01*
X104393246Y-125050000D01*
X104393246Y-129650000D01*
X104439813Y-129884108D01*
X104572425Y-130082575D01*
X104770892Y-130215187D01*
X105005000Y-130261754D01*
X114405000Y-130261754D01*
X114639108Y-130215187D01*
X114837575Y-130082575D01*
X114970187Y-129884108D01*
X115016754Y-129650000D01*
X115016754Y-122601235D01*
X119565132Y-122601235D01*
X119610455Y-122861057D01*
X120109524Y-123067930D01*
X120649770Y-123068071D01*
X121148946Y-122861457D01*
X121149545Y-122861057D01*
X121194868Y-122601235D01*
X120380000Y-121786368D01*
X119565132Y-122601235D01*
X115016754Y-122601235D01*
X115016754Y-121979770D01*
X119021929Y-121979770D01*
X119228543Y-122478946D01*
X119228943Y-122479545D01*
X119488765Y-122524868D01*
X120303632Y-121710000D01*
X120456368Y-121710000D01*
X121271235Y-122524868D01*
X121531057Y-122479545D01*
X121737930Y-121980476D01*
X121738071Y-121440230D01*
X121580690Y-121060000D01*
X124118246Y-121060000D01*
X124118246Y-122360000D01*
X124164813Y-122594108D01*
X124297425Y-122792575D01*
X124495892Y-122925187D01*
X124730000Y-122971754D01*
X126030000Y-122971754D01*
X126264108Y-122925187D01*
X126462575Y-122792575D01*
X126595187Y-122594108D01*
X126641754Y-122360000D01*
X126641754Y-121060000D01*
X126595187Y-120825892D01*
X126462575Y-120627425D01*
X126264108Y-120494813D01*
X126030000Y-120448246D01*
X124730000Y-120448246D01*
X124495892Y-120494813D01*
X124297425Y-120627425D01*
X124164813Y-120825892D01*
X124118246Y-121060000D01*
X121580690Y-121060000D01*
X121531457Y-120941054D01*
X121531057Y-120940455D01*
X121271235Y-120895132D01*
X120456368Y-121710000D01*
X120303632Y-121710000D01*
X119488765Y-120895132D01*
X119228943Y-120940455D01*
X119022070Y-121439524D01*
X119021929Y-121979770D01*
X115016754Y-121979770D01*
X115016754Y-120818765D01*
X119565132Y-120818765D01*
X120380000Y-121633632D01*
X121194868Y-120818765D01*
X121149545Y-120558943D01*
X120650476Y-120352070D01*
X120110230Y-120351929D01*
X119611054Y-120558543D01*
X119610455Y-120558943D01*
X119565132Y-120818765D01*
X115016754Y-120818765D01*
X115016754Y-118850000D01*
X114970187Y-118615892D01*
X114837575Y-118417425D01*
X114639108Y-118284813D01*
X114405000Y-118238246D01*
X105005000Y-118238246D01*
X104770892Y-118284813D01*
X104572425Y-118417425D01*
X104439813Y-118615892D01*
X104393246Y-118850000D01*
X104393246Y-123450000D01*
X103409568Y-123450000D01*
X103287575Y-123267425D01*
X103089108Y-123134813D01*
X102855000Y-123088246D01*
X101992138Y-123088246D01*
X102120187Y-122896608D01*
X102125131Y-122871754D01*
X102855000Y-122871754D01*
X103089108Y-122825187D01*
X103287575Y-122692575D01*
X103420187Y-122494108D01*
X103466754Y-122260000D01*
X103466754Y-121160000D01*
X103420187Y-120925892D01*
X103287575Y-120727425D01*
X103089108Y-120594813D01*
X102855000Y-120548246D01*
X102125131Y-120548246D01*
X102120187Y-120523392D01*
X101987575Y-120324925D01*
X101789108Y-120192313D01*
X101555000Y-120145746D01*
X99555000Y-120145746D01*
X99320892Y-120192313D01*
X99122425Y-120324925D01*
X98989813Y-120523392D01*
X98984869Y-120548246D01*
X98255000Y-120548246D01*
X98020892Y-120594813D01*
X97822425Y-120727425D01*
X97700432Y-120910000D01*
X97588789Y-120910000D01*
X97510000Y-120894328D01*
X97197855Y-120956417D01*
X97081347Y-121034266D01*
X96933233Y-121133233D01*
X96888602Y-121200028D01*
X95770456Y-122318174D01*
X95620000Y-122288246D01*
X94720000Y-122288246D01*
X94485892Y-122334813D01*
X94287425Y-122467425D01*
X94154813Y-122665892D01*
X94108246Y-122900000D01*
X94108246Y-123700000D01*
X94154813Y-123934108D01*
X94287425Y-124132575D01*
X94361585Y-124182127D01*
X94318950Y-124199787D01*
X94119787Y-124398950D01*
X94012000Y-124659170D01*
X85908713Y-124659170D01*
X85785392Y-124474608D01*
X85449242Y-124250000D01*
X85785392Y-124025392D01*
X85893899Y-123863000D01*
X87443958Y-123863000D01*
X87661269Y-124080311D01*
X88102319Y-124263000D01*
X88579709Y-124263000D01*
X89020759Y-124080311D01*
X89358325Y-123742745D01*
X89541014Y-123301695D01*
X89541014Y-122824305D01*
X89358325Y-122383255D01*
X89020759Y-122045689D01*
X88579709Y-121863000D01*
X88102319Y-121863000D01*
X87661269Y-122045689D01*
X87443958Y-122263000D01*
X86004816Y-122263000D01*
X85785392Y-121934608D01*
X85702679Y-121879341D01*
X85824108Y-121855187D01*
X86022575Y-121722575D01*
X86155187Y-121524108D01*
X86201754Y-121290000D01*
X86201754Y-119590000D01*
X86155187Y-119355892D01*
X86022575Y-119157425D01*
X85824108Y-119024813D01*
X85590000Y-118978246D01*
X83890000Y-118978246D01*
X83655892Y-119024813D01*
X83457425Y-119157425D01*
X83324813Y-119355892D01*
X83278246Y-119590000D01*
X83278246Y-121290000D01*
X83324813Y-121524108D01*
X83457425Y-121722575D01*
X83655892Y-121855187D01*
X83777321Y-121879341D01*
X83694608Y-121934608D01*
X83475184Y-122263000D01*
X83228383Y-122263000D01*
X83148753Y-122183370D01*
X82707703Y-122000681D01*
X82230313Y-122000681D01*
X81789263Y-122183370D01*
X81451697Y-122520936D01*
X81269008Y-122961986D01*
X78650000Y-122961986D01*
X78650000Y-112676980D01*
X99784610Y-112676980D01*
X99784610Y-113383020D01*
X100054800Y-114035315D01*
X100554045Y-114534560D01*
X101206340Y-114804750D01*
X101912380Y-114804750D01*
X102564675Y-114534560D01*
X103063920Y-114035315D01*
X103334110Y-113383020D01*
X103334110Y-112676980D01*
X115105890Y-112676980D01*
X115105890Y-113383020D01*
X115376080Y-114035315D01*
X115875325Y-114534560D01*
X116527620Y-114804750D01*
X117233660Y-114804750D01*
X117885955Y-114534560D01*
X118385200Y-114035315D01*
X118655390Y-113383020D01*
X118655390Y-112676980D01*
X118385200Y-112024685D01*
X117885955Y-111525440D01*
X117233660Y-111255250D01*
X116527620Y-111255250D01*
X115875325Y-111525440D01*
X115376080Y-112024685D01*
X115105890Y-112676980D01*
X103334110Y-112676980D01*
X103063920Y-112024685D01*
X102564675Y-111525440D01*
X101912380Y-111255250D01*
X101206340Y-111255250D01*
X100554045Y-111525440D01*
X100054800Y-112024685D01*
X99784610Y-112676980D01*
X78650000Y-112676980D01*
X78650000Y-106231305D01*
X81000000Y-106231305D01*
X81000000Y-106708695D01*
X81182689Y-107149745D01*
X81520255Y-107487311D01*
X81961305Y-107670000D01*
X82438695Y-107670000D01*
X82879745Y-107487311D01*
X83097056Y-107270000D01*
X84114001Y-107270000D01*
X84114000Y-109342788D01*
X84160417Y-109576143D01*
X84212246Y-109653711D01*
X84212246Y-110014000D01*
X84258813Y-110248108D01*
X84391425Y-110446575D01*
X84589892Y-110579187D01*
X84824000Y-110625754D01*
X85794000Y-110625754D01*
X86028108Y-110579187D01*
X86226575Y-110446575D01*
X86264000Y-110390565D01*
X86301425Y-110446575D01*
X86499892Y-110579187D01*
X86734000Y-110625754D01*
X87704000Y-110625754D01*
X87938108Y-110579187D01*
X88136575Y-110446575D01*
X88269187Y-110248108D01*
X88305808Y-110064000D01*
X89383300Y-110064000D01*
X89557817Y-110325183D01*
X89835363Y-110510633D01*
X90162750Y-110575754D01*
X90650250Y-110575754D01*
X90977637Y-110510633D01*
X91194480Y-110365743D01*
X91392950Y-110564213D01*
X91653170Y-110672000D01*
X92050500Y-110672000D01*
X92227500Y-110495000D01*
X92227500Y-109318000D01*
X92335500Y-109318000D01*
X92335500Y-110495000D01*
X92512500Y-110672000D01*
X92909830Y-110672000D01*
X93170050Y-110564213D01*
X93369213Y-110365050D01*
X93477000Y-110104830D01*
X93477000Y-109495000D01*
X93300000Y-109318000D01*
X92335500Y-109318000D01*
X92227500Y-109318000D01*
X92207500Y-109318000D01*
X92207500Y-109210000D01*
X92227500Y-109210000D01*
X92227500Y-108033000D01*
X92335500Y-108033000D01*
X92335500Y-109210000D01*
X93300000Y-109210000D01*
X93477000Y-109033000D01*
X93477000Y-108423170D01*
X93369213Y-108162950D01*
X93170050Y-107963787D01*
X92909830Y-107856000D01*
X92512500Y-107856000D01*
X92335500Y-108033000D01*
X92227500Y-108033000D01*
X92050500Y-107856000D01*
X91653170Y-107856000D01*
X91392950Y-107963787D01*
X91194480Y-108162257D01*
X90977637Y-108017367D01*
X90650250Y-107952246D01*
X90162750Y-107952246D01*
X89835363Y-108017367D01*
X89557817Y-108202817D01*
X89383300Y-108464000D01*
X88305808Y-108464000D01*
X88269187Y-108279892D01*
X88136575Y-108081425D01*
X87938108Y-107948813D01*
X87704000Y-107902246D01*
X86734000Y-107902246D01*
X86499892Y-107948813D01*
X86301425Y-108081425D01*
X86264000Y-108137435D01*
X86226575Y-108081425D01*
X86028108Y-107948813D01*
X85794000Y-107902246D01*
X85714000Y-107902246D01*
X85714000Y-107270000D01*
X86589300Y-107270000D01*
X86763817Y-107531183D01*
X87041363Y-107716633D01*
X87368750Y-107781754D01*
X87856250Y-107781754D01*
X88183637Y-107716633D01*
X88400480Y-107571743D01*
X88598950Y-107770213D01*
X88859170Y-107878000D01*
X89256500Y-107878000D01*
X89433500Y-107701000D01*
X89433500Y-106524000D01*
X89541500Y-106524000D01*
X89541500Y-107701000D01*
X89718500Y-107878000D01*
X90115830Y-107878000D01*
X90376050Y-107770213D01*
X90549283Y-107596980D01*
X99784610Y-107596980D01*
X99784610Y-108303020D01*
X100054800Y-108955315D01*
X100554045Y-109454560D01*
X101206340Y-109724750D01*
X101912380Y-109724750D01*
X102564675Y-109454560D01*
X103063920Y-108955315D01*
X103334110Y-108303020D01*
X103334110Y-107596980D01*
X115105890Y-107596980D01*
X115105890Y-108303020D01*
X115376080Y-108955315D01*
X115875325Y-109454560D01*
X116527620Y-109724750D01*
X117233660Y-109724750D01*
X117885955Y-109454560D01*
X118385200Y-108955315D01*
X118655390Y-108303020D01*
X118655390Y-107596980D01*
X118570346Y-107391665D01*
X119889975Y-106072036D01*
X119956767Y-106027407D01*
X120046420Y-105893233D01*
X120133582Y-105762785D01*
X120133583Y-105762784D01*
X120180000Y-105529429D01*
X120180000Y-105529424D01*
X120195671Y-105450640D01*
X120180000Y-105371856D01*
X120180000Y-102290700D01*
X120441183Y-102116183D01*
X120462019Y-102085000D01*
X120658864Y-102085000D01*
X120737425Y-102202575D01*
X120935892Y-102335187D01*
X121170000Y-102381754D01*
X122670000Y-102381754D01*
X122904108Y-102335187D01*
X123102575Y-102202575D01*
X123149789Y-102131914D01*
X123159787Y-102156050D01*
X123358950Y-102355213D01*
X123619170Y-102463000D01*
X124229000Y-102463000D01*
X124406000Y-102286000D01*
X124406000Y-101321500D01*
X124514000Y-101321500D01*
X124514000Y-102286000D01*
X124691000Y-102463000D01*
X125300830Y-102463000D01*
X125561050Y-102355213D01*
X125760213Y-102156050D01*
X125868000Y-101895830D01*
X125868000Y-101498500D01*
X125691000Y-101321500D01*
X124514000Y-101321500D01*
X124406000Y-101321500D01*
X124386000Y-101321500D01*
X124386000Y-101213500D01*
X124406000Y-101213500D01*
X124406000Y-101193500D01*
X124514000Y-101193500D01*
X124514000Y-101213500D01*
X125691000Y-101213500D01*
X125868000Y-101036500D01*
X125868000Y-100639170D01*
X125760213Y-100378950D01*
X125561743Y-100180480D01*
X125706633Y-99963637D01*
X125771754Y-99636250D01*
X125771754Y-99148750D01*
X125706633Y-98821363D01*
X125521183Y-98543817D01*
X125243637Y-98358367D01*
X124916250Y-98293246D01*
X124003750Y-98293246D01*
X123676363Y-98358367D01*
X123398817Y-98543817D01*
X123377981Y-98575000D01*
X123181136Y-98575000D01*
X123102575Y-98457425D01*
X122904108Y-98324813D01*
X122670000Y-98278246D01*
X121170000Y-98278246D01*
X120935892Y-98324813D01*
X120737425Y-98457425D01*
X120690211Y-98528086D01*
X120680213Y-98503950D01*
X120481050Y-98304787D01*
X120220830Y-98197000D01*
X119611000Y-98197000D01*
X119434000Y-98374000D01*
X119434000Y-99338500D01*
X119454000Y-99338500D01*
X119454000Y-99446500D01*
X119434000Y-99446500D01*
X119434000Y-99466500D01*
X119326000Y-99466500D01*
X119326000Y-99446500D01*
X118149000Y-99446500D01*
X117972000Y-99623500D01*
X117972000Y-100020830D01*
X118079787Y-100281050D01*
X118278257Y-100479520D01*
X118133367Y-100696363D01*
X118068246Y-101023750D01*
X118068246Y-101511250D01*
X118133367Y-101838637D01*
X118318817Y-102116183D01*
X118580001Y-102290700D01*
X118580000Y-105119269D01*
X117438975Y-106260294D01*
X117233660Y-106175250D01*
X116527620Y-106175250D01*
X115875325Y-106445440D01*
X115376080Y-106944685D01*
X115105890Y-107596980D01*
X103334110Y-107596980D01*
X103063920Y-106944685D01*
X102564675Y-106445440D01*
X101912380Y-106175250D01*
X101206340Y-106175250D01*
X100554045Y-106445440D01*
X100054800Y-106944685D01*
X99784610Y-107596980D01*
X90549283Y-107596980D01*
X90575213Y-107571050D01*
X90683000Y-107310830D01*
X90683000Y-106701000D01*
X90506000Y-106524000D01*
X89541500Y-106524000D01*
X89433500Y-106524000D01*
X89413500Y-106524000D01*
X89413500Y-106416000D01*
X89433500Y-106416000D01*
X89433500Y-105239000D01*
X89541500Y-105239000D01*
X89541500Y-106416000D01*
X90506000Y-106416000D01*
X90683000Y-106239000D01*
X90683000Y-105629170D01*
X90575213Y-105368950D01*
X90376050Y-105169787D01*
X90115830Y-105062000D01*
X89718500Y-105062000D01*
X89541500Y-105239000D01*
X89433500Y-105239000D01*
X89256500Y-105062000D01*
X88859170Y-105062000D01*
X88598950Y-105169787D01*
X88400480Y-105368257D01*
X88183637Y-105223367D01*
X87856250Y-105158246D01*
X87368750Y-105158246D01*
X87041363Y-105223367D01*
X86763817Y-105408817D01*
X86589300Y-105670000D01*
X84818784Y-105670000D01*
X84740000Y-105654329D01*
X84661216Y-105670000D01*
X83097056Y-105670000D01*
X82879745Y-105452689D01*
X82438695Y-105270000D01*
X81961305Y-105270000D01*
X81520255Y-105452689D01*
X81182689Y-105790255D01*
X81000000Y-106231305D01*
X78650000Y-106231305D01*
X78650000Y-101684408D01*
X101441960Y-101684408D01*
X101590812Y-102032521D01*
X102397114Y-102381031D01*
X103275408Y-102394453D01*
X104091983Y-102070745D01*
X104149188Y-102032521D01*
X104298040Y-101684408D01*
X105401960Y-101684408D01*
X105550812Y-102032521D01*
X106357114Y-102381031D01*
X107235408Y-102394453D01*
X108051983Y-102070745D01*
X108109188Y-102032521D01*
X108258040Y-101684408D01*
X106830000Y-100256368D01*
X105401960Y-101684408D01*
X104298040Y-101684408D01*
X102870000Y-100256368D01*
X101441960Y-101684408D01*
X78650000Y-101684408D01*
X78650000Y-100585408D01*
X100655547Y-100585408D01*
X100979255Y-101401983D01*
X101017479Y-101459188D01*
X101365592Y-101608040D01*
X102793632Y-100180000D01*
X102946368Y-100180000D01*
X104374408Y-101608040D01*
X104722521Y-101459188D01*
X104847400Y-101170272D01*
X104939255Y-101401983D01*
X104977479Y-101459188D01*
X105325592Y-101608040D01*
X106753632Y-100180000D01*
X106906368Y-100180000D01*
X108334408Y-101608040D01*
X108682521Y-101459188D01*
X108868555Y-101028786D01*
X109009706Y-101369554D01*
X109600446Y-101960294D01*
X110372284Y-102280000D01*
X111207716Y-102280000D01*
X111979554Y-101960294D01*
X112570294Y-101369554D01*
X112770000Y-100887421D01*
X112969706Y-101369554D01*
X113560446Y-101960294D01*
X114332284Y-102280000D01*
X115167716Y-102280000D01*
X115939554Y-101960294D01*
X116530294Y-101369554D01*
X116850000Y-100597716D01*
X116850000Y-99762284D01*
X116530294Y-98990446D01*
X116304018Y-98764170D01*
X117972000Y-98764170D01*
X117972000Y-99161500D01*
X118149000Y-99338500D01*
X119326000Y-99338500D01*
X119326000Y-98374000D01*
X119149000Y-98197000D01*
X118539170Y-98197000D01*
X118278950Y-98304787D01*
X118079787Y-98503950D01*
X117972000Y-98764170D01*
X116304018Y-98764170D01*
X115939554Y-98399706D01*
X115167716Y-98080000D01*
X114332284Y-98080000D01*
X113560446Y-98399706D01*
X112969706Y-98990446D01*
X112770000Y-99472579D01*
X112570294Y-98990446D01*
X111979554Y-98399706D01*
X111207716Y-98080000D01*
X110372284Y-98080000D01*
X109600446Y-98399706D01*
X109009706Y-98990446D01*
X108868623Y-99331050D01*
X108720745Y-98958017D01*
X108682521Y-98900812D01*
X108334408Y-98751960D01*
X106906368Y-100180000D01*
X106753632Y-100180000D01*
X105325592Y-98751960D01*
X104977479Y-98900812D01*
X104852600Y-99189728D01*
X104760745Y-98958017D01*
X104722521Y-98900812D01*
X104374408Y-98751960D01*
X102946368Y-100180000D01*
X102793632Y-100180000D01*
X101365592Y-98751960D01*
X101017479Y-98900812D01*
X100668969Y-99707114D01*
X100655547Y-100585408D01*
X78650000Y-100585408D01*
X78650000Y-98675592D01*
X101441960Y-98675592D01*
X102870000Y-100103632D01*
X104298040Y-98675592D01*
X105401960Y-98675592D01*
X106830000Y-100103632D01*
X108258040Y-98675592D01*
X108109188Y-98327479D01*
X107302886Y-97978969D01*
X106424592Y-97965547D01*
X105608017Y-98289255D01*
X105550812Y-98327479D01*
X105401960Y-98675592D01*
X104298040Y-98675592D01*
X104149188Y-98327479D01*
X103342886Y-97978969D01*
X102464592Y-97965547D01*
X101648017Y-98289255D01*
X101590812Y-98327479D01*
X101441960Y-98675592D01*
X78650000Y-98675592D01*
X78650000Y-92731000D01*
X83182000Y-92731000D01*
X83182000Y-93490830D01*
X83289787Y-93751050D01*
X83488950Y-93950213D01*
X83749170Y-94058000D01*
X84509000Y-94058000D01*
X84686000Y-93881000D01*
X84686000Y-92554000D01*
X84794000Y-92554000D01*
X84794000Y-93881000D01*
X84971000Y-94058000D01*
X85730830Y-94058000D01*
X85991050Y-93950213D01*
X86190213Y-93751050D01*
X86298000Y-93490830D01*
X86298000Y-92731000D01*
X86121000Y-92554000D01*
X84794000Y-92554000D01*
X84686000Y-92554000D01*
X83359000Y-92554000D01*
X83182000Y-92731000D01*
X78650000Y-92731000D01*
X78650000Y-91509170D01*
X83182000Y-91509170D01*
X83182000Y-92269000D01*
X83359000Y-92446000D01*
X84686000Y-92446000D01*
X84686000Y-92426000D01*
X84794000Y-92426000D01*
X84794000Y-92446000D01*
X86121000Y-92446000D01*
X86298000Y-92269000D01*
X86298000Y-91509170D01*
X86190213Y-91248950D01*
X85991050Y-91049787D01*
X85806740Y-90973443D01*
X86105870Y-90525762D01*
X86218407Y-89960000D01*
X86105870Y-89394238D01*
X85789663Y-88921000D01*
X97547000Y-88921000D01*
X97547000Y-89380830D01*
X97654787Y-89641050D01*
X97853950Y-89840213D01*
X98114170Y-89948000D01*
X99468764Y-89948000D01*
X99634404Y-90102323D01*
X100241337Y-90328936D01*
X100501000Y-90173395D01*
X100501000Y-88744000D01*
X100609000Y-88744000D01*
X100609000Y-90173395D01*
X100868663Y-90328936D01*
X101475596Y-90102323D01*
X101641236Y-89948000D01*
X102995830Y-89948000D01*
X103256050Y-89840213D01*
X103455213Y-89641050D01*
X103563000Y-89380830D01*
X103563000Y-88921000D01*
X103386000Y-88744000D01*
X100609000Y-88744000D01*
X100501000Y-88744000D01*
X97724000Y-88744000D01*
X97547000Y-88921000D01*
X85789663Y-88921000D01*
X85785392Y-88914608D01*
X85449242Y-88690000D01*
X85785392Y-88465392D01*
X86105870Y-87985762D01*
X86218407Y-87420000D01*
X86200704Y-87331000D01*
X94012000Y-87331000D01*
X94012000Y-87640830D01*
X94119787Y-87901050D01*
X94318950Y-88100213D01*
X94579170Y-88208000D01*
X94939000Y-88208000D01*
X95116000Y-88031000D01*
X95116000Y-87154000D01*
X95224000Y-87154000D01*
X95224000Y-88031000D01*
X95401000Y-88208000D01*
X95760830Y-88208000D01*
X96021050Y-88100213D01*
X96220213Y-87901050D01*
X96328000Y-87640830D01*
X96328000Y-87331000D01*
X96151000Y-87154000D01*
X95224000Y-87154000D01*
X95116000Y-87154000D01*
X94189000Y-87154000D01*
X94012000Y-87331000D01*
X86200704Y-87331000D01*
X86105870Y-86854238D01*
X85908713Y-86559170D01*
X94012000Y-86559170D01*
X94012000Y-86869000D01*
X94189000Y-87046000D01*
X95116000Y-87046000D01*
X95116000Y-87026000D01*
X95224000Y-87026000D01*
X95224000Y-87046000D01*
X96151000Y-87046000D01*
X96258185Y-86938815D01*
X96287425Y-86982575D01*
X96485892Y-87115187D01*
X96720000Y-87161754D01*
X97620000Y-87161754D01*
X97815887Y-87122790D01*
X97822425Y-87132575D01*
X98020892Y-87265187D01*
X98255000Y-87311754D01*
X99451762Y-87311754D01*
X99536824Y-87368590D01*
X99468764Y-87432000D01*
X98114170Y-87432000D01*
X97853950Y-87539787D01*
X97654787Y-87738950D01*
X97547000Y-87999170D01*
X97547000Y-88459000D01*
X97724000Y-88636000D01*
X100501000Y-88636000D01*
X100501000Y-88616000D01*
X100609000Y-88616000D01*
X100609000Y-88636000D01*
X103386000Y-88636000D01*
X103563000Y-88459000D01*
X103563000Y-87999170D01*
X103455213Y-87738950D01*
X103256050Y-87539787D01*
X102995830Y-87432000D01*
X101641236Y-87432000D01*
X101573176Y-87368590D01*
X101658238Y-87311754D01*
X102855000Y-87311754D01*
X103089108Y-87265187D01*
X103287575Y-87132575D01*
X103409568Y-86950000D01*
X104393246Y-86950000D01*
X104393246Y-91550000D01*
X104439813Y-91784108D01*
X104572425Y-91982575D01*
X104770892Y-92115187D01*
X105005000Y-92161754D01*
X114405000Y-92161754D01*
X114639108Y-92115187D01*
X114837575Y-91982575D01*
X114970187Y-91784108D01*
X115016754Y-91550000D01*
X115016754Y-89581235D01*
X119565132Y-89581235D01*
X119610455Y-89841057D01*
X120109524Y-90047930D01*
X120649770Y-90048071D01*
X121148946Y-89841457D01*
X121149545Y-89841057D01*
X121194868Y-89581235D01*
X120380000Y-88766368D01*
X119565132Y-89581235D01*
X115016754Y-89581235D01*
X115016754Y-88959770D01*
X119021929Y-88959770D01*
X119228543Y-89458946D01*
X119228943Y-89459545D01*
X119488765Y-89504868D01*
X120303632Y-88690000D01*
X120456368Y-88690000D01*
X121271235Y-89504868D01*
X121531057Y-89459545D01*
X121737930Y-88960476D01*
X121738071Y-88420230D01*
X121580690Y-88040000D01*
X124118246Y-88040000D01*
X124118246Y-89340000D01*
X124164813Y-89574108D01*
X124297425Y-89772575D01*
X124495892Y-89905187D01*
X124730000Y-89951754D01*
X126030000Y-89951754D01*
X126264108Y-89905187D01*
X126462575Y-89772575D01*
X126595187Y-89574108D01*
X126641754Y-89340000D01*
X126641754Y-88040000D01*
X126595187Y-87805892D01*
X126462575Y-87607425D01*
X126264108Y-87474813D01*
X126030000Y-87428246D01*
X124730000Y-87428246D01*
X124495892Y-87474813D01*
X124297425Y-87607425D01*
X124164813Y-87805892D01*
X124118246Y-88040000D01*
X121580690Y-88040000D01*
X121531457Y-87921054D01*
X121531057Y-87920455D01*
X121271235Y-87875132D01*
X120456368Y-88690000D01*
X120303632Y-88690000D01*
X119488765Y-87875132D01*
X119228943Y-87920455D01*
X119022070Y-88419524D01*
X119021929Y-88959770D01*
X115016754Y-88959770D01*
X115016754Y-87798765D01*
X119565132Y-87798765D01*
X120380000Y-88613632D01*
X121194868Y-87798765D01*
X121149545Y-87538943D01*
X120650476Y-87332070D01*
X120110230Y-87331929D01*
X119611054Y-87538543D01*
X119610455Y-87538943D01*
X119565132Y-87798765D01*
X115016754Y-87798765D01*
X115016754Y-80750000D01*
X114970187Y-80515892D01*
X114837575Y-80317425D01*
X114639108Y-80184813D01*
X114405000Y-80138246D01*
X105005000Y-80138246D01*
X104770892Y-80184813D01*
X104572425Y-80317425D01*
X104439813Y-80515892D01*
X104393246Y-80750000D01*
X104393246Y-85350000D01*
X103409568Y-85350000D01*
X103287575Y-85167425D01*
X103089108Y-85034813D01*
X102855000Y-84988246D01*
X101992138Y-84988246D01*
X102120187Y-84796608D01*
X102125131Y-84771754D01*
X102855000Y-84771754D01*
X103089108Y-84725187D01*
X103287575Y-84592575D01*
X103420187Y-84394108D01*
X103466754Y-84160000D01*
X103466754Y-83060000D01*
X103420187Y-82825892D01*
X103287575Y-82627425D01*
X103089108Y-82494813D01*
X102855000Y-82448246D01*
X102125131Y-82448246D01*
X102120187Y-82423392D01*
X101987575Y-82224925D01*
X101789108Y-82092313D01*
X101555000Y-82045746D01*
X99555000Y-82045746D01*
X99320892Y-82092313D01*
X99122425Y-82224925D01*
X98989813Y-82423392D01*
X98984869Y-82448246D01*
X98255000Y-82448246D01*
X98020892Y-82494813D01*
X97822425Y-82627425D01*
X97700432Y-82810000D01*
X97588789Y-82810000D01*
X97510000Y-82794328D01*
X97197855Y-82856417D01*
X97081347Y-82934266D01*
X96933233Y-83033233D01*
X96888602Y-83100028D01*
X95770456Y-84218174D01*
X95620000Y-84188246D01*
X94720000Y-84188246D01*
X94485892Y-84234813D01*
X94287425Y-84367425D01*
X94154813Y-84565892D01*
X94108246Y-84800000D01*
X94108246Y-85600000D01*
X94154813Y-85834108D01*
X94287425Y-86032575D01*
X94361585Y-86082127D01*
X94318950Y-86099787D01*
X94119787Y-86298950D01*
X94012000Y-86559170D01*
X85908713Y-86559170D01*
X85785392Y-86374608D01*
X85305762Y-86054130D01*
X84882812Y-85970000D01*
X84597188Y-85970000D01*
X84174238Y-86054130D01*
X83694608Y-86374608D01*
X83374130Y-86854238D01*
X83261593Y-87420000D01*
X83374130Y-87985762D01*
X83694608Y-88465392D01*
X84030758Y-88690000D01*
X83694608Y-88914608D01*
X83374130Y-89394238D01*
X83261593Y-89960000D01*
X83374130Y-90525762D01*
X83673260Y-90973443D01*
X83488950Y-91049787D01*
X83289787Y-91248950D01*
X83182000Y-91509170D01*
X78650000Y-91509170D01*
X78650000Y-82571000D01*
X83182000Y-82571000D01*
X83182000Y-83330830D01*
X83289787Y-83591050D01*
X83488950Y-83790213D01*
X83749170Y-83898000D01*
X84509000Y-83898000D01*
X84686000Y-83721000D01*
X84686000Y-82394000D01*
X84794000Y-82394000D01*
X84794000Y-83721000D01*
X84971000Y-83898000D01*
X85730830Y-83898000D01*
X85991050Y-83790213D01*
X86190213Y-83591050D01*
X86298000Y-83330830D01*
X86298000Y-82571000D01*
X86121000Y-82394000D01*
X84794000Y-82394000D01*
X84686000Y-82394000D01*
X83359000Y-82394000D01*
X83182000Y-82571000D01*
X78650000Y-82571000D01*
X78650000Y-81349170D01*
X83182000Y-81349170D01*
X83182000Y-82109000D01*
X83359000Y-82286000D01*
X84686000Y-82286000D01*
X84686000Y-82266000D01*
X84794000Y-82266000D01*
X84794000Y-82286000D01*
X86121000Y-82286000D01*
X86298000Y-82109000D01*
X86298000Y-81349170D01*
X86190213Y-81088950D01*
X85991050Y-80889787D01*
X85806740Y-80813443D01*
X86105870Y-80365762D01*
X86218407Y-79800000D01*
X86105870Y-79234238D01*
X85785392Y-78754608D01*
X85449242Y-78530000D01*
X85785392Y-78305392D01*
X86105870Y-77825762D01*
X86218407Y-77260000D01*
X86105870Y-76694238D01*
X85789663Y-76221000D01*
X97547000Y-76221000D01*
X97547000Y-76680830D01*
X97654787Y-76941050D01*
X97853950Y-77140213D01*
X98114170Y-77248000D01*
X99468764Y-77248000D01*
X99634404Y-77402323D01*
X100241337Y-77628936D01*
X100501000Y-77473395D01*
X100501000Y-76044000D01*
X100609000Y-76044000D01*
X100609000Y-77473395D01*
X100868663Y-77628936D01*
X101475596Y-77402323D01*
X101641236Y-77248000D01*
X102995830Y-77248000D01*
X103256050Y-77140213D01*
X103455213Y-76941050D01*
X103563000Y-76680830D01*
X103563000Y-76221000D01*
X103386000Y-76044000D01*
X100609000Y-76044000D01*
X100501000Y-76044000D01*
X97724000Y-76044000D01*
X97547000Y-76221000D01*
X85789663Y-76221000D01*
X85785392Y-76214608D01*
X85305762Y-75894130D01*
X84882812Y-75810000D01*
X84597188Y-75810000D01*
X84174238Y-75894130D01*
X83694608Y-76214608D01*
X83374130Y-76694238D01*
X83261593Y-77260000D01*
X83374130Y-77825762D01*
X83694608Y-78305392D01*
X84030758Y-78530000D01*
X83694608Y-78754608D01*
X83374130Y-79234238D01*
X83261593Y-79800000D01*
X83374130Y-80365762D01*
X83673260Y-80813443D01*
X83488950Y-80889787D01*
X83289787Y-81088950D01*
X83182000Y-81349170D01*
X78650000Y-81349170D01*
X78650000Y-74631000D01*
X94012000Y-74631000D01*
X94012000Y-74940830D01*
X94119787Y-75201050D01*
X94318950Y-75400213D01*
X94579170Y-75508000D01*
X94939000Y-75508000D01*
X95116000Y-75331000D01*
X95116000Y-74454000D01*
X95224000Y-74454000D01*
X95224000Y-75331000D01*
X95401000Y-75508000D01*
X95760830Y-75508000D01*
X96021050Y-75400213D01*
X96220213Y-75201050D01*
X96328000Y-74940830D01*
X96328000Y-74631000D01*
X96151000Y-74454000D01*
X95224000Y-74454000D01*
X95116000Y-74454000D01*
X94189000Y-74454000D01*
X94012000Y-74631000D01*
X78650000Y-74631000D01*
X78650000Y-73859170D01*
X94012000Y-73859170D01*
X94012000Y-74169000D01*
X94189000Y-74346000D01*
X95116000Y-74346000D01*
X95116000Y-74326000D01*
X95224000Y-74326000D01*
X95224000Y-74346000D01*
X96151000Y-74346000D01*
X96258185Y-74238815D01*
X96287425Y-74282575D01*
X96485892Y-74415187D01*
X96720000Y-74461754D01*
X97620000Y-74461754D01*
X97815887Y-74422790D01*
X97822425Y-74432575D01*
X98020892Y-74565187D01*
X98255000Y-74611754D01*
X99451762Y-74611754D01*
X99536824Y-74668590D01*
X99468764Y-74732000D01*
X98114170Y-74732000D01*
X97853950Y-74839787D01*
X97654787Y-75038950D01*
X97547000Y-75299170D01*
X97547000Y-75759000D01*
X97724000Y-75936000D01*
X100501000Y-75936000D01*
X100501000Y-75916000D01*
X100609000Y-75916000D01*
X100609000Y-75936000D01*
X103386000Y-75936000D01*
X103563000Y-75759000D01*
X103563000Y-75299170D01*
X103455213Y-75038950D01*
X103256050Y-74839787D01*
X102995830Y-74732000D01*
X101641236Y-74732000D01*
X101573176Y-74668590D01*
X101658238Y-74611754D01*
X102855000Y-74611754D01*
X103089108Y-74565187D01*
X103287575Y-74432575D01*
X103409568Y-74250000D01*
X104393246Y-74250000D01*
X104393246Y-78850000D01*
X104439813Y-79084108D01*
X104572425Y-79282575D01*
X104770892Y-79415187D01*
X105005000Y-79461754D01*
X114405000Y-79461754D01*
X114639108Y-79415187D01*
X114837575Y-79282575D01*
X114901337Y-79187148D01*
X121015000Y-79187148D01*
X121015000Y-79972852D01*
X121315675Y-80698748D01*
X121871252Y-81254325D01*
X122597148Y-81555000D01*
X123382852Y-81555000D01*
X124108748Y-81254325D01*
X124664325Y-80698748D01*
X124965000Y-79972852D01*
X124965000Y-79187148D01*
X124664325Y-78461252D01*
X124108748Y-77905675D01*
X123382852Y-77605000D01*
X122597148Y-77605000D01*
X121871252Y-77905675D01*
X121315675Y-78461252D01*
X121015000Y-79187148D01*
X114901337Y-79187148D01*
X114970187Y-79084108D01*
X115016754Y-78850000D01*
X115016754Y-75227148D01*
X121015000Y-75227148D01*
X121015000Y-76012852D01*
X121315675Y-76738748D01*
X121871252Y-77294325D01*
X122597148Y-77595000D01*
X123382852Y-77595000D01*
X124108748Y-77294325D01*
X124664325Y-76738748D01*
X124965000Y-76012852D01*
X124965000Y-75227148D01*
X124664325Y-74501252D01*
X124108748Y-73945675D01*
X123382852Y-73645000D01*
X122597148Y-73645000D01*
X121871252Y-73945675D01*
X121315675Y-74501252D01*
X121015000Y-75227148D01*
X115016754Y-75227148D01*
X115016754Y-71267148D01*
X121015000Y-71267148D01*
X121015000Y-72052852D01*
X121315675Y-72778748D01*
X121871252Y-73334325D01*
X122597148Y-73635000D01*
X123382852Y-73635000D01*
X124108748Y-73334325D01*
X124664325Y-72778748D01*
X124965000Y-72052852D01*
X124965000Y-71267148D01*
X124664325Y-70541252D01*
X124108748Y-69985675D01*
X123382852Y-69685000D01*
X122597148Y-69685000D01*
X121871252Y-69985675D01*
X121315675Y-70541252D01*
X121015000Y-71267148D01*
X115016754Y-71267148D01*
X115016754Y-68050000D01*
X114970187Y-67815892D01*
X114837575Y-67617425D01*
X114639108Y-67484813D01*
X114405000Y-67438246D01*
X105005000Y-67438246D01*
X104770892Y-67484813D01*
X104572425Y-67617425D01*
X104439813Y-67815892D01*
X104393246Y-68050000D01*
X104393246Y-72650000D01*
X103409568Y-72650000D01*
X103287575Y-72467425D01*
X103089108Y-72334813D01*
X102855000Y-72288246D01*
X101992138Y-72288246D01*
X102120187Y-72096608D01*
X102125131Y-72071754D01*
X102855000Y-72071754D01*
X103089108Y-72025187D01*
X103287575Y-71892575D01*
X103420187Y-71694108D01*
X103466754Y-71460000D01*
X103466754Y-70360000D01*
X103420187Y-70125892D01*
X103287575Y-69927425D01*
X103089108Y-69794813D01*
X102855000Y-69748246D01*
X102125131Y-69748246D01*
X102120187Y-69723392D01*
X101987575Y-69524925D01*
X101789108Y-69392313D01*
X101555000Y-69345746D01*
X99555000Y-69345746D01*
X99320892Y-69392313D01*
X99122425Y-69524925D01*
X98989813Y-69723392D01*
X98984869Y-69748246D01*
X98255000Y-69748246D01*
X98020892Y-69794813D01*
X97822425Y-69927425D01*
X97700432Y-70110000D01*
X97588789Y-70110000D01*
X97510000Y-70094328D01*
X97197855Y-70156417D01*
X97124006Y-70205762D01*
X96933233Y-70333233D01*
X96888602Y-70400028D01*
X95770456Y-71518174D01*
X95620000Y-71488246D01*
X94720000Y-71488246D01*
X94485892Y-71534813D01*
X94287425Y-71667425D01*
X94154813Y-71865892D01*
X94108246Y-72100000D01*
X94108246Y-72900000D01*
X94154813Y-73134108D01*
X94287425Y-73332575D01*
X94361585Y-73382127D01*
X94318950Y-73399787D01*
X94119787Y-73598950D01*
X94012000Y-73859170D01*
X78650000Y-73859170D01*
X78650000Y-72411000D01*
X83182000Y-72411000D01*
X83182000Y-73170830D01*
X83289787Y-73431050D01*
X83488950Y-73630213D01*
X83749170Y-73738000D01*
X84509000Y-73738000D01*
X84686000Y-73561000D01*
X84686000Y-72234000D01*
X84794000Y-72234000D01*
X84794000Y-73561000D01*
X84971000Y-73738000D01*
X85730830Y-73738000D01*
X85991050Y-73630213D01*
X86190213Y-73431050D01*
X86298000Y-73170830D01*
X86298000Y-72411000D01*
X86121000Y-72234000D01*
X84794000Y-72234000D01*
X84686000Y-72234000D01*
X83359000Y-72234000D01*
X83182000Y-72411000D01*
X78650000Y-72411000D01*
X78650000Y-71189170D01*
X83182000Y-71189170D01*
X83182000Y-71949000D01*
X83359000Y-72126000D01*
X84686000Y-72126000D01*
X84686000Y-72106000D01*
X84794000Y-72106000D01*
X84794000Y-72126000D01*
X86121000Y-72126000D01*
X86298000Y-71949000D01*
X86298000Y-71189170D01*
X86190213Y-70928950D01*
X85991050Y-70729787D01*
X85806740Y-70653443D01*
X86105870Y-70205762D01*
X86218407Y-69640000D01*
X86105870Y-69074238D01*
X85785392Y-68594608D01*
X85449242Y-68370000D01*
X85785392Y-68145392D01*
X86105870Y-67665762D01*
X86177202Y-67307148D01*
X121015000Y-67307148D01*
X121015000Y-68092852D01*
X121315675Y-68818748D01*
X121871252Y-69374325D01*
X122597148Y-69675000D01*
X123382852Y-69675000D01*
X124108748Y-69374325D01*
X124664325Y-68818748D01*
X124965000Y-68092852D01*
X124965000Y-67307148D01*
X124664325Y-66581252D01*
X124108748Y-66025675D01*
X123382852Y-65725000D01*
X122597148Y-65725000D01*
X121871252Y-66025675D01*
X121315675Y-66581252D01*
X121015000Y-67307148D01*
X86177202Y-67307148D01*
X86218407Y-67100000D01*
X86105870Y-66534238D01*
X85785392Y-66054608D01*
X85305762Y-65734130D01*
X84882812Y-65650000D01*
X84597188Y-65650000D01*
X84174238Y-65734130D01*
X83694608Y-66054608D01*
X83374130Y-66534238D01*
X83261593Y-67100000D01*
X83374130Y-67665762D01*
X83694608Y-68145392D01*
X84030758Y-68370000D01*
X83694608Y-68594608D01*
X83374130Y-69074238D01*
X83261593Y-69640000D01*
X83374130Y-70205762D01*
X83673260Y-70653443D01*
X83488950Y-70729787D01*
X83289787Y-70928950D01*
X83182000Y-71189170D01*
X78650000Y-71189170D01*
X78650000Y-63521000D01*
X97547000Y-63521000D01*
X97547000Y-63980830D01*
X97654787Y-64241050D01*
X97853950Y-64440213D01*
X98114170Y-64548000D01*
X99468764Y-64548000D01*
X99634404Y-64702323D01*
X100241337Y-64928936D01*
X100501000Y-64773395D01*
X100501000Y-63344000D01*
X100609000Y-63344000D01*
X100609000Y-64773395D01*
X100868663Y-64928936D01*
X101475596Y-64702323D01*
X101641236Y-64548000D01*
X102995830Y-64548000D01*
X103256050Y-64440213D01*
X103455213Y-64241050D01*
X103563000Y-63980830D01*
X103563000Y-63521000D01*
X103386000Y-63344000D01*
X100609000Y-63344000D01*
X100501000Y-63344000D01*
X97724000Y-63344000D01*
X97547000Y-63521000D01*
X78650000Y-63521000D01*
X78650000Y-61931000D01*
X94012000Y-61931000D01*
X94012000Y-62240830D01*
X94119787Y-62501050D01*
X94318950Y-62700213D01*
X94579170Y-62808000D01*
X94939000Y-62808000D01*
X95116000Y-62631000D01*
X95116000Y-61754000D01*
X95224000Y-61754000D01*
X95224000Y-62631000D01*
X95401000Y-62808000D01*
X95760830Y-62808000D01*
X96021050Y-62700213D01*
X96220213Y-62501050D01*
X96328000Y-62240830D01*
X96328000Y-61931000D01*
X96151000Y-61754000D01*
X95224000Y-61754000D01*
X95116000Y-61754000D01*
X94189000Y-61754000D01*
X94012000Y-61931000D01*
X78650000Y-61931000D01*
X78650000Y-61159170D01*
X94012000Y-61159170D01*
X94012000Y-61469000D01*
X94189000Y-61646000D01*
X95116000Y-61646000D01*
X95116000Y-61626000D01*
X95224000Y-61626000D01*
X95224000Y-61646000D01*
X96151000Y-61646000D01*
X96258185Y-61538815D01*
X96287425Y-61582575D01*
X96485892Y-61715187D01*
X96720000Y-61761754D01*
X97620000Y-61761754D01*
X97815887Y-61722790D01*
X97822425Y-61732575D01*
X98020892Y-61865187D01*
X98255000Y-61911754D01*
X99451762Y-61911754D01*
X99536824Y-61968590D01*
X99468764Y-62032000D01*
X98114170Y-62032000D01*
X97853950Y-62139787D01*
X97654787Y-62338950D01*
X97547000Y-62599170D01*
X97547000Y-63059000D01*
X97724000Y-63236000D01*
X100501000Y-63236000D01*
X100501000Y-63216000D01*
X100609000Y-63216000D01*
X100609000Y-63236000D01*
X103386000Y-63236000D01*
X103563000Y-63059000D01*
X103563000Y-62599170D01*
X103455213Y-62338950D01*
X103256050Y-62139787D01*
X102995830Y-62032000D01*
X101641236Y-62032000D01*
X101573176Y-61968590D01*
X101658238Y-61911754D01*
X102855000Y-61911754D01*
X103089108Y-61865187D01*
X103287575Y-61732575D01*
X103409568Y-61550000D01*
X104393246Y-61550000D01*
X104393246Y-66150000D01*
X104439813Y-66384108D01*
X104572425Y-66582575D01*
X104770892Y-66715187D01*
X105005000Y-66761754D01*
X114405000Y-66761754D01*
X114639108Y-66715187D01*
X114837575Y-66582575D01*
X114970187Y-66384108D01*
X115016754Y-66150000D01*
X115016754Y-63347148D01*
X121015000Y-63347148D01*
X121015000Y-64132852D01*
X121315675Y-64858748D01*
X121871252Y-65414325D01*
X122597148Y-65715000D01*
X123382852Y-65715000D01*
X124108748Y-65414325D01*
X124664325Y-64858748D01*
X124965000Y-64132852D01*
X124965000Y-63347148D01*
X124664325Y-62621252D01*
X124108748Y-62065675D01*
X123382852Y-61765000D01*
X122597148Y-61765000D01*
X121871252Y-62065675D01*
X121315675Y-62621252D01*
X121015000Y-63347148D01*
X115016754Y-63347148D01*
X115016754Y-59387148D01*
X121015000Y-59387148D01*
X121015000Y-60172852D01*
X121315675Y-60898748D01*
X121871252Y-61454325D01*
X122597148Y-61755000D01*
X123382852Y-61755000D01*
X124108748Y-61454325D01*
X124664325Y-60898748D01*
X124965000Y-60172852D01*
X124965000Y-59387148D01*
X124664325Y-58661252D01*
X124108748Y-58105675D01*
X123382852Y-57805000D01*
X122597148Y-57805000D01*
X121871252Y-58105675D01*
X121315675Y-58661252D01*
X121015000Y-59387148D01*
X115016754Y-59387148D01*
X115016754Y-55427148D01*
X121015000Y-55427148D01*
X121015000Y-56212852D01*
X121315675Y-56938748D01*
X121871252Y-57494325D01*
X122597148Y-57795000D01*
X123382852Y-57795000D01*
X124108748Y-57494325D01*
X124664325Y-56938748D01*
X124965000Y-56212852D01*
X124965000Y-55427148D01*
X124664325Y-54701252D01*
X124108748Y-54145675D01*
X123382852Y-53845000D01*
X122597148Y-53845000D01*
X121871252Y-54145675D01*
X121315675Y-54701252D01*
X121015000Y-55427148D01*
X115016754Y-55427148D01*
X115016754Y-55350000D01*
X114970187Y-55115892D01*
X114837575Y-54917425D01*
X114639108Y-54784813D01*
X114405000Y-54738246D01*
X105005000Y-54738246D01*
X104770892Y-54784813D01*
X104572425Y-54917425D01*
X104439813Y-55115892D01*
X104393246Y-55350000D01*
X104393246Y-59950000D01*
X103409568Y-59950000D01*
X103287575Y-59767425D01*
X103089108Y-59634813D01*
X102855000Y-59588246D01*
X101992138Y-59588246D01*
X102120187Y-59396608D01*
X102125131Y-59371754D01*
X102855000Y-59371754D01*
X103089108Y-59325187D01*
X103287575Y-59192575D01*
X103420187Y-58994108D01*
X103466754Y-58760000D01*
X103466754Y-57660000D01*
X103420187Y-57425892D01*
X103287575Y-57227425D01*
X103089108Y-57094813D01*
X102855000Y-57048246D01*
X102125131Y-57048246D01*
X102120187Y-57023392D01*
X101987575Y-56824925D01*
X101789108Y-56692313D01*
X101555000Y-56645746D01*
X99555000Y-56645746D01*
X99320892Y-56692313D01*
X99122425Y-56824925D01*
X98989813Y-57023392D01*
X98984869Y-57048246D01*
X98255000Y-57048246D01*
X98020892Y-57094813D01*
X97822425Y-57227425D01*
X97700432Y-57410000D01*
X96888789Y-57410000D01*
X96810000Y-57394328D01*
X96497855Y-57456417D01*
X96381347Y-57534266D01*
X96233233Y-57633233D01*
X96188602Y-57700028D01*
X95100384Y-58788246D01*
X94720000Y-58788246D01*
X94485892Y-58834813D01*
X94287425Y-58967425D01*
X94154813Y-59165892D01*
X94108246Y-59400000D01*
X94108246Y-60200000D01*
X94154813Y-60434108D01*
X94287425Y-60632575D01*
X94361585Y-60682127D01*
X94318950Y-60699787D01*
X94119787Y-60898950D01*
X94012000Y-61159170D01*
X78650000Y-61159170D01*
X78650000Y-50821000D01*
X97547000Y-50821000D01*
X97547000Y-51280830D01*
X97654787Y-51541050D01*
X97853950Y-51740213D01*
X98114170Y-51848000D01*
X99468764Y-51848000D01*
X99634404Y-52002323D01*
X100241337Y-52228936D01*
X100501000Y-52073395D01*
X100501000Y-50644000D01*
X100609000Y-50644000D01*
X100609000Y-52073395D01*
X100868663Y-52228936D01*
X101475596Y-52002323D01*
X101641236Y-51848000D01*
X102995830Y-51848000D01*
X103256050Y-51740213D01*
X103455213Y-51541050D01*
X103563000Y-51280830D01*
X103563000Y-50821000D01*
X103386000Y-50644000D01*
X100609000Y-50644000D01*
X100501000Y-50644000D01*
X97724000Y-50644000D01*
X97547000Y-50821000D01*
X78650000Y-50821000D01*
X78650000Y-49231000D01*
X94012000Y-49231000D01*
X94012000Y-49540830D01*
X94119787Y-49801050D01*
X94318950Y-50000213D01*
X94579170Y-50108000D01*
X94939000Y-50108000D01*
X95116000Y-49931000D01*
X95116000Y-49054000D01*
X95224000Y-49054000D01*
X95224000Y-49931000D01*
X95401000Y-50108000D01*
X95760830Y-50108000D01*
X96021050Y-50000213D01*
X96220213Y-49801050D01*
X96328000Y-49540830D01*
X96328000Y-49231000D01*
X96151000Y-49054000D01*
X95224000Y-49054000D01*
X95116000Y-49054000D01*
X94189000Y-49054000D01*
X94012000Y-49231000D01*
X78650000Y-49231000D01*
X78650000Y-46562393D01*
X81800000Y-46562393D01*
X81800000Y-47437607D01*
X82134930Y-48246200D01*
X82753800Y-48865070D01*
X83562393Y-49200000D01*
X84437607Y-49200000D01*
X85246200Y-48865070D01*
X85652100Y-48459170D01*
X94012000Y-48459170D01*
X94012000Y-48769000D01*
X94189000Y-48946000D01*
X95116000Y-48946000D01*
X95116000Y-48926000D01*
X95224000Y-48926000D01*
X95224000Y-48946000D01*
X96151000Y-48946000D01*
X96258185Y-48838815D01*
X96287425Y-48882575D01*
X96485892Y-49015187D01*
X96720000Y-49061754D01*
X97620000Y-49061754D01*
X97815887Y-49022790D01*
X97822425Y-49032575D01*
X98020892Y-49165187D01*
X98255000Y-49211754D01*
X99451762Y-49211754D01*
X99536824Y-49268590D01*
X99468764Y-49332000D01*
X98114170Y-49332000D01*
X97853950Y-49439787D01*
X97654787Y-49638950D01*
X97547000Y-49899170D01*
X97547000Y-50359000D01*
X97724000Y-50536000D01*
X100501000Y-50536000D01*
X100501000Y-50516000D01*
X100609000Y-50516000D01*
X100609000Y-50536000D01*
X103386000Y-50536000D01*
X103563000Y-50359000D01*
X103563000Y-49899170D01*
X103455213Y-49638950D01*
X103256050Y-49439787D01*
X102995830Y-49332000D01*
X101641236Y-49332000D01*
X101573176Y-49268590D01*
X101658238Y-49211754D01*
X102855000Y-49211754D01*
X103089108Y-49165187D01*
X103287575Y-49032575D01*
X103409568Y-48850000D01*
X104393246Y-48850000D01*
X104393246Y-53450000D01*
X104439813Y-53684108D01*
X104572425Y-53882575D01*
X104770892Y-54015187D01*
X105005000Y-54061754D01*
X114405000Y-54061754D01*
X114639108Y-54015187D01*
X114837575Y-53882575D01*
X114970187Y-53684108D01*
X115016754Y-53450000D01*
X115016754Y-51467148D01*
X121015000Y-51467148D01*
X121015000Y-52252852D01*
X121315675Y-52978748D01*
X121871252Y-53534325D01*
X122597148Y-53835000D01*
X123382852Y-53835000D01*
X124108748Y-53534325D01*
X124664325Y-52978748D01*
X124965000Y-52252852D01*
X124965000Y-51467148D01*
X124664325Y-50741252D01*
X124108748Y-50185675D01*
X123382852Y-49885000D01*
X122597148Y-49885000D01*
X121871252Y-50185675D01*
X121315675Y-50741252D01*
X121015000Y-51467148D01*
X115016754Y-51467148D01*
X115016754Y-46562393D01*
X127800000Y-46562393D01*
X127800000Y-47437607D01*
X128134930Y-48246200D01*
X128753800Y-48865070D01*
X129562393Y-49200000D01*
X130437607Y-49200000D01*
X131246200Y-48865070D01*
X131865070Y-48246200D01*
X132200000Y-47437607D01*
X132200000Y-46562393D01*
X131865070Y-45753800D01*
X131246200Y-45134930D01*
X130437607Y-44800000D01*
X129562393Y-44800000D01*
X128753800Y-45134930D01*
X128134930Y-45753800D01*
X127800000Y-46562393D01*
X115016754Y-46562393D01*
X115016754Y-42650000D01*
X114970187Y-42415892D01*
X114837575Y-42217425D01*
X114639108Y-42084813D01*
X114405000Y-42038246D01*
X105005000Y-42038246D01*
X104770892Y-42084813D01*
X104572425Y-42217425D01*
X104439813Y-42415892D01*
X104393246Y-42650000D01*
X104393246Y-47250000D01*
X103409568Y-47250000D01*
X103287575Y-47067425D01*
X103089108Y-46934813D01*
X102855000Y-46888246D01*
X101992138Y-46888246D01*
X102120187Y-46696608D01*
X102125131Y-46671754D01*
X102855000Y-46671754D01*
X103089108Y-46625187D01*
X103287575Y-46492575D01*
X103420187Y-46294108D01*
X103466754Y-46060000D01*
X103466754Y-44960000D01*
X103420187Y-44725892D01*
X103287575Y-44527425D01*
X103089108Y-44394813D01*
X102855000Y-44348246D01*
X102125131Y-44348246D01*
X102120187Y-44323392D01*
X101987575Y-44124925D01*
X101789108Y-43992313D01*
X101555000Y-43945746D01*
X99555000Y-43945746D01*
X99320892Y-43992313D01*
X99122425Y-44124925D01*
X98989813Y-44323392D01*
X98984869Y-44348246D01*
X98255000Y-44348246D01*
X98020892Y-44394813D01*
X97822425Y-44527425D01*
X97700432Y-44710000D01*
X96138783Y-44710000D01*
X96059999Y-44694329D01*
X95981215Y-44710000D01*
X95981211Y-44710000D01*
X95747856Y-44756417D01*
X95687646Y-44796648D01*
X95565289Y-44878405D01*
X95483233Y-44933233D01*
X95438603Y-45000026D01*
X94660026Y-45778604D01*
X94593234Y-45823233D01*
X94548605Y-45890025D01*
X94548603Y-45890027D01*
X94435031Y-46060000D01*
X94416418Y-46087856D01*
X94394996Y-46195548D01*
X94287425Y-46267425D01*
X94154813Y-46465892D01*
X94108246Y-46700000D01*
X94108246Y-47500000D01*
X94154813Y-47734108D01*
X94287425Y-47932575D01*
X94361585Y-47982127D01*
X94318950Y-47999787D01*
X94119787Y-48198950D01*
X94012000Y-48459170D01*
X85652100Y-48459170D01*
X85865070Y-48246200D01*
X86200000Y-47437607D01*
X86200000Y-46562393D01*
X85865070Y-45753800D01*
X85246200Y-45134930D01*
X84437607Y-44800000D01*
X83562393Y-44800000D01*
X82753800Y-45134930D01*
X82134930Y-45753800D01*
X81800000Y-46562393D01*
X78650000Y-46562393D01*
X78650000Y-46028951D01*
X78721292Y-45230136D01*
X78925245Y-44484611D01*
X79257995Y-43786987D01*
X79709026Y-43159311D01*
X80264085Y-42621421D01*
X80905618Y-42190329D01*
X81613354Y-41879655D01*
X82369917Y-41698020D01*
X83023829Y-41650000D01*
X130971049Y-41650000D01*
X131769864Y-41721292D01*
X131769864Y-41721292D01*
G37*
X131769864Y-41721292D02*
X132515389Y-41925245D01*
X133213013Y-42257995D01*
X133840689Y-42709026D01*
X134378579Y-43264085D01*
X134809671Y-43905618D01*
X135120345Y-44613354D01*
X135301980Y-45369917D01*
X135350000Y-46023829D01*
X135350001Y-164971038D01*
X135278708Y-165769865D01*
X135074755Y-166515389D01*
X134742005Y-167213013D01*
X134290972Y-167840692D01*
X133735916Y-168378579D01*
X133094383Y-168809670D01*
X132386650Y-169120344D01*
X131630083Y-169301980D01*
X130976171Y-169350000D01*
X83028951Y-169350000D01*
X82230135Y-169278708D01*
X81484611Y-169074755D01*
X80786987Y-168742005D01*
X80159308Y-168290972D01*
X79621421Y-167735916D01*
X79190330Y-167094383D01*
X78879656Y-166386650D01*
X78698020Y-165630083D01*
X78650000Y-164976171D01*
X78650000Y-163562393D01*
X81800000Y-163562393D01*
X81800000Y-164437607D01*
X82134930Y-165246200D01*
X82753800Y-165865070D01*
X83562393Y-166200000D01*
X84437607Y-166200000D01*
X85246200Y-165865070D01*
X85865070Y-165246200D01*
X85916929Y-165121000D01*
X97547000Y-165121000D01*
X97547000Y-165580830D01*
X97654787Y-165841050D01*
X97853950Y-166040213D01*
X98114170Y-166148000D01*
X99468764Y-166148000D01*
X99634404Y-166302323D01*
X100241337Y-166528936D01*
X100501000Y-166373395D01*
X100501000Y-164944000D01*
X100609000Y-164944000D01*
X100609000Y-166373395D01*
X100868663Y-166528936D01*
X101475596Y-166302323D01*
X101641236Y-166148000D01*
X102995830Y-166148000D01*
X103256050Y-166040213D01*
X103455213Y-165841050D01*
X103563000Y-165580830D01*
X103563000Y-165121000D01*
X103386000Y-164944000D01*
X100609000Y-164944000D01*
X100501000Y-164944000D01*
X97724000Y-164944000D01*
X97547000Y-165121000D01*
X85916929Y-165121000D01*
X86200000Y-164437607D01*
X86200000Y-163562393D01*
X86186997Y-163531000D01*
X94012000Y-163531000D01*
X94012000Y-163840830D01*
X94119787Y-164101050D01*
X94318950Y-164300213D01*
X94579170Y-164408000D01*
X94939000Y-164408000D01*
X95116000Y-164231000D01*
X95116000Y-163354000D01*
X95224000Y-163354000D01*
X95224000Y-164231000D01*
X95401000Y-164408000D01*
X95760830Y-164408000D01*
X96021050Y-164300213D01*
X96220213Y-164101050D01*
X96328000Y-163840830D01*
X96328000Y-163531000D01*
X96151000Y-163354000D01*
X95224000Y-163354000D01*
X95116000Y-163354000D01*
X94189000Y-163354000D01*
X94012000Y-163531000D01*
X86186997Y-163531000D01*
X85867295Y-162759170D01*
X94012000Y-162759170D01*
X94012000Y-163069000D01*
X94189000Y-163246000D01*
X95116000Y-163246000D01*
X95116000Y-163226000D01*
X95224000Y-163226000D01*
X95224000Y-163246000D01*
X96151000Y-163246000D01*
X96258185Y-163138815D01*
X96287425Y-163182575D01*
X96485892Y-163315187D01*
X96720000Y-163361754D01*
X97620000Y-163361754D01*
X97815887Y-163322790D01*
X97822425Y-163332575D01*
X98020892Y-163465187D01*
X98255000Y-163511754D01*
X99451762Y-163511754D01*
X99536824Y-163568590D01*
X99468764Y-163632000D01*
X98114170Y-163632000D01*
X97853950Y-163739787D01*
X97654787Y-163938950D01*
X97547000Y-164199170D01*
X97547000Y-164659000D01*
X97724000Y-164836000D01*
X100501000Y-164836000D01*
X100501000Y-164816000D01*
X100609000Y-164816000D01*
X100609000Y-164836000D01*
X103386000Y-164836000D01*
X103563000Y-164659000D01*
X103563000Y-164199170D01*
X103455213Y-163938950D01*
X103256050Y-163739787D01*
X102995830Y-163632000D01*
X101641236Y-163632000D01*
X101573176Y-163568590D01*
X101658238Y-163511754D01*
X102855000Y-163511754D01*
X103089108Y-163465187D01*
X103287575Y-163332575D01*
X103409568Y-163150000D01*
X104393246Y-163150000D01*
X104393246Y-167750000D01*
X104439813Y-167984108D01*
X104572425Y-168182575D01*
X104770892Y-168315187D01*
X105005000Y-168361754D01*
X114405000Y-168361754D01*
X114639108Y-168315187D01*
X114837575Y-168182575D01*
X114970187Y-167984108D01*
X115016754Y-167750000D01*
X115016754Y-163562393D01*
X127800000Y-163562393D01*
X127800000Y-164437607D01*
X128134930Y-165246200D01*
X128753800Y-165865070D01*
X129562393Y-166200000D01*
X130437607Y-166200000D01*
X131246200Y-165865070D01*
X131865070Y-165246200D01*
X132200000Y-164437607D01*
X132200000Y-163562393D01*
X131865070Y-162753800D01*
X131246200Y-162134930D01*
X130437607Y-161800000D01*
X129562393Y-161800000D01*
X128753800Y-162134930D01*
X128134930Y-162753800D01*
X127800000Y-163562393D01*
X115016754Y-163562393D01*
X115016754Y-159197148D01*
X121015000Y-159197148D01*
X121015000Y-159982852D01*
X121315675Y-160708748D01*
X121871252Y-161264325D01*
X122597148Y-161565000D01*
X123382852Y-161565000D01*
X124108748Y-161264325D01*
X124664325Y-160708748D01*
X124965000Y-159982852D01*
X124965000Y-159197148D01*
X124664325Y-158471252D01*
X124108748Y-157915675D01*
X123382852Y-157615000D01*
X122597148Y-157615000D01*
X121871252Y-157915675D01*
X121315675Y-158471252D01*
X121015000Y-159197148D01*
X115016754Y-159197148D01*
X115016754Y-156950000D01*
X114970187Y-156715892D01*
X114837575Y-156517425D01*
X114639108Y-156384813D01*
X114405000Y-156338246D01*
X105005000Y-156338246D01*
X104770892Y-156384813D01*
X104572425Y-156517425D01*
X104439813Y-156715892D01*
X104393246Y-156950000D01*
X104393246Y-161550000D01*
X103409568Y-161550000D01*
X103287575Y-161367425D01*
X103089108Y-161234813D01*
X102855000Y-161188246D01*
X101992138Y-161188246D01*
X102120187Y-160996608D01*
X102125131Y-160971754D01*
X102855000Y-160971754D01*
X103089108Y-160925187D01*
X103287575Y-160792575D01*
X103420187Y-160594108D01*
X103466754Y-160360000D01*
X103466754Y-159260000D01*
X103420187Y-159025892D01*
X103287575Y-158827425D01*
X103089108Y-158694813D01*
X102855000Y-158648246D01*
X102125131Y-158648246D01*
X102120187Y-158623392D01*
X101987575Y-158424925D01*
X101789108Y-158292313D01*
X101555000Y-158245746D01*
X99555000Y-158245746D01*
X99320892Y-158292313D01*
X99122425Y-158424925D01*
X98989813Y-158623392D01*
X98984869Y-158648246D01*
X98255000Y-158648246D01*
X98020892Y-158694813D01*
X97822425Y-158827425D01*
X97700432Y-159010000D01*
X97588789Y-159010000D01*
X97510000Y-158994328D01*
X97197855Y-159056417D01*
X97081347Y-159134266D01*
X96933233Y-159233233D01*
X96888602Y-159300028D01*
X95770456Y-160418174D01*
X95620000Y-160388246D01*
X94720000Y-160388246D01*
X94485892Y-160434813D01*
X94287425Y-160567425D01*
X94154813Y-160765892D01*
X94108246Y-161000000D01*
X94108246Y-161800000D01*
X94154813Y-162034108D01*
X94287425Y-162232575D01*
X94361585Y-162282127D01*
X94318950Y-162299787D01*
X94119787Y-162498950D01*
X94012000Y-162759170D01*
X85867295Y-162759170D01*
X85865070Y-162753800D01*
X85246200Y-162134930D01*
X84437607Y-161800000D01*
X83562393Y-161800000D01*
X82753800Y-162134930D01*
X82134930Y-162753800D01*
X81800000Y-163562393D01*
X78650000Y-163562393D01*
X78650000Y-152421000D01*
X97547000Y-152421000D01*
X97547000Y-152880830D01*
X97654787Y-153141050D01*
X97853950Y-153340213D01*
X98114170Y-153448000D01*
X99468764Y-153448000D01*
X99634404Y-153602323D01*
X100241337Y-153828936D01*
X100501000Y-153673395D01*
X100501000Y-152244000D01*
X100609000Y-152244000D01*
X100609000Y-153673395D01*
X100868663Y-153828936D01*
X101475596Y-153602323D01*
X101641236Y-153448000D01*
X102995830Y-153448000D01*
X103256050Y-153340213D01*
X103455213Y-153141050D01*
X103563000Y-152880830D01*
X103563000Y-152421000D01*
X103386000Y-152244000D01*
X100609000Y-152244000D01*
X100501000Y-152244000D01*
X97724000Y-152244000D01*
X97547000Y-152421000D01*
X78650000Y-152421000D01*
X78650000Y-150831000D01*
X94012000Y-150831000D01*
X94012000Y-151140830D01*
X94119787Y-151401050D01*
X94318950Y-151600213D01*
X94579170Y-151708000D01*
X94939000Y-151708000D01*
X95116000Y-151531000D01*
X95116000Y-150654000D01*
X95224000Y-150654000D01*
X95224000Y-151531000D01*
X95401000Y-151708000D01*
X95760830Y-151708000D01*
X96021050Y-151600213D01*
X96220213Y-151401050D01*
X96328000Y-151140830D01*
X96328000Y-150831000D01*
X96151000Y-150654000D01*
X95224000Y-150654000D01*
X95116000Y-150654000D01*
X94189000Y-150654000D01*
X94012000Y-150831000D01*
X78650000Y-150831000D01*
X78650000Y-150059170D01*
X94012000Y-150059170D01*
X94012000Y-150369000D01*
X94189000Y-150546000D01*
X95116000Y-150546000D01*
X95116000Y-150526000D01*
X95224000Y-150526000D01*
X95224000Y-150546000D01*
X96151000Y-150546000D01*
X96258185Y-150438815D01*
X96287425Y-150482575D01*
X96485892Y-150615187D01*
X96720000Y-150661754D01*
X97620000Y-150661754D01*
X97815887Y-150622790D01*
X97822425Y-150632575D01*
X98020892Y-150765187D01*
X98255000Y-150811754D01*
X99451762Y-150811754D01*
X99536824Y-150868590D01*
X99468764Y-150932000D01*
X98114170Y-150932000D01*
X97853950Y-151039787D01*
X97654787Y-151238950D01*
X97547000Y-151499170D01*
X97547000Y-151959000D01*
X97724000Y-152136000D01*
X100501000Y-152136000D01*
X100501000Y-152116000D01*
X100609000Y-152116000D01*
X100609000Y-152136000D01*
X103386000Y-152136000D01*
X103563000Y-151959000D01*
X103563000Y-151499170D01*
X103455213Y-151238950D01*
X103256050Y-151039787D01*
X102995830Y-150932000D01*
X101641236Y-150932000D01*
X101573176Y-150868590D01*
X101658238Y-150811754D01*
X102855000Y-150811754D01*
X103089108Y-150765187D01*
X103287575Y-150632575D01*
X103409568Y-150450000D01*
X104393246Y-150450000D01*
X104393246Y-155050000D01*
X104439813Y-155284108D01*
X104572425Y-155482575D01*
X104770892Y-155615187D01*
X105005000Y-155661754D01*
X114405000Y-155661754D01*
X114639108Y-155615187D01*
X114837575Y-155482575D01*
X114970187Y-155284108D01*
X114979527Y-155237148D01*
X121015000Y-155237148D01*
X121015000Y-156022852D01*
X121315675Y-156748748D01*
X121871252Y-157304325D01*
X122597148Y-157605000D01*
X123382852Y-157605000D01*
X124108748Y-157304325D01*
X124664325Y-156748748D01*
X124965000Y-156022852D01*
X124965000Y-155237148D01*
X124664325Y-154511252D01*
X124108748Y-153955675D01*
X123382852Y-153655000D01*
X122597148Y-153655000D01*
X121871252Y-153955675D01*
X121315675Y-154511252D01*
X121015000Y-155237148D01*
X114979527Y-155237148D01*
X115016754Y-155050000D01*
X115016754Y-151277148D01*
X121015000Y-151277148D01*
X121015000Y-152062852D01*
X121315675Y-152788748D01*
X121871252Y-153344325D01*
X122597148Y-153645000D01*
X123382852Y-153645000D01*
X124108748Y-153344325D01*
X124664325Y-152788748D01*
X124965000Y-152062852D01*
X124965000Y-151277148D01*
X124664325Y-150551252D01*
X124108748Y-149995675D01*
X123382852Y-149695000D01*
X122597148Y-149695000D01*
X121871252Y-149995675D01*
X121315675Y-150551252D01*
X121015000Y-151277148D01*
X115016754Y-151277148D01*
X115016754Y-147317148D01*
X121015000Y-147317148D01*
X121015000Y-148102852D01*
X121315675Y-148828748D01*
X121871252Y-149384325D01*
X122597148Y-149685000D01*
X123382852Y-149685000D01*
X124108748Y-149384325D01*
X124664325Y-148828748D01*
X124965000Y-148102852D01*
X124965000Y-147317148D01*
X124664325Y-146591252D01*
X124108748Y-146035675D01*
X123382852Y-145735000D01*
X122597148Y-145735000D01*
X121871252Y-146035675D01*
X121315675Y-146591252D01*
X121015000Y-147317148D01*
X115016754Y-147317148D01*
X115016754Y-144250000D01*
X114970187Y-144015892D01*
X114837575Y-143817425D01*
X114639108Y-143684813D01*
X114405000Y-143638246D01*
X105005000Y-143638246D01*
X104770892Y-143684813D01*
X104572425Y-143817425D01*
X104439813Y-144015892D01*
X104393246Y-144250000D01*
X104393246Y-148850000D01*
X103409568Y-148850000D01*
X103287575Y-148667425D01*
X103089108Y-148534813D01*
X102855000Y-148488246D01*
X101992138Y-148488246D01*
X102120187Y-148296608D01*
X102125131Y-148271754D01*
X102855000Y-148271754D01*
X103089108Y-148225187D01*
X103287575Y-148092575D01*
X103420187Y-147894108D01*
X103466754Y-147660000D01*
X103466754Y-146560000D01*
X103420187Y-146325892D01*
X103287575Y-146127425D01*
X103089108Y-145994813D01*
X102855000Y-145948246D01*
X102125131Y-145948246D01*
X102120187Y-145923392D01*
X101987575Y-145724925D01*
X101789108Y-145592313D01*
X101555000Y-145545746D01*
X99555000Y-145545746D01*
X99320892Y-145592313D01*
X99122425Y-145724925D01*
X98989813Y-145923392D01*
X98984869Y-145948246D01*
X98255000Y-145948246D01*
X98020892Y-145994813D01*
X97822425Y-146127425D01*
X97700432Y-146310000D01*
X97588789Y-146310000D01*
X97510000Y-146294328D01*
X97197855Y-146356417D01*
X97081347Y-146434266D01*
X96933233Y-146533233D01*
X96888602Y-146600028D01*
X95770456Y-147718174D01*
X95620000Y-147688246D01*
X94720000Y-147688246D01*
X94485892Y-147734813D01*
X94287425Y-147867425D01*
X94154813Y-148065892D01*
X94108246Y-148300000D01*
X94108246Y-149100000D01*
X94154813Y-149334108D01*
X94287425Y-149532575D01*
X94361585Y-149582127D01*
X94318950Y-149599787D01*
X94119787Y-149798950D01*
X94012000Y-150059170D01*
X78650000Y-150059170D01*
X78650000Y-146136914D01*
X83210554Y-146136914D01*
X83213349Y-146150982D01*
X83448566Y-146711534D01*
X83880392Y-147139403D01*
X84443086Y-147369450D01*
X84686000Y-147220068D01*
X84686000Y-145894000D01*
X84794000Y-145894000D01*
X84794000Y-147220068D01*
X85036914Y-147369450D01*
X85599608Y-147139403D01*
X86031434Y-146711534D01*
X86266651Y-146150982D01*
X86269446Y-146136914D01*
X86119944Y-145894000D01*
X84794000Y-145894000D01*
X84686000Y-145894000D01*
X83360056Y-145894000D01*
X83210554Y-146136914D01*
X78650000Y-146136914D01*
X78650000Y-140477305D01*
X80969000Y-140477305D01*
X80969000Y-140954695D01*
X81151689Y-141395745D01*
X81489255Y-141733311D01*
X81930305Y-141916000D01*
X82407695Y-141916000D01*
X82848745Y-141733311D01*
X83066056Y-141516000D01*
X83501243Y-141516000D01*
X83694608Y-141805392D01*
X84030758Y-142030000D01*
X83694608Y-142254608D01*
X83374130Y-142734238D01*
X83261593Y-143300000D01*
X83374130Y-143865762D01*
X83694608Y-144345392D01*
X83946379Y-144513620D01*
X83880392Y-144540597D01*
X83448566Y-144968466D01*
X83213349Y-145529018D01*
X83210554Y-145543086D01*
X83360056Y-145786000D01*
X84686000Y-145786000D01*
X84686000Y-145766000D01*
X84794000Y-145766000D01*
X84794000Y-145786000D01*
X86119944Y-145786000D01*
X86269446Y-145543086D01*
X86266651Y-145529018D01*
X86031434Y-144968466D01*
X85599608Y-144540597D01*
X85533621Y-144513620D01*
X85785392Y-144345392D01*
X86105870Y-143865762D01*
X86207039Y-143357148D01*
X121015000Y-143357148D01*
X121015000Y-144142852D01*
X121315675Y-144868748D01*
X121871252Y-145424325D01*
X122597148Y-145725000D01*
X123382852Y-145725000D01*
X124108748Y-145424325D01*
X124664325Y-144868748D01*
X124965000Y-144142852D01*
X124965000Y-143357148D01*
X124664325Y-142631252D01*
X124108748Y-142075675D01*
X123382852Y-141775000D01*
X122597148Y-141775000D01*
X121871252Y-142075675D01*
X121315675Y-142631252D01*
X121015000Y-143357148D01*
X86207039Y-143357148D01*
X86218407Y-143300000D01*
X86105870Y-142734238D01*
X85785392Y-142254608D01*
X85449242Y-142030000D01*
X85785392Y-141805392D01*
X85978757Y-141516000D01*
X87437934Y-141516000D01*
X87655245Y-141733311D01*
X88096295Y-141916000D01*
X88573685Y-141916000D01*
X89014735Y-141733311D01*
X89352301Y-141395745D01*
X89534990Y-140954695D01*
X89534990Y-140477305D01*
X89352301Y-140036255D01*
X89037046Y-139721000D01*
X97547000Y-139721000D01*
X97547000Y-140180830D01*
X97654787Y-140441050D01*
X97853950Y-140640213D01*
X98114170Y-140748000D01*
X99468764Y-140748000D01*
X99634404Y-140902323D01*
X100241337Y-141128936D01*
X100501000Y-140973395D01*
X100501000Y-139544000D01*
X100609000Y-139544000D01*
X100609000Y-140973395D01*
X100868663Y-141128936D01*
X101475596Y-140902323D01*
X101641236Y-140748000D01*
X102995830Y-140748000D01*
X103256050Y-140640213D01*
X103455213Y-140441050D01*
X103563000Y-140180830D01*
X103563000Y-139721000D01*
X103386000Y-139544000D01*
X100609000Y-139544000D01*
X100501000Y-139544000D01*
X97724000Y-139544000D01*
X97547000Y-139721000D01*
X89037046Y-139721000D01*
X89014735Y-139698689D01*
X88573685Y-139516000D01*
X88096295Y-139516000D01*
X87655245Y-139698689D01*
X87437934Y-139916000D01*
X85919958Y-139916000D01*
X85785392Y-139714608D01*
X85702679Y-139659341D01*
X85824108Y-139635187D01*
X86022575Y-139502575D01*
X86155187Y-139304108D01*
X86201754Y-139070000D01*
X86201754Y-138131000D01*
X94012000Y-138131000D01*
X94012000Y-138440830D01*
X94119787Y-138701050D01*
X94318950Y-138900213D01*
X94579170Y-139008000D01*
X94939000Y-139008000D01*
X95116000Y-138831000D01*
X95116000Y-137954000D01*
X95224000Y-137954000D01*
X95224000Y-138831000D01*
X95401000Y-139008000D01*
X95760830Y-139008000D01*
X96021050Y-138900213D01*
X96220213Y-138701050D01*
X96328000Y-138440830D01*
X96328000Y-138131000D01*
X96151000Y-137954000D01*
X95224000Y-137954000D01*
X95116000Y-137954000D01*
X94189000Y-137954000D01*
X94012000Y-138131000D01*
X86201754Y-138131000D01*
X86201754Y-137370000D01*
X86199600Y-137359170D01*
X94012000Y-137359170D01*
X94012000Y-137669000D01*
X94189000Y-137846000D01*
X95116000Y-137846000D01*
X95116000Y-137826000D01*
X95224000Y-137826000D01*
X95224000Y-137846000D01*
X96151000Y-137846000D01*
X96258185Y-137738815D01*
X96287425Y-137782575D01*
X96485892Y-137915187D01*
X96720000Y-137961754D01*
X97620000Y-137961754D01*
X97815887Y-137922790D01*
X97822425Y-137932575D01*
X98020892Y-138065187D01*
X98255000Y-138111754D01*
X99451762Y-138111754D01*
X99536824Y-138168590D01*
X99468764Y-138232000D01*
X98114170Y-138232000D01*
X97853950Y-138339787D01*
X97654787Y-138538950D01*
X97547000Y-138799170D01*
X97547000Y-139259000D01*
X97724000Y-139436000D01*
X100501000Y-139436000D01*
X100501000Y-139416000D01*
X100609000Y-139416000D01*
X100609000Y-139436000D01*
X103386000Y-139436000D01*
X103563000Y-139259000D01*
X103563000Y-138799170D01*
X103455213Y-138538950D01*
X103256050Y-138339787D01*
X102995830Y-138232000D01*
X101641236Y-138232000D01*
X101573176Y-138168590D01*
X101658238Y-138111754D01*
X102855000Y-138111754D01*
X103089108Y-138065187D01*
X103287575Y-137932575D01*
X103409568Y-137750000D01*
X104393246Y-137750000D01*
X104393246Y-142350000D01*
X104439813Y-142584108D01*
X104572425Y-142782575D01*
X104770892Y-142915187D01*
X105005000Y-142961754D01*
X114405000Y-142961754D01*
X114639108Y-142915187D01*
X114837575Y-142782575D01*
X114970187Y-142584108D01*
X115016754Y-142350000D01*
X115016754Y-139397148D01*
X121015000Y-139397148D01*
X121015000Y-140182852D01*
X121315675Y-140908748D01*
X121871252Y-141464325D01*
X122597148Y-141765000D01*
X123382852Y-141765000D01*
X124108748Y-141464325D01*
X124664325Y-140908748D01*
X124965000Y-140182852D01*
X124965000Y-139397148D01*
X124664325Y-138671252D01*
X124108748Y-138115675D01*
X123382852Y-137815000D01*
X122597148Y-137815000D01*
X121871252Y-138115675D01*
X121315675Y-138671252D01*
X121015000Y-139397148D01*
X115016754Y-139397148D01*
X115016754Y-135437148D01*
X121015000Y-135437148D01*
X121015000Y-136222852D01*
X121315675Y-136948748D01*
X121871252Y-137504325D01*
X122597148Y-137805000D01*
X123382852Y-137805000D01*
X124108748Y-137504325D01*
X124664325Y-136948748D01*
X124965000Y-136222852D01*
X124965000Y-135437148D01*
X124664325Y-134711252D01*
X124108748Y-134155675D01*
X123382852Y-133855000D01*
X122597148Y-133855000D01*
X121871252Y-134155675D01*
X121315675Y-134711252D01*
X121015000Y-135437148D01*
X115016754Y-135437148D01*
X115016754Y-131550000D01*
X115002263Y-131477148D01*
X121015000Y-131477148D01*
X121015000Y-132262852D01*
X121315675Y-132988748D01*
X121871252Y-133544325D01*
X122597148Y-133845000D01*
X123382852Y-133845000D01*
X124108748Y-133544325D01*
X124664325Y-132988748D01*
X124965000Y-132262852D01*
X124965000Y-131477148D01*
X124664325Y-130751252D01*
X124108748Y-130195675D01*
X123382852Y-129895000D01*
X122597148Y-129895000D01*
X121871252Y-130195675D01*
X121315675Y-130751252D01*
X121015000Y-131477148D01*
X115002263Y-131477148D01*
X114970187Y-131315892D01*
X114837575Y-131117425D01*
X114639108Y-130984813D01*
X114405000Y-130938246D01*
X105005000Y-130938246D01*
X104770892Y-130984813D01*
X104572425Y-131117425D01*
X104439813Y-131315892D01*
X104393246Y-131550000D01*
X104393246Y-136150000D01*
X103409568Y-136150000D01*
X103287575Y-135967425D01*
X103089108Y-135834813D01*
X102855000Y-135788246D01*
X101992138Y-135788246D01*
X102120187Y-135596608D01*
X102125131Y-135571754D01*
X102855000Y-135571754D01*
X103089108Y-135525187D01*
X103287575Y-135392575D01*
X103420187Y-135194108D01*
X103466754Y-134960000D01*
X103466754Y-133860000D01*
X103420187Y-133625892D01*
X103287575Y-133427425D01*
X103089108Y-133294813D01*
X102855000Y-133248246D01*
X102125131Y-133248246D01*
X102120187Y-133223392D01*
X101987575Y-133024925D01*
X101789108Y-132892313D01*
X101555000Y-132845746D01*
X99555000Y-132845746D01*
X99320892Y-132892313D01*
X99122425Y-133024925D01*
X98989813Y-133223392D01*
X98984869Y-133248246D01*
X98255000Y-133248246D01*
X98020892Y-133294813D01*
X97822425Y-133427425D01*
X97700432Y-133610000D01*
X97588789Y-133610000D01*
X97510000Y-133594328D01*
X97197855Y-133656417D01*
X97081347Y-133734266D01*
X96933233Y-133833233D01*
X96888602Y-133900028D01*
X95770456Y-135018174D01*
X95620000Y-134988246D01*
X94720000Y-134988246D01*
X94485892Y-135034813D01*
X94287425Y-135167425D01*
X94154813Y-135365892D01*
X94108246Y-135600000D01*
X94108246Y-136400000D01*
X94154813Y-136634108D01*
X94287425Y-136832575D01*
X94361585Y-136882127D01*
X94318950Y-136899787D01*
X94119787Y-137098950D01*
X94012000Y-137359170D01*
X86199600Y-137359170D01*
X86155187Y-137135892D01*
X86022575Y-136937425D01*
X85824108Y-136804813D01*
X85590000Y-136758246D01*
X83890000Y-136758246D01*
X83655892Y-136804813D01*
X83457425Y-136937425D01*
X83324813Y-137135892D01*
X83278246Y-137370000D01*
X83278246Y-139070000D01*
X83324813Y-139304108D01*
X83457425Y-139502575D01*
X83655892Y-139635187D01*
X83777321Y-139659341D01*
X83694608Y-139714608D01*
X83560042Y-139916000D01*
X83066056Y-139916000D01*
X82848745Y-139698689D01*
X82407695Y-139516000D01*
X81930305Y-139516000D01*
X81489255Y-139698689D01*
X81151689Y-140036255D01*
X80969000Y-140477305D01*
X78650000Y-140477305D01*
X78650000Y-128356914D01*
X83210554Y-128356914D01*
X83213349Y-128370982D01*
X83448566Y-128931534D01*
X83880392Y-129359403D01*
X84443086Y-129589450D01*
X84686000Y-129440068D01*
X84686000Y-128114000D01*
X84794000Y-128114000D01*
X84794000Y-129440068D01*
X85036914Y-129589450D01*
X85599608Y-129359403D01*
X86031434Y-128931534D01*
X86266651Y-128370982D01*
X86269446Y-128356914D01*
X86119944Y-128114000D01*
X84794000Y-128114000D01*
X84686000Y-128114000D01*
X83360056Y-128114000D01*
X83210554Y-128356914D01*
X78650000Y-128356914D01*
X78650000Y-122961986D01*
X81269008Y-122961986D01*
X81269008Y-123439376D01*
X81451697Y-123880426D01*
X81789263Y-124217992D01*
X82230313Y-124400681D01*
X82707703Y-124400681D01*
X83148753Y-124217992D01*
X83486319Y-123880426D01*
X83493537Y-123863000D01*
X83586101Y-123863000D01*
X83694608Y-124025392D01*
X84030758Y-124250000D01*
X83694608Y-124474608D01*
X83374130Y-124954238D01*
X83261593Y-125520000D01*
X83374130Y-126085762D01*
X83694608Y-126565392D01*
X83946379Y-126733620D01*
X83880392Y-126760597D01*
X83448566Y-127188466D01*
X83213349Y-127749018D01*
X83210554Y-127763086D01*
X83360056Y-128006000D01*
X84686000Y-128006000D01*
X84686000Y-127986000D01*
X84794000Y-127986000D01*
X84794000Y-128006000D01*
X86119944Y-128006000D01*
X86269446Y-127763086D01*
X86266651Y-127749018D01*
X86031434Y-127188466D01*
X85862420Y-127021000D01*
X97547000Y-127021000D01*
X97547000Y-127480830D01*
X97654787Y-127741050D01*
X97853950Y-127940213D01*
X98114170Y-128048000D01*
X99468764Y-128048000D01*
X99634404Y-128202323D01*
X100241337Y-128428936D01*
X100501000Y-128273395D01*
X100501000Y-126844000D01*
X100609000Y-126844000D01*
X100609000Y-128273395D01*
X100868663Y-128428936D01*
X101475596Y-128202323D01*
X101641236Y-128048000D01*
X102995830Y-128048000D01*
X103256050Y-127940213D01*
X103455213Y-127741050D01*
X103563000Y-127480830D01*
X103563000Y-127021000D01*
X103386000Y-126844000D01*
X100609000Y-126844000D01*
X100501000Y-126844000D01*
X97724000Y-126844000D01*
X97547000Y-127021000D01*
X85862420Y-127021000D01*
X85599608Y-126760597D01*
X85533621Y-126733620D01*
X85785392Y-126565392D01*
X86105870Y-126085762D01*
X86218407Y-125520000D01*
X86200704Y-125431000D01*
X94012000Y-125431000D01*
X94012000Y-125740830D01*
X94119787Y-126001050D01*
X94318950Y-126200213D01*
X94579170Y-126308000D01*
X94939000Y-126308000D01*
X95116000Y-126131000D01*
X95116000Y-125254000D01*
X95224000Y-125254000D01*
X95224000Y-126131000D01*
X95401000Y-126308000D01*
X95760830Y-126308000D01*
X96021050Y-126200213D01*
X96220213Y-126001050D01*
X96328000Y-125740830D01*
X96328000Y-125431000D01*
X96151000Y-125254000D01*
X95224000Y-125254000D01*
X95116000Y-125254000D01*
X94189000Y-125254000D01*
X94012000Y-125431000D01*
X86200704Y-125431000D01*
X86105870Y-124954238D01*
X85908713Y-124659170D01*
X94012000Y-124659170D01*
X94012000Y-124969000D01*
X94189000Y-125146000D01*
X95116000Y-125146000D01*
X95116000Y-125126000D01*
X95224000Y-125126000D01*
X95224000Y-125146000D01*
X96151000Y-125146000D01*
X96258185Y-125038815D01*
X96287425Y-125082575D01*
X96485892Y-125215187D01*
X96720000Y-125261754D01*
X97620000Y-125261754D01*
X97815887Y-125222790D01*
X97822425Y-125232575D01*
X98020892Y-125365187D01*
X98255000Y-125411754D01*
X99451762Y-125411754D01*
X99536824Y-125468590D01*
X99468764Y-125532000D01*
X98114170Y-125532000D01*
X97853950Y-125639787D01*
X97654787Y-125838950D01*
X97547000Y-126099170D01*
X97547000Y-126559000D01*
X97724000Y-126736000D01*
X100501000Y-126736000D01*
X100501000Y-126716000D01*
X100609000Y-126716000D01*
X100609000Y-126736000D01*
X103386000Y-126736000D01*
X103563000Y-126559000D01*
X103563000Y-126099170D01*
X103455213Y-125838950D01*
X103256050Y-125639787D01*
X102995830Y-125532000D01*
X101641236Y-125532000D01*
X101573176Y-125468590D01*
X101658238Y-125411754D01*
X102855000Y-125411754D01*
X103089108Y-125365187D01*
X103287575Y-125232575D01*
X103409568Y-125050000D01*
X104393246Y-125050000D01*
X104393246Y-129650000D01*
X104439813Y-129884108D01*
X104572425Y-130082575D01*
X104770892Y-130215187D01*
X105005000Y-130261754D01*
X114405000Y-130261754D01*
X114639108Y-130215187D01*
X114837575Y-130082575D01*
X114970187Y-129884108D01*
X115016754Y-129650000D01*
X115016754Y-122601235D01*
X119565132Y-122601235D01*
X119610455Y-122861057D01*
X120109524Y-123067930D01*
X120649770Y-123068071D01*
X121148946Y-122861457D01*
X121149545Y-122861057D01*
X121194868Y-122601235D01*
X120380000Y-121786368D01*
X119565132Y-122601235D01*
X115016754Y-122601235D01*
X115016754Y-121979770D01*
X119021929Y-121979770D01*
X119228543Y-122478946D01*
X119228943Y-122479545D01*
X119488765Y-122524868D01*
X120303632Y-121710000D01*
X120456368Y-121710000D01*
X121271235Y-122524868D01*
X121531057Y-122479545D01*
X121737930Y-121980476D01*
X121738071Y-121440230D01*
X121580690Y-121060000D01*
X124118246Y-121060000D01*
X124118246Y-122360000D01*
X124164813Y-122594108D01*
X124297425Y-122792575D01*
X124495892Y-122925187D01*
X124730000Y-122971754D01*
X126030000Y-122971754D01*
X126264108Y-122925187D01*
X126462575Y-122792575D01*
X126595187Y-122594108D01*
X126641754Y-122360000D01*
X126641754Y-121060000D01*
X126595187Y-120825892D01*
X126462575Y-120627425D01*
X126264108Y-120494813D01*
X126030000Y-120448246D01*
X124730000Y-120448246D01*
X124495892Y-120494813D01*
X124297425Y-120627425D01*
X124164813Y-120825892D01*
X124118246Y-121060000D01*
X121580690Y-121060000D01*
X121531457Y-120941054D01*
X121531057Y-120940455D01*
X121271235Y-120895132D01*
X120456368Y-121710000D01*
X120303632Y-121710000D01*
X119488765Y-120895132D01*
X119228943Y-120940455D01*
X119022070Y-121439524D01*
X119021929Y-121979770D01*
X115016754Y-121979770D01*
X115016754Y-120818765D01*
X119565132Y-120818765D01*
X120380000Y-121633632D01*
X121194868Y-120818765D01*
X121149545Y-120558943D01*
X120650476Y-120352070D01*
X120110230Y-120351929D01*
X119611054Y-120558543D01*
X119610455Y-120558943D01*
X119565132Y-120818765D01*
X115016754Y-120818765D01*
X115016754Y-118850000D01*
X114970187Y-118615892D01*
X114837575Y-118417425D01*
X114639108Y-118284813D01*
X114405000Y-118238246D01*
X105005000Y-118238246D01*
X104770892Y-118284813D01*
X104572425Y-118417425D01*
X104439813Y-118615892D01*
X104393246Y-118850000D01*
X104393246Y-123450000D01*
X103409568Y-123450000D01*
X103287575Y-123267425D01*
X103089108Y-123134813D01*
X102855000Y-123088246D01*
X101992138Y-123088246D01*
X102120187Y-122896608D01*
X102125131Y-122871754D01*
X102855000Y-122871754D01*
X103089108Y-122825187D01*
X103287575Y-122692575D01*
X103420187Y-122494108D01*
X103466754Y-122260000D01*
X103466754Y-121160000D01*
X103420187Y-120925892D01*
X103287575Y-120727425D01*
X103089108Y-120594813D01*
X102855000Y-120548246D01*
X102125131Y-120548246D01*
X102120187Y-120523392D01*
X101987575Y-120324925D01*
X101789108Y-120192313D01*
X101555000Y-120145746D01*
X99555000Y-120145746D01*
X99320892Y-120192313D01*
X99122425Y-120324925D01*
X98989813Y-120523392D01*
X98984869Y-120548246D01*
X98255000Y-120548246D01*
X98020892Y-120594813D01*
X97822425Y-120727425D01*
X97700432Y-120910000D01*
X97588789Y-120910000D01*
X97510000Y-120894328D01*
X97197855Y-120956417D01*
X97081347Y-121034266D01*
X96933233Y-121133233D01*
X96888602Y-121200028D01*
X95770456Y-122318174D01*
X95620000Y-122288246D01*
X94720000Y-122288246D01*
X94485892Y-122334813D01*
X94287425Y-122467425D01*
X94154813Y-122665892D01*
X94108246Y-122900000D01*
X94108246Y-123700000D01*
X94154813Y-123934108D01*
X94287425Y-124132575D01*
X94361585Y-124182127D01*
X94318950Y-124199787D01*
X94119787Y-124398950D01*
X94012000Y-124659170D01*
X85908713Y-124659170D01*
X85785392Y-124474608D01*
X85449242Y-124250000D01*
X85785392Y-124025392D01*
X85893899Y-123863000D01*
X87443958Y-123863000D01*
X87661269Y-124080311D01*
X88102319Y-124263000D01*
X88579709Y-124263000D01*
X89020759Y-124080311D01*
X89358325Y-123742745D01*
X89541014Y-123301695D01*
X89541014Y-122824305D01*
X89358325Y-122383255D01*
X89020759Y-122045689D01*
X88579709Y-121863000D01*
X88102319Y-121863000D01*
X87661269Y-122045689D01*
X87443958Y-122263000D01*
X86004816Y-122263000D01*
X85785392Y-121934608D01*
X85702679Y-121879341D01*
X85824108Y-121855187D01*
X86022575Y-121722575D01*
X86155187Y-121524108D01*
X86201754Y-121290000D01*
X86201754Y-119590000D01*
X86155187Y-119355892D01*
X86022575Y-119157425D01*
X85824108Y-119024813D01*
X85590000Y-118978246D01*
X83890000Y-118978246D01*
X83655892Y-119024813D01*
X83457425Y-119157425D01*
X83324813Y-119355892D01*
X83278246Y-119590000D01*
X83278246Y-121290000D01*
X83324813Y-121524108D01*
X83457425Y-121722575D01*
X83655892Y-121855187D01*
X83777321Y-121879341D01*
X83694608Y-121934608D01*
X83475184Y-122263000D01*
X83228383Y-122263000D01*
X83148753Y-122183370D01*
X82707703Y-122000681D01*
X82230313Y-122000681D01*
X81789263Y-122183370D01*
X81451697Y-122520936D01*
X81269008Y-122961986D01*
X78650000Y-122961986D01*
X78650000Y-112676980D01*
X99784610Y-112676980D01*
X99784610Y-113383020D01*
X100054800Y-114035315D01*
X100554045Y-114534560D01*
X101206340Y-114804750D01*
X101912380Y-114804750D01*
X102564675Y-114534560D01*
X103063920Y-114035315D01*
X103334110Y-113383020D01*
X103334110Y-112676980D01*
X115105890Y-112676980D01*
X115105890Y-113383020D01*
X115376080Y-114035315D01*
X115875325Y-114534560D01*
X116527620Y-114804750D01*
X117233660Y-114804750D01*
X117885955Y-114534560D01*
X118385200Y-114035315D01*
X118655390Y-113383020D01*
X118655390Y-112676980D01*
X118385200Y-112024685D01*
X117885955Y-111525440D01*
X117233660Y-111255250D01*
X116527620Y-111255250D01*
X115875325Y-111525440D01*
X115376080Y-112024685D01*
X115105890Y-112676980D01*
X103334110Y-112676980D01*
X103063920Y-112024685D01*
X102564675Y-111525440D01*
X101912380Y-111255250D01*
X101206340Y-111255250D01*
X100554045Y-111525440D01*
X100054800Y-112024685D01*
X99784610Y-112676980D01*
X78650000Y-112676980D01*
X78650000Y-106231305D01*
X81000000Y-106231305D01*
X81000000Y-106708695D01*
X81182689Y-107149745D01*
X81520255Y-107487311D01*
X81961305Y-107670000D01*
X82438695Y-107670000D01*
X82879745Y-107487311D01*
X83097056Y-107270000D01*
X84114001Y-107270000D01*
X84114000Y-109342788D01*
X84160417Y-109576143D01*
X84212246Y-109653711D01*
X84212246Y-110014000D01*
X84258813Y-110248108D01*
X84391425Y-110446575D01*
X84589892Y-110579187D01*
X84824000Y-110625754D01*
X85794000Y-110625754D01*
X86028108Y-110579187D01*
X86226575Y-110446575D01*
X86264000Y-110390565D01*
X86301425Y-110446575D01*
X86499892Y-110579187D01*
X86734000Y-110625754D01*
X87704000Y-110625754D01*
X87938108Y-110579187D01*
X88136575Y-110446575D01*
X88269187Y-110248108D01*
X88305808Y-110064000D01*
X89383300Y-110064000D01*
X89557817Y-110325183D01*
X89835363Y-110510633D01*
X90162750Y-110575754D01*
X90650250Y-110575754D01*
X90977637Y-110510633D01*
X91194480Y-110365743D01*
X91392950Y-110564213D01*
X91653170Y-110672000D01*
X92050500Y-110672000D01*
X92227500Y-110495000D01*
X92227500Y-109318000D01*
X92335500Y-109318000D01*
X92335500Y-110495000D01*
X92512500Y-110672000D01*
X92909830Y-110672000D01*
X93170050Y-110564213D01*
X93369213Y-110365050D01*
X93477000Y-110104830D01*
X93477000Y-109495000D01*
X93300000Y-109318000D01*
X92335500Y-109318000D01*
X92227500Y-109318000D01*
X92207500Y-109318000D01*
X92207500Y-109210000D01*
X92227500Y-109210000D01*
X92227500Y-108033000D01*
X92335500Y-108033000D01*
X92335500Y-109210000D01*
X93300000Y-109210000D01*
X93477000Y-109033000D01*
X93477000Y-108423170D01*
X93369213Y-108162950D01*
X93170050Y-107963787D01*
X92909830Y-107856000D01*
X92512500Y-107856000D01*
X92335500Y-108033000D01*
X92227500Y-108033000D01*
X92050500Y-107856000D01*
X91653170Y-107856000D01*
X91392950Y-107963787D01*
X91194480Y-108162257D01*
X90977637Y-108017367D01*
X90650250Y-107952246D01*
X90162750Y-107952246D01*
X89835363Y-108017367D01*
X89557817Y-108202817D01*
X89383300Y-108464000D01*
X88305808Y-108464000D01*
X88269187Y-108279892D01*
X88136575Y-108081425D01*
X87938108Y-107948813D01*
X87704000Y-107902246D01*
X86734000Y-107902246D01*
X86499892Y-107948813D01*
X86301425Y-108081425D01*
X86264000Y-108137435D01*
X86226575Y-108081425D01*
X86028108Y-107948813D01*
X85794000Y-107902246D01*
X85714000Y-107902246D01*
X85714000Y-107270000D01*
X86589300Y-107270000D01*
X86763817Y-107531183D01*
X87041363Y-107716633D01*
X87368750Y-107781754D01*
X87856250Y-107781754D01*
X88183637Y-107716633D01*
X88400480Y-107571743D01*
X88598950Y-107770213D01*
X88859170Y-107878000D01*
X89256500Y-107878000D01*
X89433500Y-107701000D01*
X89433500Y-106524000D01*
X89541500Y-106524000D01*
X89541500Y-107701000D01*
X89718500Y-107878000D01*
X90115830Y-107878000D01*
X90376050Y-107770213D01*
X90549283Y-107596980D01*
X99784610Y-107596980D01*
X99784610Y-108303020D01*
X100054800Y-108955315D01*
X100554045Y-109454560D01*
X101206340Y-109724750D01*
X101912380Y-109724750D01*
X102564675Y-109454560D01*
X103063920Y-108955315D01*
X103334110Y-108303020D01*
X103334110Y-107596980D01*
X115105890Y-107596980D01*
X115105890Y-108303020D01*
X115376080Y-108955315D01*
X115875325Y-109454560D01*
X116527620Y-109724750D01*
X117233660Y-109724750D01*
X117885955Y-109454560D01*
X118385200Y-108955315D01*
X118655390Y-108303020D01*
X118655390Y-107596980D01*
X118570346Y-107391665D01*
X119889975Y-106072036D01*
X119956767Y-106027407D01*
X120046420Y-105893233D01*
X120133582Y-105762785D01*
X120133583Y-105762784D01*
X120180000Y-105529429D01*
X120180000Y-105529424D01*
X120195671Y-105450640D01*
X120180000Y-105371856D01*
X120180000Y-102290700D01*
X120441183Y-102116183D01*
X120462019Y-102085000D01*
X120658864Y-102085000D01*
X120737425Y-102202575D01*
X120935892Y-102335187D01*
X121170000Y-102381754D01*
X122670000Y-102381754D01*
X122904108Y-102335187D01*
X123102575Y-102202575D01*
X123149789Y-102131914D01*
X123159787Y-102156050D01*
X123358950Y-102355213D01*
X123619170Y-102463000D01*
X124229000Y-102463000D01*
X124406000Y-102286000D01*
X124406000Y-101321500D01*
X124514000Y-101321500D01*
X124514000Y-102286000D01*
X124691000Y-102463000D01*
X125300830Y-102463000D01*
X125561050Y-102355213D01*
X125760213Y-102156050D01*
X125868000Y-101895830D01*
X125868000Y-101498500D01*
X125691000Y-101321500D01*
X124514000Y-101321500D01*
X124406000Y-101321500D01*
X124386000Y-101321500D01*
X124386000Y-101213500D01*
X124406000Y-101213500D01*
X124406000Y-101193500D01*
X124514000Y-101193500D01*
X124514000Y-101213500D01*
X125691000Y-101213500D01*
X125868000Y-101036500D01*
X125868000Y-100639170D01*
X125760213Y-100378950D01*
X125561743Y-100180480D01*
X125706633Y-99963637D01*
X125771754Y-99636250D01*
X125771754Y-99148750D01*
X125706633Y-98821363D01*
X125521183Y-98543817D01*
X125243637Y-98358367D01*
X124916250Y-98293246D01*
X124003750Y-98293246D01*
X123676363Y-98358367D01*
X123398817Y-98543817D01*
X123377981Y-98575000D01*
X123181136Y-98575000D01*
X123102575Y-98457425D01*
X122904108Y-98324813D01*
X122670000Y-98278246D01*
X121170000Y-98278246D01*
X120935892Y-98324813D01*
X120737425Y-98457425D01*
X120690211Y-98528086D01*
X120680213Y-98503950D01*
X120481050Y-98304787D01*
X120220830Y-98197000D01*
X119611000Y-98197000D01*
X119434000Y-98374000D01*
X119434000Y-99338500D01*
X119454000Y-99338500D01*
X119454000Y-99446500D01*
X119434000Y-99446500D01*
X119434000Y-99466500D01*
X119326000Y-99466500D01*
X119326000Y-99446500D01*
X118149000Y-99446500D01*
X117972000Y-99623500D01*
X117972000Y-100020830D01*
X118079787Y-100281050D01*
X118278257Y-100479520D01*
X118133367Y-100696363D01*
X118068246Y-101023750D01*
X118068246Y-101511250D01*
X118133367Y-101838637D01*
X118318817Y-102116183D01*
X118580001Y-102290700D01*
X118580000Y-105119269D01*
X117438975Y-106260294D01*
X117233660Y-106175250D01*
X116527620Y-106175250D01*
X115875325Y-106445440D01*
X115376080Y-106944685D01*
X115105890Y-107596980D01*
X103334110Y-107596980D01*
X103063920Y-106944685D01*
X102564675Y-106445440D01*
X101912380Y-106175250D01*
X101206340Y-106175250D01*
X100554045Y-106445440D01*
X100054800Y-106944685D01*
X99784610Y-107596980D01*
X90549283Y-107596980D01*
X90575213Y-107571050D01*
X90683000Y-107310830D01*
X90683000Y-106701000D01*
X90506000Y-106524000D01*
X89541500Y-106524000D01*
X89433500Y-106524000D01*
X89413500Y-106524000D01*
X89413500Y-106416000D01*
X89433500Y-106416000D01*
X89433500Y-105239000D01*
X89541500Y-105239000D01*
X89541500Y-106416000D01*
X90506000Y-106416000D01*
X90683000Y-106239000D01*
X90683000Y-105629170D01*
X90575213Y-105368950D01*
X90376050Y-105169787D01*
X90115830Y-105062000D01*
X89718500Y-105062000D01*
X89541500Y-105239000D01*
X89433500Y-105239000D01*
X89256500Y-105062000D01*
X88859170Y-105062000D01*
X88598950Y-105169787D01*
X88400480Y-105368257D01*
X88183637Y-105223367D01*
X87856250Y-105158246D01*
X87368750Y-105158246D01*
X87041363Y-105223367D01*
X86763817Y-105408817D01*
X86589300Y-105670000D01*
X84818784Y-105670000D01*
X84740000Y-105654329D01*
X84661216Y-105670000D01*
X83097056Y-105670000D01*
X82879745Y-105452689D01*
X82438695Y-105270000D01*
X81961305Y-105270000D01*
X81520255Y-105452689D01*
X81182689Y-105790255D01*
X81000000Y-106231305D01*
X78650000Y-106231305D01*
X78650000Y-101684408D01*
X101441960Y-101684408D01*
X101590812Y-102032521D01*
X102397114Y-102381031D01*
X103275408Y-102394453D01*
X104091983Y-102070745D01*
X104149188Y-102032521D01*
X104298040Y-101684408D01*
X105401960Y-101684408D01*
X105550812Y-102032521D01*
X106357114Y-102381031D01*
X107235408Y-102394453D01*
X108051983Y-102070745D01*
X108109188Y-102032521D01*
X108258040Y-101684408D01*
X106830000Y-100256368D01*
X105401960Y-101684408D01*
X104298040Y-101684408D01*
X102870000Y-100256368D01*
X101441960Y-101684408D01*
X78650000Y-101684408D01*
X78650000Y-100585408D01*
X100655547Y-100585408D01*
X100979255Y-101401983D01*
X101017479Y-101459188D01*
X101365592Y-101608040D01*
X102793632Y-100180000D01*
X102946368Y-100180000D01*
X104374408Y-101608040D01*
X104722521Y-101459188D01*
X104847400Y-101170272D01*
X104939255Y-101401983D01*
X104977479Y-101459188D01*
X105325592Y-101608040D01*
X106753632Y-100180000D01*
X106906368Y-100180000D01*
X108334408Y-101608040D01*
X108682521Y-101459188D01*
X108868555Y-101028786D01*
X109009706Y-101369554D01*
X109600446Y-101960294D01*
X110372284Y-102280000D01*
X111207716Y-102280000D01*
X111979554Y-101960294D01*
X112570294Y-101369554D01*
X112770000Y-100887421D01*
X112969706Y-101369554D01*
X113560446Y-101960294D01*
X114332284Y-102280000D01*
X115167716Y-102280000D01*
X115939554Y-101960294D01*
X116530294Y-101369554D01*
X116850000Y-100597716D01*
X116850000Y-99762284D01*
X116530294Y-98990446D01*
X116304018Y-98764170D01*
X117972000Y-98764170D01*
X117972000Y-99161500D01*
X118149000Y-99338500D01*
X119326000Y-99338500D01*
X119326000Y-98374000D01*
X119149000Y-98197000D01*
X118539170Y-98197000D01*
X118278950Y-98304787D01*
X118079787Y-98503950D01*
X117972000Y-98764170D01*
X116304018Y-98764170D01*
X115939554Y-98399706D01*
X115167716Y-98080000D01*
X114332284Y-98080000D01*
X113560446Y-98399706D01*
X112969706Y-98990446D01*
X112770000Y-99472579D01*
X112570294Y-98990446D01*
X111979554Y-98399706D01*
X111207716Y-98080000D01*
X110372284Y-98080000D01*
X109600446Y-98399706D01*
X109009706Y-98990446D01*
X108868623Y-99331050D01*
X108720745Y-98958017D01*
X108682521Y-98900812D01*
X108334408Y-98751960D01*
X106906368Y-100180000D01*
X106753632Y-100180000D01*
X105325592Y-98751960D01*
X104977479Y-98900812D01*
X104852600Y-99189728D01*
X104760745Y-98958017D01*
X104722521Y-98900812D01*
X104374408Y-98751960D01*
X102946368Y-100180000D01*
X102793632Y-100180000D01*
X101365592Y-98751960D01*
X101017479Y-98900812D01*
X100668969Y-99707114D01*
X100655547Y-100585408D01*
X78650000Y-100585408D01*
X78650000Y-98675592D01*
X101441960Y-98675592D01*
X102870000Y-100103632D01*
X104298040Y-98675592D01*
X105401960Y-98675592D01*
X106830000Y-100103632D01*
X108258040Y-98675592D01*
X108109188Y-98327479D01*
X107302886Y-97978969D01*
X106424592Y-97965547D01*
X105608017Y-98289255D01*
X105550812Y-98327479D01*
X105401960Y-98675592D01*
X104298040Y-98675592D01*
X104149188Y-98327479D01*
X103342886Y-97978969D01*
X102464592Y-97965547D01*
X101648017Y-98289255D01*
X101590812Y-98327479D01*
X101441960Y-98675592D01*
X78650000Y-98675592D01*
X78650000Y-92731000D01*
X83182000Y-92731000D01*
X83182000Y-93490830D01*
X83289787Y-93751050D01*
X83488950Y-93950213D01*
X83749170Y-94058000D01*
X84509000Y-94058000D01*
X84686000Y-93881000D01*
X84686000Y-92554000D01*
X84794000Y-92554000D01*
X84794000Y-93881000D01*
X84971000Y-94058000D01*
X85730830Y-94058000D01*
X85991050Y-93950213D01*
X86190213Y-93751050D01*
X86298000Y-93490830D01*
X86298000Y-92731000D01*
X86121000Y-92554000D01*
X84794000Y-92554000D01*
X84686000Y-92554000D01*
X83359000Y-92554000D01*
X83182000Y-92731000D01*
X78650000Y-92731000D01*
X78650000Y-91509170D01*
X83182000Y-91509170D01*
X83182000Y-92269000D01*
X83359000Y-92446000D01*
X84686000Y-92446000D01*
X84686000Y-92426000D01*
X84794000Y-92426000D01*
X84794000Y-92446000D01*
X86121000Y-92446000D01*
X86298000Y-92269000D01*
X86298000Y-91509170D01*
X86190213Y-91248950D01*
X85991050Y-91049787D01*
X85806740Y-90973443D01*
X86105870Y-90525762D01*
X86218407Y-89960000D01*
X86105870Y-89394238D01*
X85789663Y-88921000D01*
X97547000Y-88921000D01*
X97547000Y-89380830D01*
X97654787Y-89641050D01*
X97853950Y-89840213D01*
X98114170Y-89948000D01*
X99468764Y-89948000D01*
X99634404Y-90102323D01*
X100241337Y-90328936D01*
X100501000Y-90173395D01*
X100501000Y-88744000D01*
X100609000Y-88744000D01*
X100609000Y-90173395D01*
X100868663Y-90328936D01*
X101475596Y-90102323D01*
X101641236Y-89948000D01*
X102995830Y-89948000D01*
X103256050Y-89840213D01*
X103455213Y-89641050D01*
X103563000Y-89380830D01*
X103563000Y-88921000D01*
X103386000Y-88744000D01*
X100609000Y-88744000D01*
X100501000Y-88744000D01*
X97724000Y-88744000D01*
X97547000Y-88921000D01*
X85789663Y-88921000D01*
X85785392Y-88914608D01*
X85449242Y-88690000D01*
X85785392Y-88465392D01*
X86105870Y-87985762D01*
X86218407Y-87420000D01*
X86200704Y-87331000D01*
X94012000Y-87331000D01*
X94012000Y-87640830D01*
X94119787Y-87901050D01*
X94318950Y-88100213D01*
X94579170Y-88208000D01*
X94939000Y-88208000D01*
X95116000Y-88031000D01*
X95116000Y-87154000D01*
X95224000Y-87154000D01*
X95224000Y-88031000D01*
X95401000Y-88208000D01*
X95760830Y-88208000D01*
X96021050Y-88100213D01*
X96220213Y-87901050D01*
X96328000Y-87640830D01*
X96328000Y-87331000D01*
X96151000Y-87154000D01*
X95224000Y-87154000D01*
X95116000Y-87154000D01*
X94189000Y-87154000D01*
X94012000Y-87331000D01*
X86200704Y-87331000D01*
X86105870Y-86854238D01*
X85908713Y-86559170D01*
X94012000Y-86559170D01*
X94012000Y-86869000D01*
X94189000Y-87046000D01*
X95116000Y-87046000D01*
X95116000Y-87026000D01*
X95224000Y-87026000D01*
X95224000Y-87046000D01*
X96151000Y-87046000D01*
X96258185Y-86938815D01*
X96287425Y-86982575D01*
X96485892Y-87115187D01*
X96720000Y-87161754D01*
X97620000Y-87161754D01*
X97815887Y-87122790D01*
X97822425Y-87132575D01*
X98020892Y-87265187D01*
X98255000Y-87311754D01*
X99451762Y-87311754D01*
X99536824Y-87368590D01*
X99468764Y-87432000D01*
X98114170Y-87432000D01*
X97853950Y-87539787D01*
X97654787Y-87738950D01*
X97547000Y-87999170D01*
X97547000Y-88459000D01*
X97724000Y-88636000D01*
X100501000Y-88636000D01*
X100501000Y-88616000D01*
X100609000Y-88616000D01*
X100609000Y-88636000D01*
X103386000Y-88636000D01*
X103563000Y-88459000D01*
X103563000Y-87999170D01*
X103455213Y-87738950D01*
X103256050Y-87539787D01*
X102995830Y-87432000D01*
X101641236Y-87432000D01*
X101573176Y-87368590D01*
X101658238Y-87311754D01*
X102855000Y-87311754D01*
X103089108Y-87265187D01*
X103287575Y-87132575D01*
X103409568Y-86950000D01*
X104393246Y-86950000D01*
X104393246Y-91550000D01*
X104439813Y-91784108D01*
X104572425Y-91982575D01*
X104770892Y-92115187D01*
X105005000Y-92161754D01*
X114405000Y-92161754D01*
X114639108Y-92115187D01*
X114837575Y-91982575D01*
X114970187Y-91784108D01*
X115016754Y-91550000D01*
X115016754Y-89581235D01*
X119565132Y-89581235D01*
X119610455Y-89841057D01*
X120109524Y-90047930D01*
X120649770Y-90048071D01*
X121148946Y-89841457D01*
X121149545Y-89841057D01*
X121194868Y-89581235D01*
X120380000Y-88766368D01*
X119565132Y-89581235D01*
X115016754Y-89581235D01*
X115016754Y-88959770D01*
X119021929Y-88959770D01*
X119228543Y-89458946D01*
X119228943Y-89459545D01*
X119488765Y-89504868D01*
X120303632Y-88690000D01*
X120456368Y-88690000D01*
X121271235Y-89504868D01*
X121531057Y-89459545D01*
X121737930Y-88960476D01*
X121738071Y-88420230D01*
X121580690Y-88040000D01*
X124118246Y-88040000D01*
X124118246Y-89340000D01*
X124164813Y-89574108D01*
X124297425Y-89772575D01*
X124495892Y-89905187D01*
X124730000Y-89951754D01*
X126030000Y-89951754D01*
X126264108Y-89905187D01*
X126462575Y-89772575D01*
X126595187Y-89574108D01*
X126641754Y-89340000D01*
X126641754Y-88040000D01*
X126595187Y-87805892D01*
X126462575Y-87607425D01*
X126264108Y-87474813D01*
X126030000Y-87428246D01*
X124730000Y-87428246D01*
X124495892Y-87474813D01*
X124297425Y-87607425D01*
X124164813Y-87805892D01*
X124118246Y-88040000D01*
X121580690Y-88040000D01*
X121531457Y-87921054D01*
X121531057Y-87920455D01*
X121271235Y-87875132D01*
X120456368Y-88690000D01*
X120303632Y-88690000D01*
X119488765Y-87875132D01*
X119228943Y-87920455D01*
X119022070Y-88419524D01*
X119021929Y-88959770D01*
X115016754Y-88959770D01*
X115016754Y-87798765D01*
X119565132Y-87798765D01*
X120380000Y-88613632D01*
X121194868Y-87798765D01*
X121149545Y-87538943D01*
X120650476Y-87332070D01*
X120110230Y-87331929D01*
X119611054Y-87538543D01*
X119610455Y-87538943D01*
X119565132Y-87798765D01*
X115016754Y-87798765D01*
X115016754Y-80750000D01*
X114970187Y-80515892D01*
X114837575Y-80317425D01*
X114639108Y-80184813D01*
X114405000Y-80138246D01*
X105005000Y-80138246D01*
X104770892Y-80184813D01*
X104572425Y-80317425D01*
X104439813Y-80515892D01*
X104393246Y-80750000D01*
X104393246Y-85350000D01*
X103409568Y-85350000D01*
X103287575Y-85167425D01*
X103089108Y-85034813D01*
X102855000Y-84988246D01*
X101992138Y-84988246D01*
X102120187Y-84796608D01*
X102125131Y-84771754D01*
X102855000Y-84771754D01*
X103089108Y-84725187D01*
X103287575Y-84592575D01*
X103420187Y-84394108D01*
X103466754Y-84160000D01*
X103466754Y-83060000D01*
X103420187Y-82825892D01*
X103287575Y-82627425D01*
X103089108Y-82494813D01*
X102855000Y-82448246D01*
X102125131Y-82448246D01*
X102120187Y-82423392D01*
X101987575Y-82224925D01*
X101789108Y-82092313D01*
X101555000Y-82045746D01*
X99555000Y-82045746D01*
X99320892Y-82092313D01*
X99122425Y-82224925D01*
X98989813Y-82423392D01*
X98984869Y-82448246D01*
X98255000Y-82448246D01*
X98020892Y-82494813D01*
X97822425Y-82627425D01*
X97700432Y-82810000D01*
X97588789Y-82810000D01*
X97510000Y-82794328D01*
X97197855Y-82856417D01*
X97081347Y-82934266D01*
X96933233Y-83033233D01*
X96888602Y-83100028D01*
X95770456Y-84218174D01*
X95620000Y-84188246D01*
X94720000Y-84188246D01*
X94485892Y-84234813D01*
X94287425Y-84367425D01*
X94154813Y-84565892D01*
X94108246Y-84800000D01*
X94108246Y-85600000D01*
X94154813Y-85834108D01*
X94287425Y-86032575D01*
X94361585Y-86082127D01*
X94318950Y-86099787D01*
X94119787Y-86298950D01*
X94012000Y-86559170D01*
X85908713Y-86559170D01*
X85785392Y-86374608D01*
X85305762Y-86054130D01*
X84882812Y-85970000D01*
X84597188Y-85970000D01*
X84174238Y-86054130D01*
X83694608Y-86374608D01*
X83374130Y-86854238D01*
X83261593Y-87420000D01*
X83374130Y-87985762D01*
X83694608Y-88465392D01*
X84030758Y-88690000D01*
X83694608Y-88914608D01*
X83374130Y-89394238D01*
X83261593Y-89960000D01*
X83374130Y-90525762D01*
X83673260Y-90973443D01*
X83488950Y-91049787D01*
X83289787Y-91248950D01*
X83182000Y-91509170D01*
X78650000Y-91509170D01*
X78650000Y-82571000D01*
X83182000Y-82571000D01*
X83182000Y-83330830D01*
X83289787Y-83591050D01*
X83488950Y-83790213D01*
X83749170Y-83898000D01*
X84509000Y-83898000D01*
X84686000Y-83721000D01*
X84686000Y-82394000D01*
X84794000Y-82394000D01*
X84794000Y-83721000D01*
X84971000Y-83898000D01*
X85730830Y-83898000D01*
X85991050Y-83790213D01*
X86190213Y-83591050D01*
X86298000Y-83330830D01*
X86298000Y-82571000D01*
X86121000Y-82394000D01*
X84794000Y-82394000D01*
X84686000Y-82394000D01*
X83359000Y-82394000D01*
X83182000Y-82571000D01*
X78650000Y-82571000D01*
X78650000Y-81349170D01*
X83182000Y-81349170D01*
X83182000Y-82109000D01*
X83359000Y-82286000D01*
X84686000Y-82286000D01*
X84686000Y-82266000D01*
X84794000Y-82266000D01*
X84794000Y-82286000D01*
X86121000Y-82286000D01*
X86298000Y-82109000D01*
X86298000Y-81349170D01*
X86190213Y-81088950D01*
X85991050Y-80889787D01*
X85806740Y-80813443D01*
X86105870Y-80365762D01*
X86218407Y-79800000D01*
X86105870Y-79234238D01*
X85785392Y-78754608D01*
X85449242Y-78530000D01*
X85785392Y-78305392D01*
X86105870Y-77825762D01*
X86218407Y-77260000D01*
X86105870Y-76694238D01*
X85789663Y-76221000D01*
X97547000Y-76221000D01*
X97547000Y-76680830D01*
X97654787Y-76941050D01*
X97853950Y-77140213D01*
X98114170Y-77248000D01*
X99468764Y-77248000D01*
X99634404Y-77402323D01*
X100241337Y-77628936D01*
X100501000Y-77473395D01*
X100501000Y-76044000D01*
X100609000Y-76044000D01*
X100609000Y-77473395D01*
X100868663Y-77628936D01*
X101475596Y-77402323D01*
X101641236Y-77248000D01*
X102995830Y-77248000D01*
X103256050Y-77140213D01*
X103455213Y-76941050D01*
X103563000Y-76680830D01*
X103563000Y-76221000D01*
X103386000Y-76044000D01*
X100609000Y-76044000D01*
X100501000Y-76044000D01*
X97724000Y-76044000D01*
X97547000Y-76221000D01*
X85789663Y-76221000D01*
X85785392Y-76214608D01*
X85305762Y-75894130D01*
X84882812Y-75810000D01*
X84597188Y-75810000D01*
X84174238Y-75894130D01*
X83694608Y-76214608D01*
X83374130Y-76694238D01*
X83261593Y-77260000D01*
X83374130Y-77825762D01*
X83694608Y-78305392D01*
X84030758Y-78530000D01*
X83694608Y-78754608D01*
X83374130Y-79234238D01*
X83261593Y-79800000D01*
X83374130Y-80365762D01*
X83673260Y-80813443D01*
X83488950Y-80889787D01*
X83289787Y-81088950D01*
X83182000Y-81349170D01*
X78650000Y-81349170D01*
X78650000Y-74631000D01*
X94012000Y-74631000D01*
X94012000Y-74940830D01*
X94119787Y-75201050D01*
X94318950Y-75400213D01*
X94579170Y-75508000D01*
X94939000Y-75508000D01*
X95116000Y-75331000D01*
X95116000Y-74454000D01*
X95224000Y-74454000D01*
X95224000Y-75331000D01*
X95401000Y-75508000D01*
X95760830Y-75508000D01*
X96021050Y-75400213D01*
X96220213Y-75201050D01*
X96328000Y-74940830D01*
X96328000Y-74631000D01*
X96151000Y-74454000D01*
X95224000Y-74454000D01*
X95116000Y-74454000D01*
X94189000Y-74454000D01*
X94012000Y-74631000D01*
X78650000Y-74631000D01*
X78650000Y-73859170D01*
X94012000Y-73859170D01*
X94012000Y-74169000D01*
X94189000Y-74346000D01*
X95116000Y-74346000D01*
X95116000Y-74326000D01*
X95224000Y-74326000D01*
X95224000Y-74346000D01*
X96151000Y-74346000D01*
X96258185Y-74238815D01*
X96287425Y-74282575D01*
X96485892Y-74415187D01*
X96720000Y-74461754D01*
X97620000Y-74461754D01*
X97815887Y-74422790D01*
X97822425Y-74432575D01*
X98020892Y-74565187D01*
X98255000Y-74611754D01*
X99451762Y-74611754D01*
X99536824Y-74668590D01*
X99468764Y-74732000D01*
X98114170Y-74732000D01*
X97853950Y-74839787D01*
X97654787Y-75038950D01*
X97547000Y-75299170D01*
X97547000Y-75759000D01*
X97724000Y-75936000D01*
X100501000Y-75936000D01*
X100501000Y-75916000D01*
X100609000Y-75916000D01*
X100609000Y-75936000D01*
X103386000Y-75936000D01*
X103563000Y-75759000D01*
X103563000Y-75299170D01*
X103455213Y-75038950D01*
X103256050Y-74839787D01*
X102995830Y-74732000D01*
X101641236Y-74732000D01*
X101573176Y-74668590D01*
X101658238Y-74611754D01*
X102855000Y-74611754D01*
X103089108Y-74565187D01*
X103287575Y-74432575D01*
X103409568Y-74250000D01*
X104393246Y-74250000D01*
X104393246Y-78850000D01*
X104439813Y-79084108D01*
X104572425Y-79282575D01*
X104770892Y-79415187D01*
X105005000Y-79461754D01*
X114405000Y-79461754D01*
X114639108Y-79415187D01*
X114837575Y-79282575D01*
X114901337Y-79187148D01*
X121015000Y-79187148D01*
X121015000Y-79972852D01*
X121315675Y-80698748D01*
X121871252Y-81254325D01*
X122597148Y-81555000D01*
X123382852Y-81555000D01*
X124108748Y-81254325D01*
X124664325Y-80698748D01*
X124965000Y-79972852D01*
X124965000Y-79187148D01*
X124664325Y-78461252D01*
X124108748Y-77905675D01*
X123382852Y-77605000D01*
X122597148Y-77605000D01*
X121871252Y-77905675D01*
X121315675Y-78461252D01*
X121015000Y-79187148D01*
X114901337Y-79187148D01*
X114970187Y-79084108D01*
X115016754Y-78850000D01*
X115016754Y-75227148D01*
X121015000Y-75227148D01*
X121015000Y-76012852D01*
X121315675Y-76738748D01*
X121871252Y-77294325D01*
X122597148Y-77595000D01*
X123382852Y-77595000D01*
X124108748Y-77294325D01*
X124664325Y-76738748D01*
X124965000Y-76012852D01*
X124965000Y-75227148D01*
X124664325Y-74501252D01*
X124108748Y-73945675D01*
X123382852Y-73645000D01*
X122597148Y-73645000D01*
X121871252Y-73945675D01*
X121315675Y-74501252D01*
X121015000Y-75227148D01*
X115016754Y-75227148D01*
X115016754Y-71267148D01*
X121015000Y-71267148D01*
X121015000Y-72052852D01*
X121315675Y-72778748D01*
X121871252Y-73334325D01*
X122597148Y-73635000D01*
X123382852Y-73635000D01*
X124108748Y-73334325D01*
X124664325Y-72778748D01*
X124965000Y-72052852D01*
X124965000Y-71267148D01*
X124664325Y-70541252D01*
X124108748Y-69985675D01*
X123382852Y-69685000D01*
X122597148Y-69685000D01*
X121871252Y-69985675D01*
X121315675Y-70541252D01*
X121015000Y-71267148D01*
X115016754Y-71267148D01*
X115016754Y-68050000D01*
X114970187Y-67815892D01*
X114837575Y-67617425D01*
X114639108Y-67484813D01*
X114405000Y-67438246D01*
X105005000Y-67438246D01*
X104770892Y-67484813D01*
X104572425Y-67617425D01*
X104439813Y-67815892D01*
X104393246Y-68050000D01*
X104393246Y-72650000D01*
X103409568Y-72650000D01*
X103287575Y-72467425D01*
X103089108Y-72334813D01*
X102855000Y-72288246D01*
X101992138Y-72288246D01*
X102120187Y-72096608D01*
X102125131Y-72071754D01*
X102855000Y-72071754D01*
X103089108Y-72025187D01*
X103287575Y-71892575D01*
X103420187Y-71694108D01*
X103466754Y-71460000D01*
X103466754Y-70360000D01*
X103420187Y-70125892D01*
X103287575Y-69927425D01*
X103089108Y-69794813D01*
X102855000Y-69748246D01*
X102125131Y-69748246D01*
X102120187Y-69723392D01*
X101987575Y-69524925D01*
X101789108Y-69392313D01*
X101555000Y-69345746D01*
X99555000Y-69345746D01*
X99320892Y-69392313D01*
X99122425Y-69524925D01*
X98989813Y-69723392D01*
X98984869Y-69748246D01*
X98255000Y-69748246D01*
X98020892Y-69794813D01*
X97822425Y-69927425D01*
X97700432Y-70110000D01*
X97588789Y-70110000D01*
X97510000Y-70094328D01*
X97197855Y-70156417D01*
X97124006Y-70205762D01*
X96933233Y-70333233D01*
X96888602Y-70400028D01*
X95770456Y-71518174D01*
X95620000Y-71488246D01*
X94720000Y-71488246D01*
X94485892Y-71534813D01*
X94287425Y-71667425D01*
X94154813Y-71865892D01*
X94108246Y-72100000D01*
X94108246Y-72900000D01*
X94154813Y-73134108D01*
X94287425Y-73332575D01*
X94361585Y-73382127D01*
X94318950Y-73399787D01*
X94119787Y-73598950D01*
X94012000Y-73859170D01*
X78650000Y-73859170D01*
X78650000Y-72411000D01*
X83182000Y-72411000D01*
X83182000Y-73170830D01*
X83289787Y-73431050D01*
X83488950Y-73630213D01*
X83749170Y-73738000D01*
X84509000Y-73738000D01*
X84686000Y-73561000D01*
X84686000Y-72234000D01*
X84794000Y-72234000D01*
X84794000Y-73561000D01*
X84971000Y-73738000D01*
X85730830Y-73738000D01*
X85991050Y-73630213D01*
X86190213Y-73431050D01*
X86298000Y-73170830D01*
X86298000Y-72411000D01*
X86121000Y-72234000D01*
X84794000Y-72234000D01*
X84686000Y-72234000D01*
X83359000Y-72234000D01*
X83182000Y-72411000D01*
X78650000Y-72411000D01*
X78650000Y-71189170D01*
X83182000Y-71189170D01*
X83182000Y-71949000D01*
X83359000Y-72126000D01*
X84686000Y-72126000D01*
X84686000Y-72106000D01*
X84794000Y-72106000D01*
X84794000Y-72126000D01*
X86121000Y-72126000D01*
X86298000Y-71949000D01*
X86298000Y-71189170D01*
X86190213Y-70928950D01*
X85991050Y-70729787D01*
X85806740Y-70653443D01*
X86105870Y-70205762D01*
X86218407Y-69640000D01*
X86105870Y-69074238D01*
X85785392Y-68594608D01*
X85449242Y-68370000D01*
X85785392Y-68145392D01*
X86105870Y-67665762D01*
X86177202Y-67307148D01*
X121015000Y-67307148D01*
X121015000Y-68092852D01*
X121315675Y-68818748D01*
X121871252Y-69374325D01*
X122597148Y-69675000D01*
X123382852Y-69675000D01*
X124108748Y-69374325D01*
X124664325Y-68818748D01*
X124965000Y-68092852D01*
X124965000Y-67307148D01*
X124664325Y-66581252D01*
X124108748Y-66025675D01*
X123382852Y-65725000D01*
X122597148Y-65725000D01*
X121871252Y-66025675D01*
X121315675Y-66581252D01*
X121015000Y-67307148D01*
X86177202Y-67307148D01*
X86218407Y-67100000D01*
X86105870Y-66534238D01*
X85785392Y-66054608D01*
X85305762Y-65734130D01*
X84882812Y-65650000D01*
X84597188Y-65650000D01*
X84174238Y-65734130D01*
X83694608Y-66054608D01*
X83374130Y-66534238D01*
X83261593Y-67100000D01*
X83374130Y-67665762D01*
X83694608Y-68145392D01*
X84030758Y-68370000D01*
X83694608Y-68594608D01*
X83374130Y-69074238D01*
X83261593Y-69640000D01*
X83374130Y-70205762D01*
X83673260Y-70653443D01*
X83488950Y-70729787D01*
X83289787Y-70928950D01*
X83182000Y-71189170D01*
X78650000Y-71189170D01*
X78650000Y-63521000D01*
X97547000Y-63521000D01*
X97547000Y-63980830D01*
X97654787Y-64241050D01*
X97853950Y-64440213D01*
X98114170Y-64548000D01*
X99468764Y-64548000D01*
X99634404Y-64702323D01*
X100241337Y-64928936D01*
X100501000Y-64773395D01*
X100501000Y-63344000D01*
X100609000Y-63344000D01*
X100609000Y-64773395D01*
X100868663Y-64928936D01*
X101475596Y-64702323D01*
X101641236Y-64548000D01*
X102995830Y-64548000D01*
X103256050Y-64440213D01*
X103455213Y-64241050D01*
X103563000Y-63980830D01*
X103563000Y-63521000D01*
X103386000Y-63344000D01*
X100609000Y-63344000D01*
X100501000Y-63344000D01*
X97724000Y-63344000D01*
X97547000Y-63521000D01*
X78650000Y-63521000D01*
X78650000Y-61931000D01*
X94012000Y-61931000D01*
X94012000Y-62240830D01*
X94119787Y-62501050D01*
X94318950Y-62700213D01*
X94579170Y-62808000D01*
X94939000Y-62808000D01*
X95116000Y-62631000D01*
X95116000Y-61754000D01*
X95224000Y-61754000D01*
X95224000Y-62631000D01*
X95401000Y-62808000D01*
X95760830Y-62808000D01*
X96021050Y-62700213D01*
X96220213Y-62501050D01*
X96328000Y-62240830D01*
X96328000Y-61931000D01*
X96151000Y-61754000D01*
X95224000Y-61754000D01*
X95116000Y-61754000D01*
X94189000Y-61754000D01*
X94012000Y-61931000D01*
X78650000Y-61931000D01*
X78650000Y-61159170D01*
X94012000Y-61159170D01*
X94012000Y-61469000D01*
X94189000Y-61646000D01*
X95116000Y-61646000D01*
X95116000Y-61626000D01*
X95224000Y-61626000D01*
X95224000Y-61646000D01*
X96151000Y-61646000D01*
X96258185Y-61538815D01*
X96287425Y-61582575D01*
X96485892Y-61715187D01*
X96720000Y-61761754D01*
X97620000Y-61761754D01*
X97815887Y-61722790D01*
X97822425Y-61732575D01*
X98020892Y-61865187D01*
X98255000Y-61911754D01*
X99451762Y-61911754D01*
X99536824Y-61968590D01*
X99468764Y-62032000D01*
X98114170Y-62032000D01*
X97853950Y-62139787D01*
X97654787Y-62338950D01*
X97547000Y-62599170D01*
X97547000Y-63059000D01*
X97724000Y-63236000D01*
X100501000Y-63236000D01*
X100501000Y-63216000D01*
X100609000Y-63216000D01*
X100609000Y-63236000D01*
X103386000Y-63236000D01*
X103563000Y-63059000D01*
X103563000Y-62599170D01*
X103455213Y-62338950D01*
X103256050Y-62139787D01*
X102995830Y-62032000D01*
X101641236Y-62032000D01*
X101573176Y-61968590D01*
X101658238Y-61911754D01*
X102855000Y-61911754D01*
X103089108Y-61865187D01*
X103287575Y-61732575D01*
X103409568Y-61550000D01*
X104393246Y-61550000D01*
X104393246Y-66150000D01*
X104439813Y-66384108D01*
X104572425Y-66582575D01*
X104770892Y-66715187D01*
X105005000Y-66761754D01*
X114405000Y-66761754D01*
X114639108Y-66715187D01*
X114837575Y-66582575D01*
X114970187Y-66384108D01*
X115016754Y-66150000D01*
X115016754Y-63347148D01*
X121015000Y-63347148D01*
X121015000Y-64132852D01*
X121315675Y-64858748D01*
X121871252Y-65414325D01*
X122597148Y-65715000D01*
X123382852Y-65715000D01*
X124108748Y-65414325D01*
X124664325Y-64858748D01*
X124965000Y-64132852D01*
X124965000Y-63347148D01*
X124664325Y-62621252D01*
X124108748Y-62065675D01*
X123382852Y-61765000D01*
X122597148Y-61765000D01*
X121871252Y-62065675D01*
X121315675Y-62621252D01*
X121015000Y-63347148D01*
X115016754Y-63347148D01*
X115016754Y-59387148D01*
X121015000Y-59387148D01*
X121015000Y-60172852D01*
X121315675Y-60898748D01*
X121871252Y-61454325D01*
X122597148Y-61755000D01*
X123382852Y-61755000D01*
X124108748Y-61454325D01*
X124664325Y-60898748D01*
X124965000Y-60172852D01*
X124965000Y-59387148D01*
X124664325Y-58661252D01*
X124108748Y-58105675D01*
X123382852Y-57805000D01*
X122597148Y-57805000D01*
X121871252Y-58105675D01*
X121315675Y-58661252D01*
X121015000Y-59387148D01*
X115016754Y-59387148D01*
X115016754Y-55427148D01*
X121015000Y-55427148D01*
X121015000Y-56212852D01*
X121315675Y-56938748D01*
X121871252Y-57494325D01*
X122597148Y-57795000D01*
X123382852Y-57795000D01*
X124108748Y-57494325D01*
X124664325Y-56938748D01*
X124965000Y-56212852D01*
X124965000Y-55427148D01*
X124664325Y-54701252D01*
X124108748Y-54145675D01*
X123382852Y-53845000D01*
X122597148Y-53845000D01*
X121871252Y-54145675D01*
X121315675Y-54701252D01*
X121015000Y-55427148D01*
X115016754Y-55427148D01*
X115016754Y-55350000D01*
X114970187Y-55115892D01*
X114837575Y-54917425D01*
X114639108Y-54784813D01*
X114405000Y-54738246D01*
X105005000Y-54738246D01*
X104770892Y-54784813D01*
X104572425Y-54917425D01*
X104439813Y-55115892D01*
X104393246Y-55350000D01*
X104393246Y-59950000D01*
X103409568Y-59950000D01*
X103287575Y-59767425D01*
X103089108Y-59634813D01*
X102855000Y-59588246D01*
X101992138Y-59588246D01*
X102120187Y-59396608D01*
X102125131Y-59371754D01*
X102855000Y-59371754D01*
X103089108Y-59325187D01*
X103287575Y-59192575D01*
X103420187Y-58994108D01*
X103466754Y-58760000D01*
X103466754Y-57660000D01*
X103420187Y-57425892D01*
X103287575Y-57227425D01*
X103089108Y-57094813D01*
X102855000Y-57048246D01*
X102125131Y-57048246D01*
X102120187Y-57023392D01*
X101987575Y-56824925D01*
X101789108Y-56692313D01*
X101555000Y-56645746D01*
X99555000Y-56645746D01*
X99320892Y-56692313D01*
X99122425Y-56824925D01*
X98989813Y-57023392D01*
X98984869Y-57048246D01*
X98255000Y-57048246D01*
X98020892Y-57094813D01*
X97822425Y-57227425D01*
X97700432Y-57410000D01*
X96888789Y-57410000D01*
X96810000Y-57394328D01*
X96497855Y-57456417D01*
X96381347Y-57534266D01*
X96233233Y-57633233D01*
X96188602Y-57700028D01*
X95100384Y-58788246D01*
X94720000Y-58788246D01*
X94485892Y-58834813D01*
X94287425Y-58967425D01*
X94154813Y-59165892D01*
X94108246Y-59400000D01*
X94108246Y-60200000D01*
X94154813Y-60434108D01*
X94287425Y-60632575D01*
X94361585Y-60682127D01*
X94318950Y-60699787D01*
X94119787Y-60898950D01*
X94012000Y-61159170D01*
X78650000Y-61159170D01*
X78650000Y-50821000D01*
X97547000Y-50821000D01*
X97547000Y-51280830D01*
X97654787Y-51541050D01*
X97853950Y-51740213D01*
X98114170Y-51848000D01*
X99468764Y-51848000D01*
X99634404Y-52002323D01*
X100241337Y-52228936D01*
X100501000Y-52073395D01*
X100501000Y-50644000D01*
X100609000Y-50644000D01*
X100609000Y-52073395D01*
X100868663Y-52228936D01*
X101475596Y-52002323D01*
X101641236Y-51848000D01*
X102995830Y-51848000D01*
X103256050Y-51740213D01*
X103455213Y-51541050D01*
X103563000Y-51280830D01*
X103563000Y-50821000D01*
X103386000Y-50644000D01*
X100609000Y-50644000D01*
X100501000Y-50644000D01*
X97724000Y-50644000D01*
X97547000Y-50821000D01*
X78650000Y-50821000D01*
X78650000Y-49231000D01*
X94012000Y-49231000D01*
X94012000Y-49540830D01*
X94119787Y-49801050D01*
X94318950Y-50000213D01*
X94579170Y-50108000D01*
X94939000Y-50108000D01*
X95116000Y-49931000D01*
X95116000Y-49054000D01*
X95224000Y-49054000D01*
X95224000Y-49931000D01*
X95401000Y-50108000D01*
X95760830Y-50108000D01*
X96021050Y-50000213D01*
X96220213Y-49801050D01*
X96328000Y-49540830D01*
X96328000Y-49231000D01*
X96151000Y-49054000D01*
X95224000Y-49054000D01*
X95116000Y-49054000D01*
X94189000Y-49054000D01*
X94012000Y-49231000D01*
X78650000Y-49231000D01*
X78650000Y-46562393D01*
X81800000Y-46562393D01*
X81800000Y-47437607D01*
X82134930Y-48246200D01*
X82753800Y-48865070D01*
X83562393Y-49200000D01*
X84437607Y-49200000D01*
X85246200Y-48865070D01*
X85652100Y-48459170D01*
X94012000Y-48459170D01*
X94012000Y-48769000D01*
X94189000Y-48946000D01*
X95116000Y-48946000D01*
X95116000Y-48926000D01*
X95224000Y-48926000D01*
X95224000Y-48946000D01*
X96151000Y-48946000D01*
X96258185Y-48838815D01*
X96287425Y-48882575D01*
X96485892Y-49015187D01*
X96720000Y-49061754D01*
X97620000Y-49061754D01*
X97815887Y-49022790D01*
X97822425Y-49032575D01*
X98020892Y-49165187D01*
X98255000Y-49211754D01*
X99451762Y-49211754D01*
X99536824Y-49268590D01*
X99468764Y-49332000D01*
X98114170Y-49332000D01*
X97853950Y-49439787D01*
X97654787Y-49638950D01*
X97547000Y-49899170D01*
X97547000Y-50359000D01*
X97724000Y-50536000D01*
X100501000Y-50536000D01*
X100501000Y-50516000D01*
X100609000Y-50516000D01*
X100609000Y-50536000D01*
X103386000Y-50536000D01*
X103563000Y-50359000D01*
X103563000Y-49899170D01*
X103455213Y-49638950D01*
X103256050Y-49439787D01*
X102995830Y-49332000D01*
X101641236Y-49332000D01*
X101573176Y-49268590D01*
X101658238Y-49211754D01*
X102855000Y-49211754D01*
X103089108Y-49165187D01*
X103287575Y-49032575D01*
X103409568Y-48850000D01*
X104393246Y-48850000D01*
X104393246Y-53450000D01*
X104439813Y-53684108D01*
X104572425Y-53882575D01*
X104770892Y-54015187D01*
X105005000Y-54061754D01*
X114405000Y-54061754D01*
X114639108Y-54015187D01*
X114837575Y-53882575D01*
X114970187Y-53684108D01*
X115016754Y-53450000D01*
X115016754Y-51467148D01*
X121015000Y-51467148D01*
X121015000Y-52252852D01*
X121315675Y-52978748D01*
X121871252Y-53534325D01*
X122597148Y-53835000D01*
X123382852Y-53835000D01*
X124108748Y-53534325D01*
X124664325Y-52978748D01*
X124965000Y-52252852D01*
X124965000Y-51467148D01*
X124664325Y-50741252D01*
X124108748Y-50185675D01*
X123382852Y-49885000D01*
X122597148Y-49885000D01*
X121871252Y-50185675D01*
X121315675Y-50741252D01*
X121015000Y-51467148D01*
X115016754Y-51467148D01*
X115016754Y-46562393D01*
X127800000Y-46562393D01*
X127800000Y-47437607D01*
X128134930Y-48246200D01*
X128753800Y-48865070D01*
X129562393Y-49200000D01*
X130437607Y-49200000D01*
X131246200Y-48865070D01*
X131865070Y-48246200D01*
X132200000Y-47437607D01*
X132200000Y-46562393D01*
X131865070Y-45753800D01*
X131246200Y-45134930D01*
X130437607Y-44800000D01*
X129562393Y-44800000D01*
X128753800Y-45134930D01*
X128134930Y-45753800D01*
X127800000Y-46562393D01*
X115016754Y-46562393D01*
X115016754Y-42650000D01*
X114970187Y-42415892D01*
X114837575Y-42217425D01*
X114639108Y-42084813D01*
X114405000Y-42038246D01*
X105005000Y-42038246D01*
X104770892Y-42084813D01*
X104572425Y-42217425D01*
X104439813Y-42415892D01*
X104393246Y-42650000D01*
X104393246Y-47250000D01*
X103409568Y-47250000D01*
X103287575Y-47067425D01*
X103089108Y-46934813D01*
X102855000Y-46888246D01*
X101992138Y-46888246D01*
X102120187Y-46696608D01*
X102125131Y-46671754D01*
X102855000Y-46671754D01*
X103089108Y-46625187D01*
X103287575Y-46492575D01*
X103420187Y-46294108D01*
X103466754Y-46060000D01*
X103466754Y-44960000D01*
X103420187Y-44725892D01*
X103287575Y-44527425D01*
X103089108Y-44394813D01*
X102855000Y-44348246D01*
X102125131Y-44348246D01*
X102120187Y-44323392D01*
X101987575Y-44124925D01*
X101789108Y-43992313D01*
X101555000Y-43945746D01*
X99555000Y-43945746D01*
X99320892Y-43992313D01*
X99122425Y-44124925D01*
X98989813Y-44323392D01*
X98984869Y-44348246D01*
X98255000Y-44348246D01*
X98020892Y-44394813D01*
X97822425Y-44527425D01*
X97700432Y-44710000D01*
X96138783Y-44710000D01*
X96059999Y-44694329D01*
X95981215Y-44710000D01*
X95981211Y-44710000D01*
X95747856Y-44756417D01*
X95687646Y-44796648D01*
X95565289Y-44878405D01*
X95483233Y-44933233D01*
X95438603Y-45000026D01*
X94660026Y-45778604D01*
X94593234Y-45823233D01*
X94548605Y-45890025D01*
X94548603Y-45890027D01*
X94435031Y-46060000D01*
X94416418Y-46087856D01*
X94394996Y-46195548D01*
X94287425Y-46267425D01*
X94154813Y-46465892D01*
X94108246Y-46700000D01*
X94108246Y-47500000D01*
X94154813Y-47734108D01*
X94287425Y-47932575D01*
X94361585Y-47982127D01*
X94318950Y-47999787D01*
X94119787Y-48198950D01*
X94012000Y-48459170D01*
X85652100Y-48459170D01*
X85865070Y-48246200D01*
X86200000Y-47437607D01*
X86200000Y-46562393D01*
X85865070Y-45753800D01*
X85246200Y-45134930D01*
X84437607Y-44800000D01*
X83562393Y-44800000D01*
X82753800Y-45134930D01*
X82134930Y-45753800D01*
X81800000Y-46562393D01*
X78650000Y-46562393D01*
X78650000Y-46028951D01*
X78721292Y-45230136D01*
X78925245Y-44484611D01*
X79257995Y-43786987D01*
X79709026Y-43159311D01*
X80264085Y-42621421D01*
X80905618Y-42190329D01*
X81613354Y-41879655D01*
X82369917Y-41698020D01*
X83023829Y-41650000D01*
X130971049Y-41650000D01*
X131769864Y-41721292D01*
G04 #@! TD*
M02*
